<svg xmlns="http://www.w3.org/2000/svg" width="193" height="200" fill="none" viewBox="0 0 193 200"><path fill="#00b08e" stroke="#231f20" d="M141.49 69.667c23.249 35.678 17.789 80.458-12.201 100.001-8.309 5.414-17.622 8.315-27.243 8.937-13.05.85-26.672-2.518-39.103-9.567-6.33-3.596-12.362-8.136-17.838-13.565-.31-.313-.613-.617-.917-.92-.249-.26-.492-.511-.734-.762a90.7 90.7 0 0 1-10.583-13.346c-23.249-35.679-17.78-80.464 12.21-100.007 29.993-19.543 73.16-6.45 96.409 29.23Z"/><path fill="#39ffd9" stroke="#231f20" d="M138.514 164.609c29.995-19.546 35.461-64.318 12.209-100S84.305 15.845 54.31 35.391s-35.46 64.318-12.208 100 66.418 48.764 96.412 29.218Z"/><path fill="#ffa04a" stroke="#231f20" d="M61.826 46.923c23.545-15.343 58.203-4.2 77.362 25.201 19.16 29.402 15.357 65.608-8.188 80.952s-58.205 4.2-77.364-25.202c-19.16-29.401-15.356-65.608 8.19-80.95Z"/><path fill="#9effec" stroke="#231f20" d="M61.826 46.923c23.545-15.343 58.203-4.2 77.362 25.202 19.16 29.401 15.357 65.608-8.188 80.951s-58.205 4.2-77.364-25.201c-19.16-29.402-15.356-65.608 8.19-80.952Z"/><path fill="#005f4c" stroke="#231f20" d="M61.825 46.931c23.503-15.314 58.23-4.148 77.359 25.209v.001c6.618 10.156 10.495 21.148 11.754 31.813-1.99-9.19-5.686-19.072-10.916-27.097-19.318-29.647-55.837-41.366-79.96-25.649-10.872 7.085-16.578 20.156-18.545 33.809.854-15.838 7.785-29.926 20.307-38.086Z"/><g filter="url(#a)"><path fill="#fff0cb" d="M129.948 74.87c3.452 3.025 1.077 15.88-3.164 16.394-3.898.472-13.106-7.271-12.69-11.117.452-4.186 12.403-8.3 15.856-5.276z"/><path fill="#ffc9a0" d="M126.784 91.264c2.481-.301 4.324-4.827 4.734-9.136-.832 2.341-2.122 4.28-3.687 5.058-5.554 2.765-11.024-2.147-13.743-6.976-.314 3.864 8.819 11.524 12.697 11.056z"/><path fill="#231f20" d="M126.546 91.718c-2.493.043-6.415-2.48-9.126-5.114-2.572-2.5-3.945-4.886-3.764-6.547.269-2.483 3.981-4.713 7.541-5.823 3.086-.96 7.08-1.38 9.024.324 2.133 1.868 2.154 6.743 1.271 10.481-.927 3.931-2.651 6.419-4.61 6.657q-.163.019-.336.023zm-.444-17.458c-1.344.024-2.912.292-4.564.805-3.929 1.223-6.811 3.349-7.007 5.17-.147 1.364 1.151 3.525 3.473 5.78 3.061 2.975 6.797 5.045 8.681 4.815 1.571-.19 3.12-2.573 3.946-6.072.991-4.197.588-8.225-.957-9.579-.73-.64-1.997-.948-3.57-.92z"/><path fill="#00d4fb" d="M65.284 128.331c-.81-.228-1.365-1.149-1.16-1.916 1.273-4.788 6.976-9.935 12.81-11.491-1.514 5.698-.273 11.403 1.002 14.218.067.147-6.802.833-12.652-.811"/><path fill="#2df8ff" d="M76.935 114.922a20 20 0 0 0-.405 1.893c-5.529 1.752-10.803 6.357-12.095 10.624a1.2 1.2 0 0 0-.043.236c-.262-.374-.379-.841-.267-1.261 1.273-4.787 6.976-9.935 12.811-11.49z"/><path fill="#231f20" d="M74.83 129.837q-.532.009-1.07.005c-2.198-.019-5.466-.225-8.554-1.093a2.2 2.2 0 0 1-1.246-.967c-.296-.481-.392-1.034-.264-1.515 1.306-4.911 7.176-10.186 13.084-11.762l.79-.211-.207.781c-1.558 5.859-.122 11.51.974 13.925l.113.251-.165.198c-.093.106-.17.198-1.494.302-.593.045-1.266.076-1.961.088zm-9.465-1.924c4.879 1.372 10.426 1.099 11.973.904-1.056-2.606-2.24-7.792-1.026-13.244-5.399 1.743-10.574 6.531-11.76 10.991-.07.257-.015.558.15.825.16.259.4.451.663.524"/><path fill="#00d4fb" d="M57.967 113.326c-.694-.504-.876-1.529-.385-2.134 3.07-3.771 10.556-6.206 16.787-5.407-3.654 4.489-4.649 10.013-4.5 12.985.009.155-6.888-1.8-11.904-5.444z"/><path fill="#2df8ff" d="M74.37 105.785a19 19 0 0 0-1.118 1.529c-6.011-.512-12.873 1.603-15.762 4.906-.05.06-.097.126-.132.193-.11-.431-.043-.889.228-1.219 3.07-3.772 10.555-6.207 16.787-5.409z"/><path fill="#231f20" d="M69.918 119.214c-.17.003-.511-.064-1.387-.331a41 41 0 0 1-2.961-1.05c-2.115-.838-5.192-2.244-7.839-4.167a2.13 2.13 0 0 1-.831-1.324c-.1-.537.02-1.064.328-1.444 3.148-3.867 10.843-6.354 17.155-5.546l.844.109-.502.616c-3.757 4.614-4.543 10.164-4.414 12.715l.013.265-.237.114c-.043.02-.085.04-.17.041zm-11.714-6.229c4.183 3.038 9.644 4.871 11.213 5.276-.017-2.707.832-7.749 4.103-12.132-5.884-.471-12.722 1.843-15.58 5.356-.165.204-.228.491-.173.788.055.29.213.549.439.712z"/><path fill="#00d4fb" d="M57.477 99.645c-.592-.619-.57-1.64.045-2.122 3.831-3.02 11.815-3.893 17.892-1.907-4.562 3.593-6.67 8.7-7.119 11.582-.023.151-6.532-3.075-10.818-7.553"/><path fill="#2df8ff" d="M75.414 95.614q-.758.6-1.429 1.248c-5.914-1.665-13.208-.979-16.763 1.626q-.095.073-.172.16c-.023-.433.135-.86.473-1.125 3.832-3.02 11.814-3.893 17.891-1.907z"/><path fill="#231f20" d="M68.338 107.64c-.144.003-.423-.085-1.408-.598a41 41 0 0 1-2.751-1.586c-1.948-1.22-4.745-3.168-7.008-5.532a2.05 2.05 0 0 1-.565-1.434c.008-.535.233-1.016.619-1.32 3.929-3.096 12.132-3.978 18.286-1.968l.823.27-.626.494c-4.689 3.695-6.593 8.867-6.98 11.341l-.04.257-.259.064a.4.4 0 0 1-.093.014zm-.42-12.652c-3.98.07-7.809 1.08-10.1 2.885a.92.92 0 0 0-.33.722c-.005.29.103.57.294.769 3.576 3.735 8.672 6.559 10.16 7.255.529-2.601 2.394-7.274 6.547-10.841-2.075-.574-4.349-.829-6.572-.79z"/><path fill="#00d4fb" d="M59.39 87.365c-.468-.71-.238-1.685.475-2.028 4.444-2.147 12.61-1.418 18.29 1.678-5.29 2.553-8.43 7.04-9.462 9.718-.055.14-5.915-4.231-9.301-9.37z"/><path fill="#2df8ff" d="M78.154 87.015q-.88.427-1.682.916c-5.582-2.76-13.021-3.529-17.105-1.727a1.2 1.2 0 0 0-.205.12c.064-.422.31-.8.7-.987 4.446-2.147 12.61-1.418 18.292 1.678"/><path fill="#231f20" d="M68.728 97.172c-.144.002-.3-.025-1.37-.855a42 42 0 0 1-2.433-2.061c-1.704-1.551-4.11-3.97-5.897-6.683-.29-.44-.39-.981-.277-1.485.116-.513.439-.93.886-1.147 4.559-2.2 12.947-1.439 18.7 1.697l.77.42-.727.352c-5.438 2.626-8.388 7.216-9.274 9.514l-.091.24-.273.01h-.016zm-8.973-10.018c2.824 4.286 7.353 7.996 8.704 8.956 1.054-2.393 3.864-6.51 8.742-9.119-5.474-2.674-12.968-3.26-17.109-1.261a.9.9 0 0 0-.476.629c-.062.276-.01.566.14.795z"/><path fill="#00d4fb" d="M67.758 74.793c-.224-.798.322-1.615 1.133-1.7 5.063-.537 12.826 2.74 17.373 7.383-6.027.639-10.583 3.73-12.476 5.844-.099.11-4.404-5.755-6.03-11.529z"/><path fill="#2df8ff" d="M86.264 80.476q-1.002.108-1.95.3c-4.56-4.305-11.598-7.39-16.195-7.05a1.3 1.3 0 0 0-.239.043c.201-.364.567-.63 1.011-.676 5.063-.537 12.826 2.739 17.373 7.383"/><path fill="#231f20" d="m73.964 86.816-.271-.08c-.146-.044-.273-.082-1.075-1.222a41 41 0 0 1-1.706-2.661c-1.159-1.962-2.72-4.94-3.577-7.987a1.76 1.76 0 0 1 .218-1.445c.282-.43.736-.708 1.246-.763 5.19-.55 13.16 2.828 17.766 7.532l.617.63-.827.087c-6.195.657-10.599 3.903-12.223 5.718l-.168.187zm-5.781-12.097c1.356 4.815 4.573 9.651 5.58 10.959 1.82-1.847 5.931-4.707 11.572-5.527-4.485-4.192-11.636-7.125-16.352-6.624a.92.92 0 0 0-.674.421.94.94 0 0 0-.125.771z"/><path fill="#00d4fb" d="M76.56 65.379c.001-.81.813-1.407 1.687-1.248 5.458.992 12.617 6.33 16.006 11.993-6.496-1.182-12.177.354-14.784 1.764-.136.074-2.911-6.655-2.908-12.508z"/><path fill="#2df8ff" d="M94.253 76.122q-1.08-.194-2.13-.296c-3.505-5.35-9.96-10.294-14.87-11.333a1.5 1.5 0 0 0-.264-.03 1.5 1.5 0 0 1 1.258-.332c5.458.992 12.617 6.33 16.005 11.991"/><path fill="#231f20" d="m79.491 78.393-.239-.147c-.521-.33-1.734-4.383-1.744-4.423-.633-2.166-1.388-5.399-1.388-8.487 0-.487.225-.945.614-1.259a1.92 1.92 0 0 1 1.55-.372c5.583 1.014 12.914 6.5 16.343 12.23l.466.777-.875-.159c-6.69-1.216-12.265.51-14.504 1.723l-.22.119zM77.99 64.54a1.08 1.08 0 0 0-.656.232.84.84 0 0 0-.331.651c-.001 4.926 1.966 10.41 2.62 11.873 2.434-1.184 7.6-2.655 13.772-1.75-3.463-5.226-10.09-10.064-15.184-10.991a1.2 1.2 0 0 0-.223-.019z"/><path fill="#00d4fb" d="M110.729 68.948c.321-.136.717.019.908.341 1.703 2.906 3.366 9.383 1.295 10.774-1.814 1.219-7.811-.693-8.505-2.94-.805-2.613 2.727-6.65 6.302-8.175"/><path fill="#2df8ff" d="M104.427 77.121c.361 1.17 2.16 2.25 4.057 2.844-1.44-.549-2.693-1.445-2.946-2.459-.635-2.553 2.615-6.686 5.829-8.337a.6.6 0 0 1 .135-.05c-.208-.204-.518-.282-.773-.173-3.575 1.527-7.108 5.563-6.304 8.175z"/><path fill="#231f20" d="M111.432 80.875c-1.257.022-2.773-.342-3.996-.838-1.859-.754-3.109-1.785-3.431-2.828-.887-2.882 2.838-7.095 6.515-8.664.522-.223 1.179.022 1.492.557.922 1.571 1.755 3.97 2.122 6.114.322 1.878.422 4.306-.931 5.215-.446.3-1.069.434-1.771.446zm-.494-11.526c-3.634 1.55-6.764 5.502-6.09 7.686.227.737 1.32 1.58 2.85 2.2 2.005.815 4.137 1.01 4.958.46 1.7-1.142.369-7.209-1.397-10.22-.069-.118-.209-.174-.321-.126"/><path fill="#00bf9a" d="M64.583 109.274c-2.14-17.434 8.809-35.796 31.284-34.796 23.448 1.043 36.618 13.26 39.62 30.247 14.777 16.728-9.274 34.692-32.74 31.51-19.595.342-36.023-9.526-38.164-26.961"/><path fill="#231f20" d="M81.99 132.623a35.5 35.5 0 0 1-6.203-3.636c-6.632-4.881-10.658-11.694-11.641-19.705-1.208-9.836 1.76-19.664 7.942-26.294 5.857-6.283 14.072-9.376 23.754-8.945 11.142.496 20.315 3.476 27.265 8.861 6.468 5.012 10.815 12.114 12.576 20.538.149.714.474 1.4.941 1.988 3.039 3.825 4.289 7.828 3.712 11.896-.519 3.655-2.553 7.234-5.886 10.348-1.364 1.275-2.939 2.464-4.676 3.535l-.52-.751c1.694-1.044 3.227-2.202 4.556-3.444 3.206-2.994 5.161-6.417 5.652-9.894.541-3.818-.639-7.585-3.51-11.199a5.8 5.8 0 0 1-1.131-2.389c-1.712-8.199-5.934-15.102-12.21-19.964-6.784-5.257-15.771-8.168-26.713-8.654-9.433-.42-17.43 2.589-23.128 8.698-6.027 6.466-8.921 16.056-7.743 25.655.951 7.745 4.84 14.33 11.244 19.044a34.4 34.4 0 0 0 6.028 3.531l-.303.781z"/><path fill="#231f20" d="M89.156 134.706c-4.628-.566-9.603-2.718-13.13-6.056 2.145 1.167 4.257 2.288 6.46 3.279 2.2 1.008 4.427 1.854 6.67 2.777M134.128 127.343c-2.332 3.074-6.291 5.411-10.178 6.27 1.702-1.069 3.441-2.016 5.144-3.062 1.714-1.03 3.342-2.127 5.034-3.208M79.873 105.253c-1.123-3.672 1.232-7.344 4.639-8.409 2.928-.99 6.6-.216 9.075 2.067 1.746 1.565 2.89 3.88 2.756 6.056a9.8 9.8 0 0 0-1.398-2.862c-4.824-6.567-14.7-4.536-15.072 3.15zM130.244 103.452c-.811-3.103-3.261-5.952-6.485-6.63-3.17-.662-6.006.95-7.236 3.664-.369.792-.6 1.677-.718 2.629a6.55 6.55 0 0 1-.114-2.956c.581-3.12 3.355-5.3 6.656-5.224 4.432.1 8.334 4.207 7.897 8.517M82.575 88.375c.67-2.196 3.241-3.504 5.597-2.489.753.31 1.426.775 1.965 1.357-1.304-.525-2.549-.967-3.873-.829-1.465.172-2.641 1-3.687 1.963zM121.086 86.745c-2.152-.721-4.234-1.847-5.889-.029.13-1.302 1.4-2.039 2.717-1.807 1.229.198 2.365.866 3.172 1.835M101.736 105.319c.368-1.272 1.924-1.459 2.806-.425.265.318.453.759.373 1.297l-.087.101-.259-.173a4.7 4.7 0 0 0-2.002-.631 6 6 0 0 0-.795-.032zM112.541 106.189c-.685-1.463.423-2.707 1.889-2.12.232.099.474.275.614.5l.012.14c-.99.188-1.684.969-2.405 1.577l-.112-.097z"/><path fill="#00a192" d="M99.522 101.919c3.118-3.959 9.955-4.536 14.564-1.478l-.027.098c-.312-.097-.623-.203-.936-.292a21 21 0 0 0-1.897-.448c-3.492-.657-7.078-.197-10.07 1.286-.545.268-1.079.565-1.563.916l-.071-.084z"/><path fill="#ffb5b6" d="M81.095 115.846c3.457-.365 5.899-2.365 5.454-4.467-.444-2.102-3.607-3.51-7.064-3.145s-5.899 2.365-5.454 4.467c.444 2.102 3.607 3.51 7.063 3.145M136.847 110.276c-.17-1.995-2.67-3.658-5.584-3.715s-5.139 1.514-4.969 3.509 2.669 3.658 5.584 3.715 5.138-1.514 4.969-3.509"/><path fill="#bf2a31" d="M90.64 114.636c-.464-3.084-.19-6.491 3.155-4.986 2.594 1.168 4.037 3.255 8.954 1.998s6.76-2.647 12.601-.746c4.591 1.493 4.338-.568 6.159-1.635 1.35-.789 2.624 1.052 1.738 5.734-.886 4.681-3.341 16.348-14.375 16.541-10.967-.244-17.264-10.476-18.233-16.906z"/><path fill="#ff6e70" d="M116.659 128.785c-1.952 1.617-4.485 2.7-7.786 2.757-9.553-.213-15.563-8.002-17.593-14.259.523-3.917 3.054-5.258 5.766-5.875 1.366.616 3.015.927 5.703.24 4.914-1.257 6.756-2.645 12.588-.75 4.849 3.928 7.801 10.878 1.322 17.887"/><path fill="#ff9595" d="M120.37 124.057c-2.056 3.907-5.516 7.38-11.496 7.485-7.418-.165-12.698-4.898-15.639-9.932 2.004-2.946 5.9-5.746 11.264-6.123 9.233-.65 15.899 8.366 15.871 8.57"/><path fill="#231f20" d="M108.927 131.977h-.017c-6.348-.142-10.692-3.503-13.217-6.299-2.833-3.133-4.935-7.358-5.489-11.022-.299-1.977-.377-4.529.945-5.462.685-.484 1.625-.462 2.793.065.619.278 1.171.605 1.704.92 1.715 1.014 3.335 1.972 6.951 1.048a63 63 0 0 0 2.492-.701c3.304-.978 5.486-1.622 10.358-.036 3.095 1.008 3.715.355 4.572-.548.328-.346.701-.74 1.237-1.052.552-.324 1.147-.306 1.633.048 1.098.8 1.385 3.056.793 6.186-.779 4.118-3.151 16.652-14.755 16.855zm-16.551-22.259a1.15 1.15 0 0 0-.664.2c-.77.545-1.003 2.257-.635 4.698.982 6.51 7.304 16.252 17.754 16.491 10.953-.196 13.234-12.263 13.985-16.228.654-3.446.055-4.93-.4-5.263-.066-.048-.266-.194-.651.032-.442.259-.761.595-1.07.92-.938.989-1.824 1.923-5.442.745-4.601-1.497-6.57-.916-9.83.049-.742.221-1.584.469-2.52.708-3.972 1.016-5.84-.089-7.649-1.158-.509-.301-1.037-.612-1.606-.869q-.74-.332-1.272-.323z"/><path fill="#00d4fb" d="M105.37 83.944c-.401.406-4.29 5.257-1.275 8.406 2.846 2.973 6.693.291 5.482-3.104-.857-2.406-2.171-3.854-4.205-5.3z"/><path fill="#2df8ff" d="M106.493 93.617c1.485-.237 2.545-2.138 1.852-4.35-.705-2.251-1.714-3.665-3.226-5.026.119-.148.206-.25.252-.295 2.033 1.446 3.347 2.892 4.204 5.3.884 2.48-.93 4.58-3.082 4.371"/><path fill="#231f20" d="M106.881 94.067c-.966.017-2.066-.365-3.091-1.436-1.382-1.444-1.642-3.416-.751-5.702.676-1.74 1.806-3.107 2.001-3.303l.247-.25.318.226c2.682 1.908 3.693 3.594 4.386 5.54.651 1.825.011 3.687-1.558 4.529-.438.234-.97.388-1.55.398zm-1.412-9.537c-.97 1.195-3.413 5.09-1.069 7.54 1.6 1.67 3.122 1.053 3.55.825 1-.536 1.807-1.873 1.21-3.544-.715-2.01-1.766-3.387-3.691-4.821"/><path fill="#fff0cb" d="M60.84 76.333c-2.512 3.284 3.642 15.768 7.982 15.908 3.988.13 10.782-8.31 9.232-12.071-1.688-4.093-14.702-7.122-17.213-3.838z"/><path fill="#ffc9a0" d="M68.82 92.24c-2.538-.082-5.699-4.39-7.38-8.608 1.515 2.24 3.362 4.04 5.138 4.674 6.3 2.25 10.246-3.072 11.498-8.076 1.455 3.789-5.29 12.138-9.255 12.01"/><path fill="#231f20" d="M69.013 92.677q-.082.001-.16-.001c-2.004-.064-4.442-2.371-6.524-6.171-1.98-3.614-3.403-8.428-1.853-10.456 1.415-1.851 5.481-1.78 8.813-1.1 3.843.785 8.169 2.665 9.171 5.095.67 1.625.023 4.1-1.775 6.789-1.94 2.903-5.17 5.802-7.672 5.845zM65.086 75.37c-1.881.033-3.283.458-3.885 1.244-1.124 1.47-.328 5.483 1.894 9.538 1.852 3.38 4.087 5.6 5.695 5.65q.057.003.118.002c1.937-.034 4.927-2.37 7.023-5.505 1.623-2.428 2.264-4.674 1.715-6.007-.734-1.78-4.208-3.628-8.448-4.495-1.509-.309-2.908-.448-4.111-.427"/><path fill="#00d4fb" d="M94.252 76.122c-6.349-1.153-11.61.356-14.383 1.667-.442-.814-1.04-2.628-1.04-2.628 2.422-.931 11.106-1.41 14.039-1.488.405.55 1.048 1.889 1.384 2.45"/><path fill="#231f20" d="m79.886 78.182-.47-.78c2.78-1.432 8.036-2.724 13.98-1.854q-.287-.435-.604-.866l.697-.46c.413.563.796 1.138 1.138 1.709l.466.778-.876-.159c-6.092-1.107-11.527.189-14.331 1.632"/><path fill="#00d4fb" d="M91.069 75.517c-.38-3.244-.805-9.92 1.012-15.712.236-.753 1.133-1.051 1.876-.62 6.218 3.608 13.402 14.951 11.557 21.81-.219.815-1.272 1.004-1.933.368-4.6-4.427-8.777-5.582-12.213-5.585a.304.304 0 0 1-.298-.263z"/><path fill="#2df8ff" d="M105.515 80.998a.99.99 0 0 1-.748.715c1.691-7.036-5.849-18.105-12.658-21.985.27-.695 1.132-.957 1.849-.541 6.216 3.606 13.401 14.951 11.557 21.81"/><path fill="#231f20" d="M104.57 82.179a1.82 1.82 0 0 1-1.281-.522c-3.803-3.66-7.688-5.442-11.876-5.443a.81.81 0 0 1-.782-.693c-.4-3.43-.8-10.057 1.028-15.883.15-.478.512-.843.997-1.002a1.84 1.84 0 0 1 1.495.18c3.127 1.814 6.571 5.597 8.989 9.874 2.649 4.688 3.672 9.228 2.804 12.457-.14.518-.543.891-1.081 1q-.144.03-.291.031zm-13.08-6.833c4.383.049 8.435 1.922 12.382 5.722a.83.83 0 0 0 .728.228.61.61 0 0 0 .488-.45c1.73-6.439-5.023-17.635-11.324-21.291a.92.92 0 0 0-.753-.09.78.78 0 0 0-.505.507c-1.753 5.591-1.402 11.964-1.015 15.374z"/><path fill="#00d4fb" d="M79.91 69.59c-.394-.097-.76.129-.838.505-.713 3.378-.02 10.586 2.726 11.767 2.405 1.035 8.087-1.926 7.969-4.445-.137-2.927-5.451-6.728-9.856-7.826"/><path fill="#2df8ff" d="M89.769 77.417c.06 1.312-1.451 2.743-3.253 3.667 1.33-.806 2.328-1.96 2.21-3.086-.295-2.837-5.347-6.786-9.413-8.073a1 1 0 0 0-.162-.032.675.675 0 0 1 .76-.302c4.405 1.098 9.721 4.899 9.858 7.826"/><path fill="#231f20" d="M83.109 82.506c-.53.01-1.023-.066-1.45-.25-.977-.42-2.284-1.703-2.955-5.423-.424-2.351-.45-5.047-.064-6.87.126-.602.714-.95 1.337-.795 4.512 1.123 10.082 5.065 10.232 8.273.055 1.161-.892 2.449-2.591 3.534-1.277.816-3.027 1.504-4.508 1.53zM79.77 70.003a.27.27 0 0 0-.264.222c-.358 1.699-.33 4.33.068 6.546.457 2.533 1.32 4.245 2.366 4.696 1.095.47 3.306-.058 5.146-1.232 1.423-.908 2.282-1.997 2.243-2.84-.056-1.212-1.2-2.759-3.135-4.242-1.886-1.445-4.258-2.618-6.347-3.138a.3.3 0 0 0-.076-.009z"/></g><defs><filter id="a" width="83.867" height="82.053" x="56.605" y="58.551" color-interpolation-filters="sRGB" filterUnits="userSpaceOnUse"><feFlood flood-opacity="0" result="BackgroundImageFix"/><feBlend in="SourceGraphic" in2="BackgroundImageFix" result="shape"/><feColorMatrix in="SourceAlpha" result="hardAlpha" values="0 0 0 0 0 0 0 0 0 0 0 0 0 0 0 0 0 0 127 0"/><feOffset dy="4"/><feGaussianBlur stdDeviation="2"/><feComposite in2="hardAlpha" k2="-1" k3="1" operator="arithmetic"/><feColorMatrix values="0 0 0 0 0 0 0 0 0 0 0 0 0 0 0 0 0 0 0.25 0"/><feBlend in2="shape" result="effect1_innerShadow_620_18775"/></filter></defs></svg>