<svg xmlns="http://www.w3.org/2000/svg" width="160" height="180" fill="none" viewBox="0 0 160 180"><ellipse cx="45.652" cy="10.435" fill="#000" fill-opacity=".1" rx="45.652" ry="10.435" transform="matrix(-1 0 0 1 155.235 159.13)"/><path fill="#00d4fb" d="M25.773 123.95c2.411-2.13 4.481-3.493 5.479-2.747 1.761 1.324 2.626 8.158 2.271 12.148-6.523-2.204-7.75-9.404-7.75-9.404z"/><path fill="#2df8ff" d="M32.368 123.019c-.263-.543-.567-.954-.908-1.188-1.005-.685-3.035 1.181-5.149 4.011-.407-1.118-.538-1.893-.538-1.893 2.409-2.129 4.481-3.493 5.479-2.744.427.321.8.967 1.118 1.814z"/><path fill="#231f20" d="m34.007 134.095-.66-.224c-6.752-2.282-8.062-9.521-8.115-9.827l-.05-.3.227-.202c2.241-1.978 4.727-3.856 6.169-2.772 2.033 1.527 2.844 8.615 2.488 12.633l-.062.694zm-7.633-9.944c.302 1.278 1.792 6.396 6.654 8.432.2-4.064-.724-9.903-2.105-10.94-.27-.204-1.253-.355-4.546 2.508z"/><path fill="#00d4fb" d="M37.703 132.793c1.444-3.882 2.881-6.799 4.161-6.944 2.265-.253 5.97 5.174 7.3 9.045-7.25 3.355-11.461-2.101-11.461-2.101"/><path fill="#2df8ff" d="M43.71 126.565c-.485-.271-.95-.394-1.38-.324-1.262.206-2.446 3.541-3.31 7.811-.864-.672-1.317-1.259-1.317-1.259 1.444-3.88 2.881-6.799 4.161-6.941.55-.062 1.184.212 1.845.715z"/><path fill="#231f20" d="M44.6 136.524c-4.637 0-7.296-3.353-7.328-3.396l-.186-.241.105-.285c1.844-4.958 3.225-7.14 4.612-7.296 2.683-.304 6.52 5.465 7.88 9.41l.16.467-.45.207c-1.772.821-3.375 1.134-4.796 1.134zm-6.272-3.841c.852.944 4.423 4.309 10.149 1.915-1.656-4.405-5.063-8.37-6.551-8.204-.482.055-1.582.95-3.598 6.289"/><path fill="#00d4fb" d="M52.956 133.964c.812-4.753 1.779-8.436 3.05-8.985 2.25-.972 6.91 3.93 8.908 7.825-6.779 5.94-11.958 1.16-11.958 1.16"/><path fill="#2df8ff" d="M57.995 125.211c-.534-.156-1.028-.149-1.45.059-1.243.613-1.885 4.681-2.044 9.688-.99-.482-1.545-.996-1.545-.996.812-4.753 1.779-8.436 3.05-8.983.547-.237 1.234-.125 1.99.232"/><path fill="#231f20" d="M58.055 136.315c-3.298 0-5.436-1.917-5.468-1.95l-.22-.202.051-.293c1.026-6.007 2.035-8.817 3.374-9.394 2.694-1.162 7.567 4.092 9.61 8.077l.195.381-.322.282c-2.7 2.366-5.181 3.099-7.22 3.099m-4.506-2.569c1.005.776 5.215 3.464 10.678-1.073-2.396-4.418-6.531-7.825-8.002-7.191-.5.217-1.51 1.585-2.674 8.264z"/><path fill="#00d4fb" d="M66.722 113.462c-4.48 1.186-7.917 2.431-8.324 3.709-.72 2.259 4.413 6.353 8.332 7.955 5.055-7.058-.008-11.662-.008-11.662z"/><path fill="#2df8ff" d="M58.807 119.073c-.199-.503-.238-.983-.079-1.407.47-1.254 4.309-2.217 9.092-2.795-.553-.915-1.098-1.409-1.098-1.409-4.48 1.186-7.917 2.431-8.322 3.707-.175.547-.004 1.204.41 1.904z"/><path fill="#231f20" d="m66.923 125.793-.4-.164c-4.013-1.641-9.51-5.92-8.648-8.627.431-1.35 3.035-2.569 8.704-4.07l.29-.077.22.202c.055.05 5.364 5.018.086 12.386l-.252.352zm-.368-11.721c-6.266 1.685-7.477 2.766-7.636 3.265-.468 1.469 3.17 5.167 7.617 7.112 3.8-5.63.866-9.458.02-10.375z"/><path fill="#00d4fb" d="M69.326 101.004c-4.545.899-8.055 1.921-8.543 3.171-.862 2.208 4 6.62 7.81 8.469 5.494-6.721.733-11.64.733-11.64"/><path fill="#2df8ff" d="M61.07 106.101c-.166-.517-.175-.996.011-1.409.551-1.222 4.442-1.939 9.251-2.209-.494-.949-1.006-1.477-1.006-1.477-4.545.9-8.055 1.922-8.543 3.171-.21.536-.08 1.202.287 1.926z"/><path fill="#231f20" d="m68.744 113.325-.39-.189c-3.901-1.892-9.113-6.512-8.08-9.16.516-1.322 3.19-2.37 8.945-3.508l.29-.057.208.215c.05.052 5.033 5.35-.702 12.366l-.273.335zm.378-11.721c-6.36 1.282-7.639 2.284-7.829 2.77-.56 1.438 2.836 5.357 7.149 7.583 4.15-5.377 1.466-9.384.68-10.353"/><path fill="#00bf9a" d="M74.84 119.761c-8.455 15.918-39.115 23.026-51.636-.946-.687-1.424-2.791-1.3-2.791.946 0 47.612 57.786 40.401 62.906 22.542 1.994-6.952-8.479-22.542-8.479-22.542"/><path fill="#231f20" d="M55.442 156.472c-2.063 0-4.12-.137-6.129-.42-8.288-1.166-15.34-4.626-20.393-10.009-6.009-6.404-9.057-15.245-9.057-26.283 0-1.492.803-2.208 1.554-2.381.903-.205 1.84.287 2.28 1.197 6.884 13.183 18.245 15.19 24.404 15.21h.105c10.936 0 21.678-5.863 26.15-14.284l.43-.805.51.757a88 88 0 0 1 5.023 8.725c3.206 6.451 4.394 11.255 3.528 14.273-1.285 4.479-5.856 8.545-12.543 11.154-4.814 1.879-10.365 2.862-15.86 2.862zm-33.62-38.042a1 1 0 0 0-.162.017c-.44.101-.703.591-.703 1.313 0 10.75 2.948 19.341 8.76 25.534 4.879 5.2 11.708 8.544 19.747 9.675 14.917 2.096 30.803-4.011 33.328-12.815.777-2.707-.416-7.368-3.45-13.474-1.725-3.468-3.6-6.504-4.469-7.86-4.89 8.331-15.693 14.062-26.67 14.062h-.109c-5.083-.018-9.966-1.3-14.126-3.707-4.687-2.712-8.47-6.784-11.252-12.106-.218-.455-.588-.639-.897-.639z"/><path fill="#fff0cb" d="M82.902 143.474c-7.134 16.75-60.977 22.684-62.457-21.818 5.276 24.842 34.965 35.83 60.485 16.785z"/><path fill="#ffc9a0" d="M82.551 144.213c-6.84 13.213-42.977 19.041-56.778-3.167 14.506 13.065 32.973 12.034 44.091 3.747 3.468-1.438 6.937-3.364 10.337-5.817z"/><path fill="#231f20" d="M55.447 156.47c-2.714 0-5.407-.238-7.993-.72-7.606-1.42-14.094-4.862-18.762-9.95-5.503-5.998-8.461-14.115-8.794-24.125l1.081-.131c2.366 11.134 9.764 19.796 20.297 23.763 5.845 2.202 12.387 2.793 18.923 1.712 7.099-1.175 13.963-4.208 20.405-9.014l.575-.429 2.315 5.909-.087.205c-1.856 4.359-6.862 8.191-13.735 10.518-4.427 1.496-9.352 2.264-14.223 2.264zm-33.988-29.424c1.048 7.285 3.741 13.327 8.039 18.012 4.507 4.913 10.785 8.237 18.155 9.616 14.371 2.685 30.787-2.65 34.653-11.211l-1.628-4.158c-6.415 4.665-13.24 7.622-20.301 8.793-6.724 1.113-13.464.503-19.488-1.766-9.162-3.451-16.028-10.334-19.433-19.284z"/><path fill="#00d4fb" d="M1.69 94.97c.624-1.379 1.604-3.16 2.018-.645.414 2.514 1.825 5.49 4.015 3.149 2.444-2.615-.116-7.082-3.21-10.754-2.332-2.768-2.47-8.627-.129-11.688.86-1.125 2.659-.615 2.842.788.5 3.788.58 6.164 4.556 8.235 4.797 2.499 12.932 6.066 12.188 17.148-.69 10.276-13.973 15.084-20.619 9.035-5.785-5.265-2.505-13.397-1.658-15.266z"/><path fill="#2df8ff" d="M14.432 95.207c-.208-.206-.558-.105-.639.175-1.122 3.862-3.074 4.131-4.704 7.473-2.698 5.532 4.02 8.219 7.494 6.423 2.587-1.337 3.167-4.226 2.714-6.62-.123-.646-.948-.869-1.361-.357-.451.556-.845.828-1.184.976a.519.519 0 0 1-.714-.582c.773-3.797.05-5.843-1.606-7.488"/><path fill="#fff0cb" d="M151.56 76.87c1.456-2.562 1.775-7.114-.291-7.963-2.231-.917-5.153 3.736-5.33 6.036-.179 2.302 5.621 1.928 5.621 1.928"/><path fill="#231f20" d="M150.642 77.444c-1.357 0-3.733-.156-4.744-1.18a1.7 1.7 0 0 1-.506-1.363c.142-1.838 1.854-5.005 3.762-6.18 1.026-.63 1.829-.523 2.323-.32.683.28 1.2.887 1.499 1.751.641 1.86.23 4.93-.938 6.99l-.147.256-.295.02c-.116.006-.471.026-.954.026m.026-8.106c-.282 0-.598.105-.939.315-1.573.967-3.125 3.788-3.245 5.333a.61.61 0 0 0 .193.51c.72.729 3.05.902 4.547.845.91-1.786 1.234-4.335.717-5.832-.197-.567-.492-.937-.879-1.094a1 1 0 0 0-.394-.077"/><path fill="#fff0cb" d="M153.213 79.816c2.321-.427 5.024-2.469 4.19-4.058-.899-1.715-5.291-1.1-6.667-.078-1.377 1.024 2.477 4.135 2.477 4.135"/><path fill="#231f20" d="m153.064 80.4-.195-.158c-.503-.405-3.006-2.506-2.975-4 .008-.41.188-.756.518-1 1.07-.797 3.764-1.39 5.637-.964.89.204 1.527.626 1.84 1.226.3.57.289 1.216-.028 1.869-.655 1.343-2.611 2.626-4.55 2.982l-.247.046zm1.576-5.172c-1.372 0-2.917.398-3.578.89-.057.042-.074.077-.077.145-.013.661 1.342 2.092 2.372 2.963 1.501-.35 3.044-1.361 3.519-2.335.164-.335.177-.624.042-.882-.204-.387-.718-.575-1.116-.667a5.3 5.3 0 0 0-1.162-.116z"/><path fill="#00bf9a" d="M114.964 90.531c7.601-2.665 17.33-6.372 26.006-14.999 8.678-8.626 16.599 2.316 13.14 11.721-3.466 9.423-16.3 18.698-27.424 20.199"/><path fill="#00a192" d="M154.537 85.873a13 13 0 0 1-.425 1.38c-3.466 9.424-16.302 18.7-27.426 20.201l-5.357-7.731c16.766 5.775 28.004-3.583 33.208-13.85"/><path fill="#231f20" d="M140.268 102.333c-3.556 3.083-8.843 5.27-13.582 5.119 2.326-.755 4.586-1.495 6.849-2.381 2.269-.867 4.453-1.852 6.733-2.738"/><path fill="#231f20" d="m133.532 106.243-.383-1.024a40.2 40.2 0 0 0 6.834-3.352c6.597-4.031 11.687-9.564 13.614-14.802 1.823-4.957.361-10.881-3.262-13.205-1.569-1.007-4.818-2.077-8.98 2.061-8.516 8.465-17.996 12.246-26.212 15.129l-.361-1.033c8.103-2.84 17.448-6.568 25.803-14.87 3.435-3.414 7.205-4.22 10.341-2.206 1.892 1.214 3.385 3.422 4.094 6.057.737 2.745.597 5.742-.396 8.445-2.009 5.462-7.269 11.205-14.072 15.358a41.4 41.4 0 0 1-7.02 3.442"/><path fill="#fff0cb" d="M146.506 74.014c.134-.312.158-.663.059-.989-.437-1.442-1.982-3.98-3.816-3.414-1.875.58-1.702 3.802-1.418 5.108.055.247.171.482.348.663 1.407 1.43 3.945.705 4.829-1.368z"/><path fill="#231f20" d="M143.48 76.675a3.04 3.04 0 0 1-2.193-.908 1.9 1.9 0 0 1-.492-.93c-.296-1.352-.547-5.024 1.792-5.747.626-.192 1.26-.122 1.886.208 1.256.668 2.236 2.318 2.617 3.57a2 2 0 0 1-.079 1.36c-.525 1.235-1.632 2.148-2.888 2.386a3.4 3.4 0 0 1-.641.061zm-.204-6.596q-.184 0-.367.057c-1.414.438-1.311 3.252-1.046 4.47a.8.8 0 0 0 .203.395c.475.484 1.134.674 1.851.538.902-.17 1.701-.835 2.086-1.737a.9.9 0 0 0 .039-.615c-.317-1.048-1.155-2.43-2.083-2.921a1.44 1.44 0 0 0-.683-.187"/><path fill="#00bf9a" d="M106.433 144.172c9.45-.308 22.562-2.184 28.739 6.845s17.428-.617 21.59-5.366c4.819-5.497 3.267-14.635-7.194-11.445-3.659-10.664-13.02-14.997-28.205-12.034-11.287 12.398-14.93 21.998-14.93 21.998z"/><path fill="#00a192" d="M137.389 153.358c-.79-.573-1.534-1.343-2.217-2.339-5.326-7.786-15.809-7.465-24.654-7.029l-2.446-3.296c1.398-2.676 3.783-6.731 7.499-11.59 8.227 5.852 19.269 14.932 21.818 24.254M156.762 145.653c-3.258 3.719-10.864 10.441-16.977 8.846 2.722-7.559 12.956-16.323 19.551-16.054.232 2.317-.676 5.044-2.574 7.208"/><path fill="#fff0cb" d="M158.25 143.478a11 11 0 0 1-1.488 2.176c-2.267 2.588-6.643 6.632-11.155 8.313-.61-1.759 1.096-4.97 4.18-7.642 3.286-2.845 6.96-4.055 8.463-2.847"/><path fill="#231f20" d="M141.723 155.287a9 9 0 0 1-.532-.015c-2.61-.156-4.787-1.484-6.47-3.944-5.289-7.729-16.131-7.191-24.842-6.76-1.197.059-2.328.116-3.429.151l-.82.027.291-.768c.037-.097 3.811-9.839 15.037-22.171l.122-.133.177-.035c7.602-1.484 13.91-1.167 18.748.941 4.654 2.028 7.985 5.714 9.904 10.959 5.671-1.567 8.087.597 9.032 2.061 1.81 2.799 1.064 7.181-1.77 10.415-.849.969-8.339 9.272-15.45 9.274zm-25.26-12.029c7.324 0 14.86 1.162 19.162 7.451 1.481 2.166 3.378 3.333 5.632 3.469 2.575.153 8.658-1.543 15.094-8.887 2.479-2.828 3.199-6.741 1.674-9.1-1.39-2.151-4.337-2.669-8.298-1.462l-.505.154-.171-.499c-3.623-10.566-12.844-14.503-27.406-11.708-9.182 10.119-13.263 18.415-14.374 20.916.822-.032 1.669-.074 2.553-.118 2.125-.105 4.37-.216 6.637-.216z"/><path fill="#fff0cb" d="M158.25 135.787c-1.361.35-2.945.4-5.619 1.584-.403-1.711-.466-2.926-.298-3.753 3.002-.446 4.941.613 5.917 2.169"/><path fill="#231f20" d="m152.25 138.137-.151-.641c-.396-1.683-.497-3.024-.302-3.987l.077-.377.378-.056c2.871-.429 5.228.453 6.46 2.418l.398.634-.724.186c-.385.099-.781.175-1.202.254-1.085.206-2.437.462-4.332 1.302zm.565-4.029c-.062.65.008 1.489.21 2.502 1.691-.685 2.936-.922 3.956-1.114l.308-.059c-1.008-1.066-2.562-1.53-4.476-1.329z"/><path fill="#fff0cb" d="M154.941 136.523s-4.54 1.563-6.754 3.351c-1.377-2.241-1.068-3.968.431-5.178 1.019-.823 4.485-2.328 6.326 1.827z"/><path fill="#231f20" d="m147.92 140.672-.315-.512c-2.04-3.319-.005-5.346.667-5.888.639-.517 2.302-1.384 4.022-.968 1.352.326 2.411 1.335 3.146 2.998l.245.556-.577.186c-.042.013-4.175 1.361-6.711 3.267l-.482.361zm3.435-6.383c-.987 0-1.93.455-2.396.834-1.212.978-1.457 2.396-.707 3.95 2.068-1.407 4.744-2.442 5.924-2.865-.561-1.013-1.276-1.63-2.138-1.84a3 3 0 0 0-.683-.079"/><path fill="#00bf9a" d="M66.022 116.343C70.156 91.888 79.368 81.22 96.4 81.22c17.033 0 37.625 21.846 37.625 40.156S113.039 150.49 96.4 147.527c-6.288-1.12-30.023-5.223-30.023-5.223s-2.808-11.448-.355-25.961"/><path fill="#00a192" d="M72.935 115.497c-5.018 5.786-6.917 14.27-7.431 21.496-.552-4.714-.917-12.156.518-20.649q.268-1.582.565-3.088c1.967.022 4.1.661 6.348 2.241M126.813 138.18c-3.598 3.593-8.252 6.302-13.273 7.959 4.63-1.723 9.282-7.909 12.627-12.201-.636 1.775.02 3.616.646 4.242"/><path fill="#fff0cb" d="M82.628 124.477c0-13.966 10.37-27.037 23.159-27.037s23.337 10.226 23.337 24.192c0 13.967-10.545 26.381-23.337 26.381s-23.16-9.57-23.16-23.536"/><path fill="#00d4fb" fill-opacity=".602" d="m98.618 106.133 4.961 11.308-6.683 7.527z"/><path fill="#a3f1ff" d="m99.299 105.615 15.394 12.32-10.432-1.012z"/><path fill="#97efff" d="m107.989 128.487 3.396 7.72-14.472-10.019z"/><path fill="#61e6ff" d="m112.004 135.705-3.396-7.721 6.168-8.846z"/><path fill="#a4f1ff" d="m107.645 127.028-11.207-2.326 6.815-7.635z"/><path fill="#e6fbff" d="m114.403 117.622-6.243 8.936-4.392-9.962z"/><path fill="#ffc9a0" d="M126.091 134.334c-4.026 8.001-11.652 13.682-20.304 13.682-5.785 0-11.076-1.959-15.135-5.399 11.52 4.532 26.805 1.93 35.439-8.283"/><path fill="#231f20" d="M124.222 97.44c6.313 6.769 10.945 16.043 10.02 25.494-.162 1.335-.438 2.655-.873 3.915.199-1.317.326-2.634.337-3.95.052-9.315-4.375-17.907-9.484-25.46M65.845 142.433c-.029-.116-2.805-11.725-.363-26.182 2.102-12.445 5.529-21.277 10.476-26.998 4.992-5.772 11.679-8.58 20.442-8.58v1.094c-8.427 0-14.842 2.683-19.612 8.202-4.812 5.565-8.158 14.222-10.225 26.466-2.403 14.222.319 25.626.345 25.74l-1.063.26zM125.935 136.978c-4.533 7.118-12.947 11.235-21.286 11.451-2.785.097-5.577-.194-8.247-.901 5.444.516 10.95.155 16.125-1.613 5.188-1.716 9.754-4.858 13.408-8.937"/><path fill="#00bf9a" d="M99.511 147.921s-2.763-.379-1.26 15.102c.687 7.068-13.166 13.648-24.266 8.234-2.727-1.328-2.84-8.013 2.687-9.646-6.34-5.357-10.661-13.94-11.442-28.759 14.49 12.243 34.28 15.069 34.28 15.069z"/><path fill="#00a192" d="M75.536 162.052a7 7 0 0 1 1.135-.442c-4.317-3.65-7.7-8.795-9.662-16.388 3.49 8 8.691 14.73 12.95 16.542-1.655 0-3.134.116-4.423.288"/><path fill="#231f20" d="M82.962 173.913c-3.03 0-6.208-.634-9.227-2.17-1.733-.882-2.692-2.714-2.501-4.782.22-2.412 1.904-4.51 4.376-5.554-3.1-2.803-5.477-6.219-7.247-10.417-2.094-4.961-3.298-10.887-3.678-18.113l1.092-.057c.709 13.472 4.282 22.486 11.247 28.37l.774.655-.974.286c-1.92.567-4.251 2.197-4.503 4.929-.15 1.636.563 3.022 1.908 3.704 7.13 3.624 15.19 1.957 19.663-1.127 2.667-1.838 4.061-4.153 3.827-6.35-1.138-10.612.23-13.286 1.136-15.054.096-.188.186-.363.264-.538l.994.455c-.085.188-.184.378-.287.58-.844 1.652-2.122 4.151-1.022 14.439.28 2.608-1.286 5.293-4.293 7.368-2.833 1.954-7.028 3.37-11.551 3.37z"/><path fill="#fff0cb" d="M74.682 171.581a18 18 0 0 1-.698-.324c-1.247-.609-1.947-2.335-1.811-4.187.962-1.011 2.525-1.286 3.442-.208.297.348.459.793.503 1.25.153 1.595-.42 2.173-1.438 3.471z"/><path fill="#231f20" d="m74.85 172.253-.389-.171c-.253-.112-.49-.221-.72-.333-1.328-.647-2.686-2.341-2.525-4.53l.016-.194.135-.143c.714-.748 1.838-1.212 2.858-1.181.75.022 1.377.299 1.808.807.356.418.575.954.632 1.552.164 1.691-.431 2.442-1.328 3.575zm-2.55-4.751c-.031 1.58.956 2.792 1.925 3.263q.145.072.293.14c.832-1.053 1.175-1.508 1.057-2.742a1.7 1.7 0 0 0-.376-.948c-.285-.335-.705-.416-1.007-.425-.64-.013-1.394.267-1.895.709z"/><path fill="#fff0cb" d="M81.378 173.203a20 20 0 0 1-6.538-1.554c.387-2.155 1.755-4.409 3.658-4.39 2.28.024 3.05 2.917 2.88 5.944"/><path fill="#231f20" d="m81.892 173.785-.551-.037a20.5 20.5 0 0 1-6.716-1.598l-.4-.17.077-.429c.433-2.412 2.004-4.841 4.172-4.841h.031a2.77 2.77 0 0 1 2.068.913c1.367 1.464 1.433 4.142 1.352 5.608l-.03.554zm-6.424-2.469a19.4 19.4 0 0 0 5.383 1.294c.028-1.913-.364-3.475-1.08-4.239a1.7 1.7 0 0 0-1.281-.565c-1.438-.008-2.589 1.727-3.024 3.51z"/><path fill="#fff0cb" d="M88.875 172.384a21.7 21.7 0 0 1-7.945.784c.146-2.156 1.525-4.548 3.827-4.863 2.691-.367 3.919 1.62 4.118 4.079"/><path fill="#231f20" d="M82.794 173.796c-.64 0-1.28-.029-1.912-.084l-.534-.048.037-.534c.215-3.166 2.326-5.096 4.3-5.368 1.203-.164 2.223.081 3.028.729.978.786 1.57 2.116 1.71 3.847l.034.444-.427.125a22.3 22.3 0 0 1-6.234.886zm-1.254-1.132a21.2 21.2 0 0 0 6.74-.683c-.169-1.19-.606-2.116-1.254-2.639-.562-.453-1.302-.619-2.195-.496-1.818.249-2.99 2.059-3.29 3.818"/><path fill="#fff0cb" d="M33.804 104.314c-2.658-1.516-5.358-5.374-3.96-7.19 1.51-1.963 6.588.643 7.967 2.586 1.378 1.941-4.009 4.604-4.009 4.604z"/><path fill="#231f20" d="m33.787 104.933-.252-.144c-2.148-1.226-4.142-3.734-4.54-5.712-.182-.904-.037-1.696.418-2.287.33-.429.98-.93 2.212-.91 2.326.046 5.53 1.959 6.635 3.512.306.434.4.937.269 1.458-.488 1.932-4.073 3.753-4.48 3.954l-.26.129zm-2.247-7.959c-.589 0-1.013.162-1.26.484-.261.337-.333.81-.213 1.403.322 1.601 1.978 3.711 3.76 4.827 1.374-.722 3.382-2.085 3.64-3.105a.63.63 0 0 0-.1-.556c-.935-1.315-3.834-3.016-5.764-3.053z"/><path fill="#fff0cb" d="M33.887 107.769c-2.304.821-5.8.41-5.9-1.424-.104-1.983 4.15-3.703 5.922-3.51 1.772.192-.024 4.934-.024 4.934z"/><path fill="#231f20" d="M31.41 108.715c-1.114 0-2.214-.219-2.98-.729-.61-.407-.952-.965-.987-1.612-.035-.679.298-1.37.963-1.998 1.437-1.359 4.173-2.237 5.564-2.084.423.046.762.261.98.62.801 1.308-.319 4.438-.553 5.052l-.09.237-.238.085c-.764.272-1.718.429-2.663.429zm2.193-5.348c-1.202 0-3.35.766-4.447 1.803-.295.28-.645.707-.621 1.144.015.298.18.545.501.76.943.628 2.882.733 4.427.258.46-1.3.912-3.265.553-3.852-.041-.067-.083-.094-.166-.102a2 2 0 0 0-.25-.013z"/><path fill="#00bf9a" d="M73.775 97.508c-8.21 1.567-18.878 3.307-31.21.16-12.332-3.15-13.619 10.611-5.542 17.141 8.091 6.541 24.487 8.119 35.23 3.707"/><path fill="#231f20" d="M57.396 120.998c2.508-.383 4.985-.637 7.473-1.04 2.492-.383 4.908-.899 7.387-1.442-4.199 2.569-10.05 3.355-14.86 2.482"/><path fill="#231f20" d="M58.302 121.554q-.456 0-.917-.009c-8.277-.164-16.02-2.523-20.704-6.311-4.69-3.79-6.621-10.231-4.4-14.66 1.722-3.433 5.52-4.687 10.422-3.436 11.88 3.031 22.214 1.504 30.97-.166l.206 1.074c-8.872 1.692-19.35 3.239-31.445.151-5.967-1.523-8.309 1.143-9.173 2.865-1.967 3.922-.123 9.898 4.11 13.318 4.503 3.642 11.995 5.909 20.038 6.069 2.714.052 5.37-.136 7.895-.563l.182 1.079c-2.307.39-4.718.587-7.182.587z"/><path fill="#fff0cb" d="M36.813 99.179a1.5 1.5 0 0 1-.576-.843c-.374-1.5-.335-4.543 1.606-4.987 1.983-.455 3.538 2.482 3.976 3.782.083.247.103.514.04.766-.5 1.989-3.156 2.659-5.044 1.282z"/><path fill="#231f20" d="M39.018 100.451a4.32 4.32 0 0 1-2.53-.83 2.05 2.05 0 0 1-.785-1.153c-.322-1.293-.322-3.25.44-4.486.376-.613.921-1.015 1.575-1.166 2.453-.563 4.164 2.799 4.615 4.14.12.36.138.731.053 1.075-.256 1.015-1 1.814-2.042 2.19a3.9 3.9 0 0 1-1.326.228zm-.77-6.6q-.14 0-.284.033c-.372.085-.661.304-.887.671-.562.917-.58 2.565-.308 3.65a.96.96 0 0 0 .367.535c.838.61 1.928.785 2.838.457.705-.256 1.186-.761 1.353-1.429a.8.8 0 0 0-.029-.46c-.385-1.142-1.645-3.455-3.05-3.455z"/><path fill="#fff0cb" d="M119.957 14.434c4.606 2.632 4.143 18.942-.75 20.84-4.497 1.742-16.724-4.887-16.932-9.68-.225-5.214 13.074-13.793 17.68-11.16z"/><path fill="#ffc9a0" d="M119.207 35.272c2.862-1.11 4.21-7.154 3.91-12.507-.556 3.092-1.72 5.83-3.418 7.244-6.026 5.022-13.348.704-17.418-4.34.331 4.784 12.453 11.336 16.926 9.603"/><path fill="#231f20" d="M117.456 36.101c-2.974 0-7.065-1.665-10.157-3.687-3.449-2.254-5.479-4.732-5.569-6.795-.134-3.08 3.796-6.892 7.75-9.3 3.479-2.121 8.131-3.857 10.748-2.36 2.852 1.63 3.762 7.543 3.401 12.347-.379 5.057-1.959 8.6-4.223 9.478-.563.218-1.221.317-1.948.317zm.335-21.614c-2.009 0-4.808.973-7.744 2.763-4.352 2.653-7.324 6.075-7.225 8.32.072 1.683 1.969 3.898 5.074 5.927 4.147 2.709 8.923 4.114 11.111 3.265 1.808-.7 3.193-4.053 3.528-8.54.402-5.38-.797-10.138-2.854-11.313-.496-.285-1.14-.42-1.892-.42z"/><path fill="#00d4fb" d="M45.044 23.648c-.263-.985.429-2.077 1.44-2.274 6.295-1.234 15.87 2.057 21.424 7.432-7.495 1.47-13.212 5.88-15.604 8.762-.125.151-5.354-6.795-7.26-13.918z"/><path fill="#2df8ff" d="M67.908 28.804q-1.248.247-2.427.593c-5.58-4.944-14.255-8.07-19.969-7.136a1.7 1.7 0 0 0-.297.08c.258-.48.715-.86 1.269-.967 6.297-1.234 15.87 2.057 21.424 7.43"/><path fill="#231f20" d="m52.512 38.173-.335-.07c-.181-.04-.337-.075-1.31-1.43a45 45 0 0 1-2.066-3.177c-1.4-2.353-3.28-5.948-4.285-9.708a2.36 2.36 0 0 1 .3-1.85 2.4 2.4 0 0 1 1.563-1.102c6.455-1.267 16.284 2.132 21.91 7.574l.752.729-1.028.201c-7.705 1.51-13.234 6.101-15.289 8.574l-.212.256zM49.346 21.66c-.97 0-1.895.081-2.757.25-.34.066-.646.287-.845.606-.193.31-.256.672-.17.99 1.588 5.94 5.49 11.702 6.712 13.245 2.298-2.534 7.458-6.604 14.475-8.26-4.68-4.102-11.785-6.833-17.415-6.833z"/><path fill="#00d4fb" d="M56.155 10.776c.016-1.024 1.035-1.869 2.118-1.764 6.758.657 15.54 6.62 19.637 13.408-8.041-.78-15.127 1.784-18.39 3.854-.17.107-3.483-8.097-3.365-15.498"/><path fill="#2df8ff" d="M77.912 22.419a31 31 0 0 0-2.639-.14c-4.247-6.382-12.164-11.927-18.24-12.7a2 2 0 0 0-.326-.008c.4-.388.976-.617 1.569-.558 6.757.656 15.54 6.62 19.636 13.408z"/><path fill="#231f20" d="m59.54 26.911-.295-.16c-.641-.359-2.065-5.352-2.079-5.403-.744-2.67-1.617-6.674-1.555-10.58.008-.615.297-1.22.787-1.66a2.54 2.54 0 0 1 1.93-.64c6.913.671 15.908 6.803 20.052 13.67l.563.932-1.083-.105c-8.282-.803-15.239 1.994-18.044 3.771zm-1.448-17.36c-.348 0-.694.133-.965.374-.267.239-.418.545-.422.86-.099 6.228 2.238 12.949 3.022 14.728 3.043-1.766 9.485-4.193 17.133-3.725-4.2-6.228-12.333-11.62-18.637-12.233a1 1 0 0 0-.131-.006z"/><path fill="#00d4fb" d="M99.958 9.057a.85.85 0 0 1 1.074.457c1.65 3.699 2.665 11.877-.144 13.555-2.46 1.47-9.62-1.118-10.116-3.96-.578-3.303 4.481-8.253 9.186-10.052"/><path fill="#2df8ff" d="M90.772 19.11c.258 1.479 2.323 2.89 4.593 3.695-1.705-.733-3.12-1.9-3.27-3.177-.374-3.221 4.35-8.303 8.624-10.272a.8.8 0 0 1 .175-.057.84.84 0 0 0-.934-.24c-4.705 1.798-9.764 6.748-9.188 10.05"/><path fill="#231f20" d="M98.95 24.04c-1.583 0-3.44-.51-4.902-1.18-2.193-1.004-3.584-2.336-3.814-3.656-.637-3.641 4.693-8.808 9.53-10.657a1.396 1.396 0 0 1 1.769.746c.893 2 1.539 5.038 1.646 7.736.094 2.365-.177 5.416-2.009 6.51-.591.352-1.365.501-2.22.501m1.303-14.489a.3.3 0 0 0-.1.018c-4.78 1.827-9.326 6.683-8.843 9.447.162.932 1.385 2.024 3.193 2.851 2.368 1.084 4.991 1.4 6.105.733 2.304-1.378 1.634-9.029-.075-12.86a.31.31 0 0 0-.28-.189"/><path fill="#00bf9a" d="M46.007 77.67c-14.925-27.58 5.945-55.847 33.675-59.003 30.127-3.427 45.908 14.712 48.352 35.7 39.089 39.094-87.815 68.131-82.027 23.3z"/><path fill="#231f20" d="M63.94 99.837c-6.522-1.615-11.192-4.094-14.281-7.58-3.08-3.477-4.504-7.854-4.353-13.38a3.3 3.3 0 0 0-.358-1.604c-6.14-11.83-5.82-25.341.875-37.064 3.558-6.23 8.737-11.583 14.975-15.48 6.512-4.069 14.05-6.441 21.799-6.86 13.282-.72 24.124 2.4 32.222 9.267 7.256 6.151 11.897 15.119 13.424 25.934a4.87 4.87 0 0 0 1.552 2.897c2.03 1.854 6.698 6.922 6.177 13.923-.49 6.613-5.409 13.103-14.615 19.294l-.61-.908c8.914-5.992 13.669-12.206 14.135-18.467.484-6.52-3.912-11.286-5.825-13.032a5.97 5.97 0 0 1-1.897-3.552c-1.488-10.543-6-19.277-13.048-25.254-7.879-6.68-18.46-9.71-31.456-9.007-7.565.41-14.923 2.725-21.278 6.694-6.085 3.801-11.135 9.02-14.605 15.096-6.508 11.395-6.821 24.523-.856 36.018a4.4 4.4 0 0 1 .481 2.136c-.284 10.478 5.372 16.793 17.803 19.87l-.263 1.062z"/><path fill="#231f20" d="M76.671 100.345c-8.726 1.28-18.1-.747-24.794-6.69 8.435 4.915 15.181 6.215 24.794 6.69M127.241 83.939c-2.949 4.066-8.08 6.917-12.82 8.366 1.812-1.322 4.554-2.924 6.47-4.123 2.182-1.342 4.248-2.755 6.35-4.243M122.934 58.81c-.762-2.313-1.937-4.596-3.698-6.261-1.773-1.692-4.265-2.91-6.694-2.18-4.534 1.436-5.113 6.933-5.022 11.069-1.448-3.685-1.52-8.497 1.541-11.467 2.232-2.116 5.444-2.595 8.208-1.195 3.709 1.799 5.87 6.121 5.665 10.034"/><path fill="#fff" d="M63.37 66.173c-1.527-5.94 1.133-11.501 5.943-12.424 4.81-.922 9.944 3.144 11.472 9.084 1.022 3.977.166 7.785-1.953 10.145-1.968 1.003-6.594 2.881-10.965.303-2.076-1.643-3.733-4.138-4.497-7.108"/><path fill="#231f20" d="M80.901 63.133c.856 3.808-.007 7.417-2.042 9.684-.672.344-1.656.788-2.834 1.123-3.445.163-7.022-3.186-8.221-7.858-1.282-4.993.637-9.608 4.284-10.309 3.648-.7 7.423 2.587 8.813 7.36"/><path fill="#00d4fb" d="M80.095 67.87c.287 1.774.073 3.249-1.388 4.87-.77.456-1.743.825-2.887 1.142-2.175.104-4.403-1.166-6.073-3.28-.815-2.154-.407-3.722.644-4.775.237-.237.646-.12.783.226.49 1.248 1.825 3.705 4.562 3.325 1.581-.218 2.227-1.951 2.22-3.718-.001-.407.425-.605.746-.35.769.606 1.216 1.47 1.393 2.56" opacity=".93"/><path fill="#fff" d="M75.525 62.108c-1.064.204-2.202-.701-2.542-2.022-.34-1.322.248-2.558 1.312-2.762s2.202.701 2.541 2.022c.34 1.321-.247 2.558-1.311 2.762"/><path fill="#231f20" d="M67.91 73.342c-4.615-4.387-5.763-12.061-2.05-16.424 1.16-1.345 2.782-2.168 4.537-2.279 3.692-.247 7.24 2.61 8.976 6.182 1.884 3.763 1.953 8.4-.072 11.716 1.387-1.45 2.198-3.51 2.423-5.639.777-6.874-4.708-14.63-11.625-14.245a7.86 7.86 0 0 0-5.611 2.934c-4.082 4.933-2.3 14.03 3.42 17.753zM61.803 46.268c.63-3.569 4.02-6.32 7.702-5.672a7.9 7.9 0 0 1 3.184 1.252c-1.39-.27-2.685-.464-4.041-.374-3 .175-5.3 2.32-6.845 4.794M115.589 35.685c-2.08-1.477-5.118-2.582-7.581-1.67-.801.311-1.499.902-2.112 1.67.096-.481.298-.947.586-1.37 2.248-3.09 7.488-1.647 9.105 1.37zM91.046 69.026c1.037-1.164 2.658-1.142 3.398.166.205.39.337.887.218 1.574l-.109.136c-1.098-.72-2.302-1.274-3.543-1.705l.038-.17zM104.283 68.952c-.943-1.236-.579-2.816.876-3.219a2.04 2.04 0 0 1 1.58.24l.089.152c-1.004.775-1.715 1.847-2.389 2.906l-.158-.077z"/><path fill="#ffb5b6" d="M65.35 87.342c4.062-.62 7.051-3.11 6.677-5.558-.374-2.45-3.97-3.932-8.032-3.311-4.061.62-7.05 3.11-6.676 5.559s3.97 3.931 8.032 3.31M128.022 70.537c3.31-1.55 5.173-4.56 4.161-6.722-1.013-2.161-4.517-2.656-7.828-1.105-3.31 1.55-5.173 4.56-4.16 6.721s4.516 2.657 7.827 1.106"/><path fill="#bf2a31" d="M108.135 74.942c.33 5.176-.267 14.903-8.663 16.343-8.146 1.396-12.868-5.76-14.293-12.568a.32.32 0 0 1 .341-.38c2.528.194 4.598.759 9.372-1.25 3.692-1.552 5.302-2.486 9.834-1.873 2.057.278 2.453.14 3.411-.21"/><path fill="#ff6e70" d="M106.911 84.954c-1.201 3.068-3.431 5.644-7.437 6.33-3.84.66-6.92-.584-9.252-2.794h-.002c-1.468-1.766-2.586-3.83-3.295-5.77.03-1.946.573-3.25 1.37-4.167 1.652.041 3.586-.201 6.597-1.468 3.36-1.414 5-2.316 8.687-2 2.378 2.19 4.078 5.663 3.332 9.869"/><path fill="#ff9595" d="M106.378 86.147c-1.291 2.525-3.429 4.543-6.904 5.138-3.84.659-6.919-.584-9.251-2.794h-.002a19 19 0 0 1-1.674-2.38c1.365-2.023 3.538-3.903 6.479-4.56 7.398-1.654 10.735 3.397 11.352 4.596"/><path fill="#231f20" d="M104.726 75.209c2.385-.385 3.115-.22 4.671-2.29.409-.498.827-1.019 1.344-1.487-.615 3.254-2.661 5.416-6.018 3.775z"/><path fill="#231f20" d="M97.476 92.005c-3.048 0-5.807-1.206-8.065-3.55-2.267-2.352-3.961-5.772-4.768-9.628a.85.85 0 0 1 .197-.747.87.87 0 0 1 .722-.293c.328.024.647.057.967.088 2.116.208 4.116.402 8.15-1.296q.484-.204.924-.391c3.063-1.31 4.912-2.097 9.195-1.52 1.936.263 2.242.15 3.15-.18l.167.457.562-.035c.291 4.567-.013 15.355-9.116 16.916q-1.064.182-2.087.181zM85.778 78.903c1.967 8.922 7.271 11.988 11.866 11.988q.891 0 1.733-.147c3.464-.593 5.88-2.75 7.18-6.414 1.026-2.89 1.168-6.142 1.068-8.582-.712.201-1.37.223-2.976.004-3.983-.538-5.532.123-8.62 1.44q-.443.19-.93.396c-4.29 1.806-6.522 1.587-8.682 1.377l-.643-.062z"/><path fill="#00d4fb" d="M86.782 33.914c-1.474 3.856-2.021 9.458 3.79 13.189 1.037.665 2.436.32 3.011-.773 2.921-5.534 1.23-10.6-3.774-13.515-1.125-.654-2.563-.116-3.027 1.099"/><path fill="#2df8ff" d="M94.262 44.84c.437-3.182-1.243-6.858-4.186-8.313a1.795 1.795 0 0 0-2.206.51c-1.076 1.402-1.52 3.69-1.131 5.967-1.528-3.083-.954-6.486.044-9.09.463-1.215 1.901-1.753 3.026-1.099 4.551 2.653 6.363 7.084 4.453 12.025"/><path fill="#231f20" d="M91.728 47.987c-.51 0-1.015-.144-1.45-.424-2.79-1.79-7.018-5.97-4.005-13.844a2.7 2.7 0 0 1 1.621-1.58 2.63 2.63 0 0 1 2.193.204c5.426 3.162 6.952 8.62 3.985 14.244a2.63 2.63 0 0 1-2.34 1.4zM88.774 33.08a1.6 1.6 0 0 0-1.481 1.029c-1.175 3.07-2.272 8.78 3.573 12.532.374.241.834.314 1.263.2a1.52 1.52 0 0 0 .969-.766c2.707-5.13 1.374-9.91-3.567-12.79a1.5 1.5 0 0 0-.76-.207z"/><path fill="#fff0cb" d="M38.694 28.04c-3.302 4.162 3.522 18.888 8.868 18.756 4.912-.12 13.816-10.839 12.136-15.296-1.83-4.852-17.703-7.622-21.004-3.46"/><path fill="#ffc9a0" d="M47.563 46.796c-3.127.076-6.762-4.933-8.578-9.938 1.733 2.613 3.901 4.673 6.052 5.316 7.637 2.293 12.832-4.443 14.685-10.603 1.562 4.497-7.276 15.104-12.162 15.225z"/><path fill="#231f20" d="M47.49 47.345c-3.007 0-6.004-3.86-7.818-7.5-2.12-4.254-3.379-9.661-1.407-12.145 1.906-2.4 7.044-2.56 11.218-1.908 6.782 1.059 10.018 3.632 10.727 5.514.409 1.084.65 3.561-2.326 7.982-3.508 5.208-7.84 7.996-10.309 8.055h-.085zm-2.061-20.79c-3.016 0-5.372.646-6.306 1.823-1.403 1.769-.76 6.384 1.53 10.977 2.06 4.136 4.8 6.894 6.841 6.894h.055c2.468-.062 6.608-3.388 9.427-7.574 1.943-2.887 2.77-5.497 2.21-6.983-.773-2.05-4.834-4.031-9.873-4.82a25 25 0 0 0-3.884-.316"/><path fill="#00d4fb" d="M70.487 21.257c.031-4.081.64-12.472 4.545-19.704.508-.941 1.95-1.296 3.018-.738 5.23 2.734 10.466 8.81 13.072 15.098.36.869.503 1.814.391 2.749-.404 3.343-2.044 6.886-3.398 9.68-.492 1.018-2.157 1.233-3.059.419-5.672-5.12-9.991-7.167-14.157-7.167-.23 0-.412-.151-.412-.337"/><path fill="#2df8ff" d="M91.511 18.663a18 18 0 0 1-.538 2.63c-1.748-7.722-8.752-16.178-15.882-19.837h-.002l.007-.009.007-.008q.036-.057.078-.11.04-.053.088-.103a2 2 0 0 1 .197-.186q.055-.043.111-.083a2 2 0 0 1 .368-.203q.064-.03.131-.053a2.5 2.5 0 0 1 1.974.116c.575.302 1.153.644 1.724 1.022q.157.102.31.208.325.222.649.46l.242.181a27 27 0 0 1 2.361 2.007l.23.219.23.225c.15.147.304.3.453.455l.223.232q.224.236.444.475.221.24.438.486.001.003.007.007a35 35 0 0 1 1.05 1.254q.206.255.409.518.006.01.018.022c.126.169.256.337.38.508q.199.265.39.538.166.232.328.468.231.336.457.681.163.25.322.506.177.279.346.564a30 30 0 0 1 .862 1.525q.079.142.15.287.128.243.248.49.13.259.252.521.298.635.564 1.276a5.5 5.5 0 0 1 .374 2.711"/><path fill="#231f20" d="M86.424 29.81a2.6 2.6 0 0 1-1.738-.642c-5.38-4.86-9.634-7.027-13.79-7.027-.269 0-.527-.105-.708-.286a.85.85 0 0 1-.25-.602c.033-4.327.674-12.671 4.61-19.958C75.206.08 76.959-.368 78.3.332c5.309 2.775 10.663 8.953 13.324 15.373.402.972.551 2.018.429 3.025-.407 3.359-1.994 6.847-3.449 9.851-.29.6-.884 1.027-1.63 1.174a3 3 0 0 1-.552.052zm-15.387-8.763c4.402.046 8.846 2.307 14.385 7.307.33.298.846.425 1.343.326.405-.079.718-.289.856-.575 1.415-2.926 2.96-6.316 3.345-9.509a4.9 4.9 0 0 0-.354-2.473c-2.57-6.2-7.722-12.156-12.82-14.822-.803-.42-1.913-.17-2.283.512-3.759 6.964-4.426 14.954-4.477 19.234z"/><path fill="#00d4fb" d="M60.234 15.733a.93.93 0 0 0-1.053.729c-.951 4.35-.231 13.388 3.156 14.58 2.965 1.045 10.076-3.321 9.98-6.494-.112-3.688-6.637-7.911-12.085-8.817z"/><path fill="#2df8ff" d="M72.319 24.55c.05 1.652-1.856 3.628-4.112 4.994 1.668-1.165 2.93-2.734 2.806-4.145-.311-3.556-6.506-7.997-11.53-9.176a.8.8 0 0 0-.201-.022.92.92 0 0 1 .95-.466c5.448.904 11.973 5.127 12.085 8.815z"/><path fill="#231f20" d="M63.37 31.75c-.438 0-.847-.06-1.215-.189-1.206-.424-2.803-1.904-3.562-6.534-.48-2.926-.46-6.333.054-8.681a1.476 1.476 0 0 1 1.677-1.154c5.58.926 12.417 5.3 12.54 9.34.044 1.462-1.153 3.195-3.287 4.756-1.772 1.295-4.264 2.46-6.207 2.46zm-3.283-15.481a.385.385 0 0 0-.37.31c-.479 2.19-.496 5.513-.043 8.27.518 3.154 1.556 5.224 2.846 5.68 1.35.474 4.108-.438 6.414-2.123 1.783-1.305 2.873-2.775 2.84-3.839-.046-1.527-1.435-3.357-3.807-5.02-2.313-1.62-5.234-2.843-7.818-3.274q-.03-.003-.06-.004z"/></svg>