<svg xmlns="http://www.w3.org/2000/svg" width="178" height="200" fill="none" viewBox="0 0 178 200"><title>BullZilla waving his hand</title><ellipse cx="102.17" cy="186.716" fill="#000" fill-opacity=".1" rx="64.945" ry="13.284"/><path fill="#00d4fb" d="M17.133 121.497c4.856-1.287 8.74-1.85 9.732-.48 1.754 2.423-1.245 10.837-4.251 15.321-8.175-5.82-5.484-14.841-5.484-14.841z"/><path fill="#2df8ff" d="M27.369 123.694c-.047-.765-.234-1.397-.588-1.84-1.043-1.302-5.178-.131-10.04 2.123.101-1.511.392-2.48.392-2.48 4.856-1.287 8.74-1.85 9.732-.48.425.588.57 1.528.504 2.677"/><path fill="#231f20" d="m22.774 137.207-.517-.367c-8.435-6.007-5.744-15.424-5.715-15.518l.099-.329.332-.089c6.214-1.645 9.32-1.722 10.389-.246 1.173 1.621.511 4.933-.251 7.427-.916 2.999-2.443 6.293-3.988 8.595l-.352.527zm-5.137-15.206c-.376 1.602-1.545 8.527 4.82 13.454 2.897-4.622 5.308-12.147 3.91-14.076-.378-.521-2.017-1.122-8.73.622"/><path fill="#00d4fb" d="M23.519 133.344c4.462-2.307 8.135-3.697 9.4-2.573 2.236 1.985 1.129 10.849-.837 15.877-9.24-3.916-8.563-13.304-8.563-13.304"/><path fill="#2df8ff" d="M33.989 133.275c-.212-.738-.532-1.313-.972-1.67-1.299-1.046-5.085.991-9.343 4.243-.229-1.495-.155-2.506-.155-2.506 4.462-2.308 8.133-3.698 9.397-2.573.544.482.888 1.367 1.07 2.504z"/><path fill="#231f20" d="m32.424 147.462-.583-.246c-9.532-4.039-8.942-13.818-8.937-13.914l.024-.344.308-.158c5.71-2.952 8.728-3.695 10.089-2.487 1.495 1.329 1.567 4.706 1.362 7.307-.246 3.126-1.025 6.674-2.034 9.254l-.231.591zm-8.305-13.737c-.02 1.646.335 8.66 7.614 12.094 1.83-5.139 2.556-13.009.775-14.588-.482-.428-2.212-.659-8.389 2.497z"/><path fill="#00d4fb" d="M33.905 144.267c3.115-4.982 5.944-8.625 7.764-8.458 3.218.295 6.817 8.891 7.565 14.647-11.031 2.593-15.326-6.189-15.326-6.189z"/><path fill="#2df8ff" d="M44.028 137.327c-.593-.517-1.207-.819-1.822-.844-1.814-.074-4.411 4.222-6.827 9.904-1.011-1.178-1.471-2.123-1.471-2.123 3.114-4.979 5.943-8.625 7.761-8.457.78.071 1.582.632 2.36 1.52"/><path fill="#231f20" d="M45.332 151.546c-8.438 0-11.938-6.928-11.978-7.009l-.15-.307.182-.291c3.941-6.302 6.43-8.924 8.34-8.745 2.167.199 4.027 3.166 5.208 5.621 1.412 2.94 2.526 6.603 2.91 9.56l.071.551-.541.128a17.7 17.7 0 0 1-4.04.492zm-10.713-7.255c.834 1.457 4.91 7.53 13.926 5.688-.903-5.769-4.364-13.321-6.93-13.557-.88-.077-2.812 1.23-6.996 7.869"/><path fill="#00d4fb" d="M48.936 145.841c.681-6.041 1.677-10.715 3.4-11.404 3.045-1.22 10.01 5.048 13.163 10.017-8.888 7.503-16.563 1.39-16.563 1.39z"/><path fill="#2df8ff" d="M55.13 134.744c-.76-.202-1.447-.197-2.017.067-1.675.772-2.182 5.938-1.929 12.307-1.424-.62-2.248-1.279-2.248-1.279.681-6.04 1.677-10.716 3.4-11.405.737-.295 1.707-.15 2.794.31"/><path fill="#231f20" d="M56.212 148.801c-.9 0-1.722-.096-2.448-.236-3.141-.613-5.131-2.175-5.215-2.241l-.266-.212.037-.337c.861-7.629 1.993-11.191 3.784-11.907 2.056-.821 5.028 1.058 7.156 2.78 2.546 2.062 5.134 4.925 6.755 7.476l.288.453-.41.347c-3.583 3.023-6.985 3.879-9.683 3.879zm-6.625-3.245c1.38.954 7.7 4.681 15.097-1.23-3.294-4.91-9.69-10.293-12.118-9.321-.841.337-2.037 2.45-2.976 10.549z"/><path fill="#00d4fb" d="M67.843 121.202c-6.573-.049-11.739.371-12.772 1.968-1.828 2.821 3.67 10.339 8.433 13.992 9.55-7.768 4.34-15.96 4.34-15.96"/><path fill="#2df8ff" d="M54.919 125.925c-.084-.763.039-1.432.418-1.956 1.114-1.54 6.723-1.427 13.483-.428-.415-1.459-.979-2.339-.979-2.339-6.57-.047-11.74.371-12.772 1.968-.443.684-.455 1.643-.153 2.757z"/><path fill="#231f20" d="m63.514 137.947-.386-.295c-4.834-3.707-10.719-11.508-8.576-14.817 1.06-1.636 5.033-2.305 13.294-2.248h.335l.18.285c.056.089 1.394 2.224 1.507 5.375.19 5.245-3.146 9.09-5.978 11.393zm3.414-16.133c-8.44 0-10.836.91-11.343 1.69-1.451 2.239 3.228 9.105 7.907 12.869 7.658-6.512 4.772-13.105 3.995-14.556h-.559z"/><path fill="#00d4fb" d="M76.223 104.835c-6.423-1.392-11.567-2.037-12.905-.686-2.367 2.388 1.478 10.871 5.394 15.422 10.938-5.651 7.513-14.736 7.513-14.736z"/><path fill="#2df8ff" d="M62.607 106.815c.073-.765.332-1.392.809-1.827 1.405-1.28 6.873-.02 13.287 2.337-.111-1.513-.48-2.49-.48-2.49-6.423-1.39-11.567-2.037-12.905-.686-.574.578-.783 1.518-.711 2.666"/><path fill="#231f20" d="m68.562 120.341-.317-.369c-3.973-4.618-8.14-13.457-5.366-16.256 1.373-1.385 5.403-1.23 13.474.519l.327.071.118.313c.037.098.91 2.462.377 5.569-.49 2.854-2.308 6.893-8.182 9.929zm-2.224-16.325c-1.55 0-2.275.253-2.583.563-1.877 1.895 1.297 9.572 5.11 14.214 4.09-2.226 6.477-5.19 7.1-8.814.37-2.162-.023-3.931-.217-4.617-4.68-1.002-7.602-1.346-9.407-1.346z"/><path fill="#00bf9a" d="M74.875 126.941c-9.356 23.79-56.561 28.442-53.533-15.248.111-1.589-1.808-2.455-2.922-1.316-17.368 17.71-9.442 50.116 12.831 61.307 32.778 16.467 62.286-11.196 62.286-11.196l-18.662-33.545z"/><path fill="#00a192" d="M93.537 160.488s-29.508 27.663-62.285 11.196c-5.245-2.635-9.693-6.446-13.2-10.962 11.945 7.66 26.31 6.797 33.204-1.528 5.425-6.549 3.683-11.569-.86-14.659 10.474-1.321 20.649-7.853 24.48-17.592z"/><path fill="#231f20" d="M52.986 177.529c-7.612 0-15.006-1.779-22.01-5.297-5.769-2.897-10.866-7.375-14.745-12.944a44.3 44.3 0 0 1-7.302-17.944c-2.005-12.046 1.294-23.49 9.05-31.399a2.3 2.3 0 0 1 2.61-.495 2.31 2.31 0 0 1 1.366 2.286c-.64 9.237.93 16.767 4.664 22.378 3.213 4.827 8 8.074 13.85 9.395 6.317 1.425 13.587.485 19.948-2.578 6.6-3.181 11.533-8.229 13.887-14.214l.477-1.213 19.528 35.105-.35.327c-.073.069-7.588 7.046-19.032 11.889-6.731 2.849-13.491 4.421-20.091 4.669q-.927.035-1.85.035m-33.358-67.053c-.256 0-.532.091-.77.332-7.476 7.624-10.652 18.682-8.714 30.335a43.1 43.1 0 0 0 7.097 17.441c3.762 5.402 8.702 9.742 14.288 12.549 7.375 3.705 15.196 5.432 23.238 5.134 6.445-.239 13.055-1.774 19.643-4.559 9.862-4.167 16.75-9.943 18.352-11.35l-17.813-32.02c-5.498 12.013-21.078 19.459-34.75 16.369-6.163-1.39-11.213-4.819-14.603-9.911-3.89-5.843-5.528-13.631-4.866-23.147a1.07 1.07 0 0 0-.642-1.077 1.1 1.1 0 0 0-.458-.098z"/><path fill="#fff0cb" d="M93.536 160.488s-29.508 27.663-62.285 11.195c-15.998-8.036-24.593-27.015-21.735-43.635.49 39.321 45.626 52.499 79.88 24.998z"/><path fill="#ffc9a0" d="M93.536 160.488s-29.508 27.663-62.285 11.196c-5.245-2.635-9.693-6.446-13.2-10.962 6.359 4.079 13.404 5.742 19.643 5.146 15.483 4.369 34.903.667 51.702-12.821z"/><path fill="#231f20" d="M52.986 177.531c-7.612 0-15.007-1.778-22.01-5.299-7.73-3.884-14.2-10.588-18.217-18.88-3.911-8.074-5.279-17.097-3.85-25.41l1.22.096c.197 15.848 7.959 28.546 21.29 34.839 8.14 3.842 17.697 5.028 27.635 3.434 10.492-1.683 20.852-6.435 29.954-13.744l.568-.455 4.728 8.497-.35.327c-.073.069-7.588 7.045-19.032 11.889-6.731 2.849-13.491 4.421-20.091 4.669q-.927.035-1.85.035zM9.608 135.723c.18 5.779 1.626 11.656 4.258 17.092 3.9 8.05 10.172 14.556 17.66 18.318 7.383 3.709 15.211 5.434 23.263 5.134 6.45-.244 13.065-1.781 19.658-4.573 9.852-4.17 16.718-9.929 18.315-11.336l-3.55-6.379c-9.132 7.186-19.474 11.865-29.958 13.547-10.187 1.634-19.99.411-28.357-3.535-11.542-5.446-19.043-15.527-21.29-28.265z"/><path fill="#00d4fb" d="M5.21 70.956c1.07-1.321 2.646-2.98 2.378-.128-.268 2.85.418 6.492 3.469 4.568 3.402-2.145 1.894-7.734-.424-12.61-1.746-3.675-.226-10.086 3.194-12.745 1.254-.977 3.065.088 2.865 1.667-.538 4.261-1.126 6.869 2.606 10.254 4.504 4.083 12.334 10.285 8.364 22.12C23.982 95.06 8.164 96.498 2.66 88.028c-4.79-7.375 1.097-15.282 2.548-17.075z"/><path fill="#2df8ff" d="M18.998 74.85a.433.433 0 0 0-.746.007c-2.322 3.88-4.521 3.617-7.247 6.785-4.512 5.245 2.027 10.084 6.32 9.122 3.195-.719 4.647-3.693 4.839-6.423.051-.738-.783-1.216-1.378-.778-.65.477-1.156.66-1.565.726a.584.584 0 0 1-.61-.836c1.924-3.91 1.722-6.338.39-8.603z"/><path fill="#00bf9a" d="M116.375 155.583s2.406 21.951 3.154 27.855a2.35 2.35 0 0 0 1.687 1.97c6.428 1.821 26.423 3.612 36.788.195 1.239-.409 1.835-1.836 1.207-2.98-2.322-4.243-6.312-6.782-9.849-8.108 8.093-4.888 14.137-29.114-11.727-34.369-16.246 9.811-21.258 15.434-21.258 15.434z"/><path fill="#00a192" d="M149.362 174.515q.042.017.083.032c-3.156.411-6.108-.078-7.309-1.358-.036-.039-.004-.105.05-.103 6.467.231 10.455-2.831 12.834-6.376-1.289 3.557-3.393 6.438-5.658 7.805M127.519 177.58c-2.765 3.378-2.526 6.401-.669 8.925-2.332-.332-4.283-.713-5.634-1.094a2.35 2.35 0 0 1-1.687-1.971c-.748-5.906-3.154-27.857-3.154-27.857s4.103-4.603 16.92-12.748c3.41 11.906 4.48 22.216-5.776 34.745"/><path fill="#231f20" d="M141.745 188.161c-8.317 0-16.666-1.018-20.694-2.16a2.96 2.96 0 0 1-2.13-2.484c-.74-5.843-3.132-27.646-3.154-27.865l-.029-.273.182-.204c.207-.234 5.257-5.806 21.4-15.553l.204-.123.236.047c5.766 1.171 10.342 3.351 13.604 6.475 2.839 2.718 4.617 6.066 5.289 9.946 1.294 7.471-1.948 15.166-6.01 18.403 2.716 1.183 6.709 3.567 9.112 7.958.381.697.431 1.521.138 2.264-.3.757-.918 1.34-1.693 1.596-4.339 1.432-10.388 1.973-16.452 1.973zm-24.728-32.362c.283 2.588 2.428 22.094 3.122 27.563a1.73 1.73 0 0 0 1.245 1.456c6.088 1.722 26.162 3.587 36.428.202.428-.143.77-.463.934-.881.16-.406.136-.841-.073-1.22-2.549-4.66-7.063-6.906-9.528-7.828l-1.188-.445 1.087-.657c4.145-2.502 7.702-10.258 6.394-17.813-.625-3.616-2.283-6.736-4.928-9.267-3.048-2.92-7.34-4.977-12.765-6.111-14.177 8.581-19.7 13.941-20.728 14.999z"/><path fill="#fff0cb" d="M158.005 185.603a26 26 0 0 1-1.796.519c-1.569-2.512-1.488-5.565-.88-8.175 1.5 1.252 2.856 2.797 3.884 4.677.627 1.146.032 2.57-1.208 2.979"/><path fill="#231f20" d="m155.925 186.828-.236-.379c-1.414-2.266-1.746-5.252-.957-8.64l.227-.971.767.639c1.678 1.4 3.033 3.034 4.03 4.854.381.696.43 1.52.137 2.263a2.74 2.74 0 0 1-1.692 1.597c-.568.189-1.188.366-1.84.531l-.436.111zm-.204-7.71c-.31 1.902-.32 4.251.782 6.291q.69-.186 1.307-.389c.428-.143.77-.463.935-.881a1.42 1.42 0 0 0-.074-1.22 15.5 15.5 0 0 0-2.95-3.801"/><path fill="#fff0cb" d="M157.332 185.812c-2.558.763-5.633 1.235-8.912 1.488-.305-3.537.88-7.279 4.322-7.136 2.885.12 4.603 3.195 4.59 5.648"/><path fill="#231f20" d="m147.859 187.959-.052-.607c-.236-2.736.396-5.179 1.692-6.534.847-.886 1.978-1.324 3.267-1.272 3.117.131 5.196 3.346 5.181 6.266v.455l-.44.13c-2.445.728-5.486 1.238-9.041 1.513l-.607.047zm4.696-7.185c-.871 0-1.599.3-2.168.895-.964 1.009-1.471 2.837-1.394 4.967 2.981-.258 5.567-.689 7.702-1.282-.185-1.951-1.579-4.477-3.98-4.575q-.082-.002-.16-.003z"/><path fill="#fff0cb" d="M151.278 187.015c-2.75.341-5.734.499-8.733.519-.639-3.208.266-6.465 3.946-6.313 3.038.126 4.95 3.343 4.787 5.794"/><path fill="#231f20" d="m142.041 188.151-.099-.497c-.465-2.334-.113-4.393.965-5.653.834-.974 2.083-1.454 3.611-1.392 1.4.059 2.674.684 3.685 1.813 1.146 1.277 1.793 3.055 1.69 4.637l-.034.507-.505.061c-2.625.328-5.586.502-8.804.524h-.509m4.206-6.319c-1.048 0-1.855.324-2.406.969-.76.888-1.035 2.369-.779 4.115 2.752-.032 5.303-.182 7.603-.445-.068-1.119-.58-2.339-1.377-3.227-.549-.61-1.484-1.351-2.822-1.405q-.111-.004-.219-.005z"/><g class="right-arm"><path fill="#fff0cb" d="M170.163 97.502c2.217-2.65 3.562-7.838 1.373-9.26-2.364-1.535-6.713 3.213-7.41 5.833s6.04 3.427 6.04 3.427z"/><path fill="#231f20" d="m170.422 98.15-.332-.038c-.507-.062-4.997-.65-6.271-2.53a1.99 1.99 0 0 1-.29-1.665c.558-2.096 3.198-5.382 5.64-6.322 1.297-.5 2.185-.204 2.699.13.714.463 1.174 1.265 1.331 2.313.342 2.278-.785 5.73-2.568 7.857l-.214.256zm.064-9.59q-.393-.001-.874.184c-2.022.777-4.42 3.717-4.893 5.49a.75.75 0 0 0 .118.66c.679 1.001 3.331 1.702 5.063 1.953 1.437-1.877 2.362-4.775 2.086-6.625-.106-.7-.369-1.193-.785-1.463a1.3 1.3 0 0 0-.715-.2"/><path fill="#fff0cb" d="M171.428 101.256c2.755.002 6.292-1.779 5.677-3.791-.664-2.175-5.835-2.404-7.633-1.516s1.956 5.307 1.956 5.307"/><path fill="#231f20" d="M171.435 101.871h-.293l-.184-.217c-.487-.575-2.905-3.527-2.554-5.232.096-.46.369-.814.792-1.023 1.39-.687 4.596-.797 6.647.088.977.423 1.617 1.043 1.845 1.796.219.716.069 1.454-.435 2.133-1.036 1.399-3.54 2.452-5.823 2.452zm.834-5.793c-1.026 0-1.975.152-2.524.423-.081.041-.116.08-.133.17-.162.78 1.078 2.705 2.101 3.962 1.801-.078 3.801-.922 4.561-1.948.268-.364.349-.704.246-1.04-.153-.502-.713-.837-1.159-1.029-.861-.371-2.017-.538-3.092-.538"/><path fill="#00bf9a" d="M125.243 105.462c9.294-1.454 21.25-3.658 33.056-11.766s18.551 6.221 12.568 16.342c-5.995 10.143-22.709 18.113-35.796 17.471"/><path fill="#00a192" d="M148.102 125.743c-4.404 1.313-8.901 1.968-13.033 1.766l-.173-.386c.428-.913 1.28-1.693 2.738-2.224 5.356-1.953 8.264-1.006 10.468.844"/><path fill="#231f20" d="M151.753 124.498c-4.755 2.765-11.26 4.158-16.682 3.011 2.834-.354 5.59-.721 8.377-1.259 2.789-.517 5.505-1.196 8.307-1.749z"/><path fill="#231f20" d="m143.182 127.546-.217-1.211a46.6 46.6 0 0 0 8.564-2.413c8.44-3.247 15.471-8.556 18.807-14.199 3.175-5.373 2.75-12.556-.95-16.012-1.587-1.481-5.092-3.39-10.74.49-11.582 7.952-23.267 10.297-33.309 11.866l-.19-1.215c9.909-1.55 21.435-3.857 32.802-11.665 4.642-3.189 9.117-3.326 12.278-.374 4.099 3.828 4.623 11.695 1.169 17.537-3.474 5.875-10.733 11.378-19.424 14.721a48 48 0 0 1-8.79 2.475"/><path fill="#fff0cb" d="M164.975 93.123c.222-.332.323-.73.281-1.13-.192-1.758-1.422-5.02-3.648-4.757s-2.768 4.027-2.721 5.594a1.6 1.6 0 0 0 .258.841c1.306 1.951 4.377 1.658 5.833-.548z"/><path fill="#231f20" d="M161.664 95.588c-1.259 0-2.364-.573-3.035-1.575a2.2 2.2 0 0 1-.362-1.166c-.047-1.618.445-5.891 3.264-6.223.753-.09 1.457.125 2.096.632 1.494 1.188 2.116 3.574 2.236 4.669a2.33 2.33 0 0 1-.378 1.535c-.864 1.306-2.323 2.12-3.811 2.125h-.012zm.192-7.752a2 2 0 0 0-.18.01c-1.734.204-2.221 3.496-2.179 4.967a.96.96 0 0 0 .155.516c.443.662 1.159 1.029 2.012 1.029h.01c1.08-.003 2.148-.605 2.787-1.575a1.1 1.1 0 0 0 .182-.723c-.14-1.287-.812-3.072-1.778-3.84-.325-.258-.655-.384-1.006-.384z"/></g><path fill="#00bf9a" d="M83.974 92.006c6.418-3.466 7.919-4.514 15.734-4.514 25.011 0 45.331 28.128 46.741 55.35 1.148 22.178-20.925 35.801-46.74 34.687-21.846-.945-35.747-11.024-41.794-25.904 0-17.366 18.962-49.08 26.059-59.619"/><path fill="#00a192" d="M72.05 126.776c-2.912 2.886-6.09 4.418-9.22 4.681a157 157 0 0 1 3.678-9.048c2.153 1.179 4.19 2.52 5.542 4.367M132.994 169.051c-4.123 2.859-9.008 5.056-14.391 6.505-.979-8.581-2.228-19.973-2.228-19.973s4.103-4.603 16.92-12.748c2.607 9.102 3.845 17.274-.301 26.216M95.71 109.61c5.454.878 19.572 1.926 27.016-.487.212-.069.468.179.283.3-4.039 2.684-16.017 5.948-27.412.558-.206-.098-.113-.41.114-.373z"/><path fill="#fff0cb" d="M142.041 140.387v3.302c0 12.494-6.638 23.439-16.581 29.498-7.464 3.2-16.362 4.748-25.754 4.342-7.53-.325-14.116-1.737-19.761-4.057l.492-30.63c0-19.909 12.632-31.793 28.819-31.793h4.676c16.423 0 26.46 11.749 28.109 29.338"/><path fill="#00d4fb" fill-opacity=".602" d="M111.178 114.391v13.276l11.222 5.015z"/><path fill="#a3f1ff" d="m111.178 114.391-11.224 18.291 11.224-5.015z"/><path fill="#97efff" d="M111.178 141.285v9.022l11.229-15.536z"/><path fill="#61e6ff" d="M111.178 150.307v-9.023l-11.224-6.513z"/><path fill="#a4f1ff" d="m111.178 139.197 11.222-6.515-11.222-5.012z"/><path fill="#e6fbff" d="m99.955 132.682 11.223 6.516V127.67z"/><path fill="url(#a)" d="M119.057 132.841c0-13.178-3.595-23.862-8.031-23.862-4.435 0-8.031 10.684-8.031 23.862 0 13.179 3.596 23.862 8.031 23.862s8.031-10.683 8.031-23.862" style="mix-blend-mode:screen"/><path fill="url(#b)" d="M113.075 132.841c0-13.178-.917-23.862-2.049-23.862s-2.049 10.684-2.049 23.862c0 13.179.918 23.862 2.049 23.862 1.132 0 2.049-10.683 2.049-23.862" style="mix-blend-mode:screen"/><path fill="url(#c)" d="M111.709 132.841c0-13.178-.305-23.862-.683-23.862-.377 0-.683 10.684-.683 23.862 0 13.179.306 23.862.683 23.862s.683-10.683.683-23.862" style="mix-blend-mode:screen"/><path fill="url(#d)" d="M112.984 132.841c0-7.885-.877-14.276-1.958-14.276-1.082 0-1.959 6.391-1.959 14.276s.877 14.276 1.959 14.276c1.081 0 1.958-6.392 1.958-14.276" style="mix-blend-mode:screen"/><path fill="url(#e)" d="M111.025 150.252c7.472 0 13.53-5.592 13.53-12.49s-6.058-12.491-13.53-12.491c-7.473 0-13.53 5.592-13.53 12.491 0 6.898 6.057 12.49 13.53 12.49" style="mix-blend-mode:screen"/><path fill="url(#f)" d="M124.555 137.761c0 1.284-6.058 2.321-13.53 2.321s-13.53-1.037-13.53-2.321 6.058-2.321 13.53-2.321 13.53 1.037 13.53 2.321" style="mix-blend-mode:screen"/><path fill="url(#g)" d="M111.025 138.532c7.472 0 13.53-.345 13.53-.771 0-.425-6.058-.77-13.53-.77-7.473 0-13.53.345-13.53.77s6.057.771 13.53.771" style="mix-blend-mode:screen"/><path fill="url(#h)" d="M111.025 139.987c4.471 0 8.095-.996 8.095-2.226s-3.624-2.226-8.095-2.226c-4.47 0-8.094.997-8.094 2.226s3.624 2.226 8.094 2.226" style="mix-blend-mode:screen"/><path fill="url(#i)" d="M111.025 153.258c2.989 0 5.412-6.938 5.412-15.497s-2.423-15.497-5.412-15.497-5.412 6.938-5.412 15.497 2.423 15.497 5.412 15.497" style="mix-blend-mode:screen"/><path fill="url(#j)" d="M111.025 146.884c5.252 0 9.509-4.084 9.509-9.123s-4.257-9.123-9.509-9.123-9.509 4.085-9.509 9.123c0 5.039 4.257 9.123 9.509 9.123" style="mix-blend-mode:screen"/><path fill="url(#k)" d="M116.167 127.459c.289.58-1.781 5.66-4.62 11.349s-5.374 9.837-5.663 9.256 1.78-5.66 4.619-11.349 5.374-9.837 5.664-9.256" style="mix-blend-mode:screen"/><path fill="url(#l)" d="M105.884 127.459c.289-.581 2.824 3.567 5.663 9.256s4.909 10.769 4.62 11.349c-.29.581-2.825-3.567-5.664-9.256s-4.909-10.769-4.619-11.349" style="mix-blend-mode:screen"/><path fill="url(#m)" d="M113 128.21c.266.219-.399 4.671-1.49 9.951-1.092 5.27-2.189 9.37-2.455 9.151s.399-4.671 1.491-9.951c1.092-5.27 2.188-9.37 2.454-9.151" style="mix-blend-mode:screen"/><path fill="url(#n)" d="M106.258 133.803c.11-.532 2.331.8 4.966 2.988 2.63 2.188 4.676 4.385 4.567 4.918s-2.331-.799-4.966-2.987c-2.63-2.188-4.676-4.386-4.567-4.919" style="mix-blend-mode:screen"/><path fill="url(#o)" d="M109.05 128.21c.266-.219 1.368 3.872 2.455 9.151 1.092 5.271 1.756 9.723 1.491 9.951-.266.219-1.368-3.872-2.455-9.151-1.092-5.271-1.756-9.732-1.491-9.951" style="mix-blend-mode:screen"/><path fill="url(#p)" d="M106.258 141.719c-.109-.533 1.933-2.74 4.567-4.919 2.63-2.188 4.857-3.519 4.966-2.987.109.533-1.932 2.74-4.567 4.919-2.63 2.188-4.856 3.519-4.966 2.987" style="mix-blend-mode:screen"/><path fill="url(#q)" d="M111.025 156.95c.535 0 .968-8.591.968-19.189 0-10.597-.433-19.188-.968-19.188s-.969 8.591-.969 19.188c0 10.598.434 19.189.969 19.189" style="mix-blend-mode:screen"/><path fill="#ffc9a0" d="M118.648 111.396c-4.33 1.392-10.615 2.207-17.196.64a30.6 30.6 0 0 1 7.803-.987h4.677q2.454 0 4.716.347M139.763 156.045a34.63 34.63 0 0 1-14.303 17.142c-7.464 3.2-16.362 4.748-25.754 4.342-7.53-.325-14.116-1.737-19.761-4.057l.192-11.995c6.22 5.289 15.377 10.02 28.241 10.02 18.342 0 27.185-8.369 31.385-15.452"/><path fill="#231f20" d="M102.663 178.208a71 71 0 0 1-2.982-.064c-20.78-.898-35.813-10.234-42.337-26.288l-.044-.111v-.12c0-7.619 3.51-18.601 10.43-32.642 5.376-10.906 11.836-21.533 15.732-27.319l1.021.686c-3.877 5.754-10.3 16.325-15.648 27.176-6.703 13.602-10.265 24.655-10.305 31.978 3.065 7.481 8.005 13.464 14.689 17.784 7.134 4.61 16.054 7.176 26.514 7.626 5.899.256 11.621-.259 17.001-1.523l.281 1.198c-4.578 1.077-9.395 1.619-14.355 1.619z"/><path fill="#231f20" d="M139.839 155.846c-3.176 9.781-11.415 17.705-21.365 20.384-12.66 3.04-26.566 2.634-38.53-2.76 5.452 1.955 11.154 3.001 16.884 3.392 6.794.485 13.641-.14 20.3-1.55.588-.111 1.473-.366 2.054-.543 3.742-1.12 7.24-2.992 10.327-5.39 4.532-3.521 8.062-8.278 10.33-13.538zM137.634 113.366c6.197 9.161 10.094 20.49 8.856 31.629-.509-11.1-4.179-21.641-8.856-31.629"/><path fill="#00bf9a" d="M59.696 142.023c-3.459 2.817-12.652 18.32-4.522 34.163-2.027 3.584-2.966 7.483-2.642 10.504.089.822.58 1.545 1.304 1.941 4.598 2.529 8.06.942 8.817.819 3.466 2.517 8.44.839 9.336.19 2.96 1.921 7.31.902 9.414-1.949.45-.612.704-1.345.74-2.105.227-4.852-.154-6.83-.462-8.815 7.149-12.627 4.099-23.284-2.229-29.611"/><path fill="#00a192" d="M81.682 176.771c.307 1.988.69 3.963.462 8.814a3.86 3.86 0 0 1-.738 2.109 6.7 6.7 0 0 1-.758.856c.052-3.725-1.35-7.656-7.003-8.844-5.26-1.107-11.794.157-18.507-3.592a29.4 29.4 0 0 1-2.758-8.115c3.122 3.916 8.15 6.691 16.467 6.691 8.736 0 13.393-2.718 16.397-7.009-.618 2.881-1.772 5.924-3.562 9.09"/><path fill="#231f20" d="M67.167 191.418c-1.53 0-3.178-.332-4.64-1.304q-.073.023-.154.044c-1.267.362-4.632 1.321-8.834-.988a3.15 3.15 0 0 1-1.619-2.416c-.332-3.11.622-7.043 2.558-10.583-4.3-8.601-3.49-16.856-2.039-22.293 1.776-6.649 5.06-11.338 6.711-12.733l.792.94c-1.65 1.392-4.703 6.071-6.317 12.11-1.412 5.289-2.197 13.348 2.093 21.708l.153.295-.163.288c-1.92 3.397-2.88 7.185-2.565 10.135a1.92 1.92 0 0 0 .989 1.469c3.756 2.066 6.661 1.237 7.901.883a5 5 0 0 1 .52-.131l.253-.041.206.15c3.228 2.342 7.907.703 8.615.189l.342-.248.355.228c2.612 1.698 6.624.859 8.585-1.798a3.2 3.2 0 0 0 .62-1.769c.209-4.46-.096-6.406-.394-8.285l-.096-.618.106-.187c2.081-3.677 3.375-7.353 3.845-10.927.386-2.927.217-5.783-.5-8.489l1.189-.315c.758 2.861.935 5.877.529 8.964-.482 3.67-1.791 7.432-3.89 11.186l.03.194c.29 1.852.623 3.948.406 8.534a4.46 4.46 0 0 1-.859 2.443c-2.285 3.099-6.742 4.101-9.916 2.297-.878.451-2.738 1.063-4.817 1.063z"/><path fill="#231f20" d="M85.603 165.62c-.013-7.046-1.885-12.839-6.148-18.463 5.516 4.128 8.022 11.858 6.148 18.463"/><path fill="#fff0cb" d="M62.57 188.282q-.053.65-.227 1.244c-1.12.315-4.157 1.307-8.088-.676a6.3 6.3 0 0 1-.02-1.242c.229-2.844 2.283-4.999 4.583-4.812 2.303.187 3.983 2.642 3.752 5.486"/><path fill="#231f20" d="M59.081 190.663c-1.424 0-3.17-.29-5.104-1.265l-.296-.15-.039-.329a7 7 0 0 1-.022-1.363c.123-1.516.718-2.905 1.683-3.917.996-1.045 2.26-1.562 3.564-1.458 1.301.105 2.468.819 3.284 2.012.787 1.151 1.154 2.62 1.031 4.135-.037.47-.12.93-.248 1.368l-.096.327-.463.131c-.622.177-1.774.506-3.294.506zm-4.243-2.214c3.23 1.518 5.763.927 6.998.58q.09-.388.12-.799c.102-1.238-.191-2.423-.818-3.343-.603-.881-1.442-1.405-2.37-1.481-.922-.076-1.837.307-2.572 1.08-.77.807-1.248 1.933-1.349 3.168a6 6 0 0 0-.01.792z"/><path fill="#fff0cb" d="M79.844 189.216c-2.226 1.585-5.353 1.934-7.683.532a6.2 6.2 0 0 1-.177-1.233c-.12-2.748 1.55-5.055 3.732-5.151s4.05 2.054 4.17 4.804q.021.539-.042 1.048"/><path fill="#231f20" d="M75.47 191.246c-1.287 0-2.544-.32-3.624-.972l-.216-.13-.062-.246a7 7 0 0 1-.194-1.353c-.135-3.085 1.803-5.683 4.32-5.794 1.25-.054 2.435.495 3.35 1.548.879 1.011 1.398 2.376 1.462 3.845.014.388 0 .775-.047 1.151l-.032.268-.222.158a8.2 8.2 0 0 1-4.733 1.527zm-2.768-1.899c1.922 1.025 4.547.836 6.559-.478q.025-.336.01-.676c-.052-1.191-.465-2.288-1.162-3.092-.661-.763-1.503-1.161-2.366-1.125-1.84.082-3.25 2.104-3.144 4.51q.023.444.103.858z"/><path fill="#fff0cb" d="M71.74 189.792c-1.264.674-5.36 1.852-8.526.022a5.9 5.9 0 0 1-.307-1.643c-.126-2.883 1.808-5.311 4.317-5.422 2.511-.111 4.65 2.138 4.777 5.023a5.9 5.9 0 0 1-.26 2.02"/><path fill="#231f20" d="M67.19 191.403c-1.422 0-2.935-.278-4.283-1.058l-.2-.115-.074-.219a6.5 6.5 0 0 1-.339-1.816c-.14-3.217 2.062-5.936 4.905-6.061 2.84-.118 5.277 2.391 5.42 5.611a6.5 6.5 0 0 1-.288 2.231l-.076.241-.222.119c-.917.489-2.784 1.07-4.839 1.07zm-3.464-2.01c2.65 1.395 6.061.628 7.498-.032.133-.506.187-1.03.162-1.562-.11-2.482-1.884-4.44-3.985-4.44q-.075 0-.15.002c-2.167.096-3.84 2.241-3.73 4.78.018.426.087.846.205 1.25z"/><g class="left-arm"><path fill="#fff0cb" d="M33.74 101.081c-2.514-2.371-4.455-7.365-2.447-9.036 2.17-1.803 7.043 2.404 8.044 4.925s-5.597 4.111-5.597 4.111"/><path fill="#231f20" d="m33.56 101.755-.243-.229c-2.02-1.904-3.542-5.2-3.47-7.503.034-1.06.395-1.909 1.05-2.452.472-.394 1.318-.79 2.664-.448 2.534.647 5.542 3.602 6.342 5.616.221.559.19 1.144-.094 1.688-1.045 2.017-5.434 3.127-5.93 3.247l-.326.079zm-.973-9.53q-.548.001-.903.293c-.382.317-.586.836-.608 1.545-.059 1.87 1.2 4.64 2.849 6.334 1.69-.455 4.24-1.459 4.8-2.534a.75.75 0 0 0 .041-.669c-.676-1.704-3.404-4.342-5.503-4.878a2.8 2.8 0 0 0-.674-.093z"/><path fill="#fff0cb" d="M32.926 104.956c-2.735.327-6.457-1.029-6.084-3.1.406-2.239 5.514-3.07 7.405-2.399 1.892.672-1.32 5.499-1.32 5.499"/><path fill="#231f20" d="M32.05 105.622c-2.011 0-4.1-.71-5.13-1.808-.579-.615-.815-1.331-.682-2.069.14-.774.7-1.466 1.623-2 1.934-1.119 5.132-1.387 6.593-.868.446.157.76.477.908.925.551 1.651-1.506 4.866-1.921 5.496l-.158.236-.283.034q-.466.055-.947.054zm.537-5.776c-1.323 0-3.009.328-4.11.965-.419.241-.935.639-1.029 1.156-.064.347.057.676.367 1.006.875.93 2.96 1.535 4.757 1.4.869-1.368 1.875-3.427 1.621-4.182-.029-.086-.066-.123-.152-.153-.362-.128-.873-.192-1.454-.192"/><path fill="#00bf9a" d="M79.285 103.718c-9.4-.354-21.532-1.141-34.206-7.81-12.674-6.67-17.695 8.352-10.566 17.705 7.144 9.37 24.676 15.325 37.599 13.153"/><path fill="#231f20" d="M55.19 125.731c2.845.224 5.623.578 8.454.765 2.83.209 5.61.251 8.465.27-5.25 1.776-11.872 1.157-16.92-1.033z"/><path fill="#231f20" d="M64.058 127.755a48 48 0 0 1-9.018-1.427c-9.021-2.302-16.879-6.915-21.016-12.342-4.114-5.397-4.517-13.271-.896-17.552 2.792-3.301 7.252-3.69 12.236-1.067 12.207 6.423 23.922 7.362 33.944 7.741l-.047 1.23c-10.157-.384-22.037-1.338-34.47-7.882-6.064-3.19-9.32-.885-10.723.773-3.27 3.867-2.851 11.05.935 16.012 3.975 5.213 11.579 9.661 20.342 11.897a47 47 0 0 0 8.787 1.392l-.072 1.228z"/><path fill="#fff0cb" d="M38.38 96.124a1.72 1.72 0 0 1-.41-1.087c-.015-1.769.823-5.154 3.065-5.154 2.24 0 3.22 3.675 3.357 5.238.027.297-.022.6-.157.866-1.07 2.09-4.15 2.16-5.857.137z"/><path fill="#231f20" d="M41.47 98.21c-1.326 0-2.654-.622-3.557-1.692a2.33 2.33 0 0 1-.556-1.481c-.01-1.102.33-3.543 1.673-4.898.575-.58 1.25-.873 2.007-.873 2.839 0 3.83 4.184 3.97 5.798.037.426-.039.841-.22 1.2-.552 1.075-1.588 1.776-2.842 1.92a4 4 0 0 1-.475.026m-.433-7.712c-.423 0-.795.167-1.134.51-.87.875-1.328 2.728-1.316 4.022 0 .248.096.496.265.696.748.885 1.88 1.36 2.953 1.237.853-.098 1.522-.544 1.886-1.257a1 1 0 0 0 .094-.531c-.13-1.464-1.001-4.677-2.746-4.677z"/></g><g class="head"><path fill="#fff0cb" d="M150.256 23.937c4.318 4.354-1.222 22.44-7.252 23.06-5.542.571-17.112-10.585-15.867-16.002 1.353-5.897 18.805-11.41 23.122-7.056z"/><path fill="#ffc9a0" d="M143.004 46.997c3.528-.364 6.889-6.706 8.205-12.777-1.57 3.284-3.71 5.988-6.037 7.048-8.256 3.766-15.075-3.302-18.054-10.185-1.105 5.447 10.374 16.482 15.886 15.917z"/><path fill="#231f20" d="M142.593 47.632c-3.5 0-8.561-3.658-11.906-7.442-3.174-3.591-4.687-6.993-4.148-9.333.805-3.498 6.389-6.553 11.567-8.032 4.49-1.28 10.158-1.774 12.588.679 2.667 2.689 1.857 9.57-.022 14.824-1.975 5.525-4.819 8.994-7.604 9.282a5 5 0 0 1-.475.024zm2.382-24.65c-1.887 0-4.131.34-6.534 1.024-5.715 1.628-10.118 4.558-10.706 7.124-.441 1.921 1.006 5.004 3.872 8.244 3.776 4.273 8.654 7.286 11.333 7.008 2.234-.229 4.814-3.554 6.573-8.472 2.111-5.9 2.239-11.594.308-13.542-.913-.923-2.635-1.388-4.844-1.388z"/><path fill="#00d4fb" d="M50.463 97.797c-1.095-.342-1.715-1.656-1.297-2.733 2.608-6.726 11.484-13.85 19.926-15.901-3.102 8.004-2.344 16.086-1.043 20.09.07.21-9.673 1.009-17.586-1.456"/><path fill="#2df8ff" d="M69.093 79.16a31 31 0 0 0-.893 2.661c-8.047 2.337-16.23 8.706-18.773 14.696a2 2 0 0 0-.1.333c-.303-.534-.387-1.196-.158-1.786 2.608-6.726 11.483-13.85 19.926-15.902z"/><path fill="#231f20" d="M63.578 100.158c-.497 0-1-.007-1.498-.019-3.078-.081-7.622-.453-11.799-1.754-.679-.212-1.254-.721-1.58-1.395a2.7 2.7 0 0 1-.107-2.145c2.674-6.898 11.805-14.2 20.354-16.278l1.144-.278-.426 1.097c-3.19 8.231-2.15 16.241-1.03 19.678l.115.357-.266.275c-.147.148-.273.276-2.145.389-.839.049-1.786.076-2.762.076zm-12.93-2.95c6.6 2.058 14.418 1.809 16.62 1.573-1.031-3.705-1.799-11.053.841-18.719-7.865 2.328-15.938 8.957-18.369 15.223-.14.362-.116.787.069 1.169.18.369.485.647.839.755"/><path fill="#00d4fb" d="M42.793 76.44c-.886-.729-.965-2.18-.172-3.022 4.95-5.247 15.857-8.5 24.45-7.218-5.892 6.246-8.236 14.018-8.539 18.217-.015.219-9.34-2.71-15.742-7.978z"/><path fill="#2df8ff" d="M67.073 66.2a31 31 0 0 0-1.83 2.131c-8.335-.87-18.313 1.946-22.928 6.536a2 2 0 0 0-.219.268c-.078-.61.094-1.254.53-1.714 4.949-5.247 15.857-8.5 24.45-7.22z"/><path fill="#231f20" d="M58.525 85.044c-.24 0-.706-.103-1.887-.502-1.2-.406-2.608-.959-3.968-1.554-2.82-1.235-6.888-3.294-10.266-6.074-.549-.45-.89-1.14-.937-1.89-.047-.76.211-1.5.708-2.029 5.075-5.38 16.286-8.701 24.99-7.405l1.163.175-.81.856c-6.056 6.42-8.113 14.234-8.371 17.838l-.027.374-.352.155c-.064.027-.125.054-.246.054zm-15.341-9.08c5.338 4.391 12.674 7.112 14.802 7.722.443-3.82 2.5-10.915 7.835-17.02-8.162-.81-18.14 2.287-22.75 7.175a1.48 1.48 0 0 0-.377 1.107c.027.411.204.78.492 1.016z"/><path fill="#00d4fb" d="M44.46 57.118c-.723-.888-.517-2.327.428-2.994 5.887-4.167 17.223-5.203 25.395-2.25-7.009 4.959-10.842 12.115-11.966 16.172-.059.211-8.622-4.502-13.857-10.928"/><path fill="#2df8ff" d="M70.283 51.871a31 31 0 0 0-2.217 1.727c-8-2.497-18.337-1.707-23.766 1.882q-.145.1-.268.221c.042-.612.337-1.21.856-1.577 5.89-4.167 17.223-5.202 25.395-2.25z"/><path fill="#231f20" d="M58.3 68.67c-.201 0-.578-.13-1.87-.878a50 50 0 0 1-3.581-2.307c-2.52-1.77-6.103-4.588-8.866-7.98-.448-.552-.647-1.295-.546-2.038.103-.755.502-1.429 1.095-1.847 6.037-4.273 17.682-5.316 25.958-2.327l1.107.4-.962.682c-7.206 5.1-10.763 12.352-11.73 15.835l-.1.362-.374.084a.5.5 0 0 1-.133.017zm1.59-17.867c-5.59 0-11.127 1.331-14.647 3.823a1.47 1.47 0 0 0-.588 1.011c-.057.409.046.807.28 1.093 4.367 5.36 11.021 9.47 12.987 10.489 1.188-3.658 4.605-10.207 11.038-15.139-2.81-.861-5.951-1.277-9.073-1.277z"/><path fill="#00d4fb" d="M49.253 39.834c-.534-1.014-.045-2.384 1.013-2.851 6.596-2.92 17.912-1.69 25.338 2.819-7.852 3.473-13.023 9.73-14.93 13.483-.1.197-7.56-6.118-11.419-13.454z"/><path fill="#2df8ff" d="M75.602 39.802a32 32 0 0 0-2.515 1.252c-7.345-4.032-17.635-5.301-23.668-2.858q-.162.068-.307.162c.162-.593.57-1.12 1.151-1.375 6.598-2.92 17.912-1.69 25.339 2.819"/><path fill="#231f20" d="M60.648 53.905c-.202 0-.416-.042-1.771-1.24a51 51 0 0 1-3.056-2.97c-2.12-2.23-5.075-5.704-7.112-9.576-.33-.627-.379-1.395-.133-2.103.251-.721.775-1.302 1.44-1.597 6.765-2.994 18.386-1.712 25.906 2.856l1.006.613-1.077.477c-8.071 3.572-12.994 9.978-14.63 13.2l-.17.335-.384.008h-.022zm-10.849-14.36c3.22 6.119 8.928 11.467 10.654 12.855 1.89-3.351 6.534-9.093 13.819-12.655-7.21-3.909-17.61-4.92-23.755-2.202a1.47 1.47 0 0 0-.774.876c-.136.389-.114.8.059 1.127z"/><path fill="#00d4fb" d="M63.14 22.296c-.178-1.131.728-2.27 1.879-2.371 7.186-.632 17.498 4.182 23.07 10.849-8.553.752-15.468 5.003-18.484 7.94-.158.153-5.181-8.23-6.466-16.42z"/><path fill="#231f20" d="M69.767 39.418 69.4 39.3c-.197-.067-.369-.123-1.296-1.752a50 50 0 0 1-1.931-3.798c-1.287-2.797-2.962-7.038-3.639-11.36-.11-.701.091-1.444.554-2.035a2.7 2.7 0 0 1 1.877-1.045c7.367-.65 17.953 4.315 23.596 11.067l.755.903-1.173.104c-8.792.774-15.52 5.247-18.108 7.768l-.268.261zm-6.02-17.215c1.073 6.829 4.748 13.734 5.934 15.604 2.868-2.561 9.119-6.497 17.163-7.516-5.562-6.027-15.077-10.342-21.771-9.751a1.47 1.47 0 0 0-1.016.578c-.253.325-.367.72-.308 1.085z"/><path fill="#00d4fb" d="M77.09 9.226c.14-1.141 1.38-1.965 2.578-1.72 7.476 1.536 16.588 9.246 20.362 17.322-8.898-1.828-17.122.199-21.016 2.125-.204.101-2.935-9.463-1.924-17.724z"/><path fill="#2df8ff" d="M100.03 24.825a35 35 0 0 0-2.932-.47C93.108 16.717 84.913 9.58 78.212 7.994a2 2 0 0 0-.364-.05 2.25 2.25 0 0 1 1.82-.437c7.477 1.535 16.589 9.244 20.362 17.318"/><path fill="#231f20" d="m78.958 27.667-.31-.215c-.674-.477-1.676-6.228-1.683-6.285-.514-3.072-1.016-7.653-.485-12.012.084-.687.477-1.329 1.078-1.762a2.85 2.85 0 0 1 2.233-.487c7.649 1.57 16.977 9.494 20.795 17.663l.519 1.11-1.198-.246c-9.163-1.882-17.272.418-20.617 2.074l-.33.162zm.278-19.59c-.338 0-.675.109-.96.313-.327.236-.531.558-.576.91-.848 6.952.965 14.74 1.629 16.822 3.614-1.612 11.105-3.56 19.597-2.13C94.972 16.53 86.52 9.538 79.543 8.103a1.7 1.7 0 0 0-.31-.032z"/><path fill="#00d4fb" d="M124.35 15.106a.956.956 0 0 1 1.212.504c1.887 4.143 3.103 13.326-.039 15.237-2.75 1.676-10.824-1.17-11.409-4.359-.679-3.707 4.964-9.318 10.236-11.382"/><path fill="#2df8ff" d="M114.114 26.486c.305 1.66 2.639 3.227 5.195 4.113-1.924-.81-3.525-2.106-3.705-3.543-.45-3.618 4.815-9.372 9.602-11.623a1 1 0 0 1 .197-.067.95.95 0 0 0-1.053-.263c-5.272 2.067-10.915 7.676-10.239 11.383z"/><path fill="#231f20" d="M123.282 31.957c-1.764 0-3.825-.551-5.454-1.282-2.475-1.11-4.049-2.595-4.32-4.076-.748-4.088 5.196-9.943 10.618-12.066.77-.303 1.648.059 1.995.821 1.021 2.241 1.776 5.649 1.921 8.682.128 2.659-.15 6.088-2.202 7.338-.676.41-1.572.585-2.558.585zm1.292-16.28c-5.358 2.098-10.424 7.599-9.855 10.698.192 1.046 1.577 2.263 3.613 3.176 2.67 1.198 5.624 1.528 6.869.77 2.578-1.57 1.756-10.165-.199-14.458a.34.34 0 0 0-.428-.186"/><path fill="#00bf9a" d="M52.76 70.884c0-24.66 18.5-50.305 49.816-48.34 32.674 2.05 49.023 19.617 50.307 43.666 17.826 23.973-18.961 48.736-51.291 43.665-27.513 0-48.832-14.332-48.832-38.991"/><path fill="#231f20" d="M73.132 104.267c-2.96-1.511-5.672-3.287-8.066-5.284-8.453-7.053-12.92-16.768-12.92-28.099 0-13.911 5.85-27.71 15.65-36.915 9.287-8.723 21.329-12.885 34.82-12.04 15.525.975 27.864 5.408 36.676 13.18 8.199 7.232 13.068 17.362 14.086 29.296a6.1 6.1 0 0 0 .977 2.829c3.599 5.473 4.662 11.153 3.154 16.88-1.356 5.147-4.822 10.148-10.027 14.46-2.131 1.767-4.542 3.405-7.159 4.874l-.6-1.073c2.553-1.432 4.9-3.028 6.976-4.748 5.006-4.147 8.335-8.93 9.621-13.825 1.415-5.375.409-10.72-2.991-15.892a7.35 7.35 0 0 1-1.173-3.4c-.989-11.613-5.717-21.46-13.673-28.477-8.6-7.587-20.691-11.916-35.939-12.873-13.144-.824-24.866 3.225-33.899 11.707-9.557 8.977-15.262 22.44-15.262 36.017 0 10.955 4.315 20.345 12.478 27.156 2.322 1.939 4.959 3.666 7.837 5.132l-.558 1.095z"/><path fill="#231f20" d="M82.812 107.384c-6.386-.913-12.986-4.074-17.353-8.871 2.804 1.7 5.57 3.333 8.487 4.787 2.908 1.476 5.882 2.726 8.866 4.084M147.088 98.1c-3.796 4.28-9.744 7.48-15.338 8.597 2.568-1.466 5.168-2.76 7.734-4.194 2.578-1.412 5.048-2.92 7.604-4.403M74.874 65.585c-.942-5.21 2.989-10.334 7.946-11.754 4.273-1.326 9.284-.142 12.359 3.142 2.177 2.25 3.38 5.547 2.82 8.615-.271-1.481-.754-2.856-1.467-4.074-5.629-9.387-19.816-6.765-21.658 4.074zM145.757 64.284c-.603-4.399-3.545-8.48-7.946-9.515-4.327-1.014-8.578 1.19-10.768 4.991-.654 1.11-1.129 2.352-1.458 3.693-.209-1.366-.077-2.805.349-4.175 1.351-4.389 5.611-7.398 10.224-7.208 6.192.25 10.952 6.143 9.599 12.214M81.563 41.831c1.316-3.082 5.144-4.866 8.27-3.375a6.74 6.74 0 0 1 2.52 1.963c-1.737-.772-3.405-1.427-5.285-1.264-2.081.206-3.872 1.345-5.503 2.679zM135.799 40.478c-2.891-1.07-5.614-2.71-8.246-.184.406-1.835 2.312-2.844 4.118-2.485a6.46 6.46 0 0 1 4.128 2.67M105.491 66.218c.736-1.787 2.948-2.013 4.005-.532.318.455.505 1.082.3 1.84l-.14.14-.332-.25c-.802-.54-1.737-.834-2.696-.94a8 8 0 0 0-1.11-.064zM120.481 67.711c-.709-2.081 1.058-3.81 3.011-2.945.307.145.617.399.775.721l-.008.197c-1.419.241-2.526 1.326-3.641 2.167l-.14-.14z"/><path fill="#00a192" d="M102.975 61.364c5.05-5.51 14.728-6.157 20.659-1.727l-.054.138c-.421-.145-.839-.303-1.262-.436a28 28 0 0 0-2.581-.679 23.27 23.27 0 0 0-14.329 1.567c-.81.365-1.609.77-2.347 1.255l-.086-.12z"/><path fill="#ffb5b6" d="M74.762 80.566c4.906-.43 8.672-3.193 8.41-6.17-.26-2.978-4.45-5.043-9.355-4.613s-8.672 3.193-8.411 6.17c.26 2.978 4.45 5.043 9.356 4.613M153.832 74.079c.106-2.82-3.111-5.23-7.184-5.382s-7.46 2.01-7.566 4.83 3.111 5.23 7.184 5.382 7.461-2.01 7.566-4.83"/><g class="mouth"><path fill="#bf2a31" d="M88.345 79.093c-.12-4.364.849-9.166 5.277-6.96 3.434 1.713 5.097 4.695 12.201 3.041 7.107-1.653 9.927-3.57 17.784-.743 6.175 2.222 6.175-.693 8.91-2.154 2.027-1.08 3.496 1.55 1.449 8.135s-7.493 22.991-22.986 22.991c-15.324-.615-22.387-15.21-22.638-24.31z"/><path fill="#ff6e70" d="M122.364 99.704c-3.013 2.233-6.748 3.7-11.382 3.7-13.349-.537-20.428-11.678-22.197-20.559 1.407-5.515 5.183-7.346 9.09-8.15 1.808.903 4.064 1.383 7.948.48 7.102-1.653 9.921-3.567 17.766-.748 6.118 5.663 9.058 15.545-1.225 25.277"/><path fill="#ff9595" d="M128.376 93.123c-3.552 5.463-8.998 10.28-17.394 10.28-10.364-.416-16.948-7.225-20.202-14.403 3.314-4.109 9.255-7.963 16.834-8.365 13.048-.688 20.836 12.2 20.762 12.488"/><path fill="#231f20" d="M110.982 104.018h-.024c-8.869-.357-14.377-5.208-17.435-9.215-3.429-4.492-5.648-10.507-5.793-15.693-.079-2.797.251-6.4 2.263-7.685 1.043-.666 2.357-.612 3.902.16.82.409 1.537.883 2.229 1.34 2.228 1.475 4.334 2.867 9.559 1.652a96 96 0 0 0 3.612-.928c4.797-1.299 7.965-2.155 14.519.204 4.162 1.499 5.144.593 6.499-.661.519-.48 1.11-1.026 1.914-1.454.829-.443 1.66-.404 2.28.108 1.4 1.156 1.415 4.347.047 8.75-1.801 5.794-7.279 23.425-23.572 23.425zm-19.36-31.823q-.55 0-.965.266c-1.173.75-1.793 3.161-1.697 6.615.256 9.213 7.437 23.117 22.037 23.712 15.38-.007 20.652-16.981 22.386-22.558 1.508-4.849.925-6.957.345-7.44-.084-.068-.34-.28-.918.03-.664.354-1.169.822-1.658 1.272-1.483 1.373-2.886 2.67-7.752.918-6.189-2.227-9.048-1.454-13.781-.173-1.077.293-2.3.623-3.653.938-5.739 1.335-8.167-.271-10.516-1.823-.662-.438-1.349-.89-2.101-1.267q-.98-.487-1.727-.487z"/></g><path fill="#00d4fb" d="M114.261 36.139c-.632.563-6.915 7.313-3.232 11.832 3.476 4.266 9.326.576 8.214-4.246-.788-3.416-2.379-5.493-4.98-7.584z"/><path fill="#2df8ff" d="M114.17 49.819c2.121-.298 3.934-2.955 3.343-6.094-.6-3.195-1.771-5.215-3.655-7.173.192-.207.332-.347.403-.41 2.601 2.09 4.192 4.164 4.979 7.583.812 3.523-2.091 6.44-5.07 6.094"/><path fill="#231f20" d="M114.635 50.463c-1.355 0-2.831-.566-4.083-2.103-1.688-2.072-1.713-4.861-.072-8.067 1.248-2.437 3.065-4.339 3.373-4.612l.389-.347.406.327c3.429 2.76 4.556 5.164 5.193 7.926.597 2.593-.62 5.206-2.962 6.355a5.14 5.14 0 0 1-2.241.524zm-.337-13.495c-1.564 1.662-5.658 7.1-2.794 10.615 1.953 2.398 4.192 1.564 4.831 1.252a4.39 4.39 0 0 0 2.305-4.972c-.657-2.854-1.892-4.824-4.342-6.895"/><path fill="#fff0cb" d="M53.181 24.299c-4.084 4.573 2.391 22.344 8.448 22.65 5.564.28 16.536-11.464 15.01-16.81-1.66-5.818-19.372-10.413-23.455-5.84z"/><path fill="#ffc9a0" d="M61.626 46.948c-3.542-.18-7.23-6.337-8.86-12.332 1.739 3.198 4.017 5.786 6.395 6.723 8.44 3.331 14.883-4.083 17.498-11.114 1.388 5.382-9.498 17.001-15.033 16.723"/><path fill="#231f20" d="M61.821 47.568q-.114.001-.224-.005c-2.797-.14-5.815-3.456-8.079-8.87-2.152-5.15-3.318-11.978-.797-14.803 2.3-2.578 7.986-2.378 12.537-1.335 5.25 1.203 10.986 3.963 11.973 7.416.659 2.31-.674 5.787-3.656 9.538-3.218 4.05-8.241 8.062-11.754 8.062zm-2.524-24.521c-2.642 0-4.679.565-5.658 1.66-1.828 2.047-1.402 7.73 1.014 13.508 2.012 4.817 4.762 8.005 7.006 8.116q.08.004.164.005c2.721 0 7.312-3.223 10.788-7.597 2.69-3.387 3.975-6.541 3.436-8.435-.723-2.532-5.272-5.225-11.062-6.554-2.062-.472-3.998-.703-5.688-.703"/><path fill="#00d4fb" d="M100.03 24.825c-8.696-1.783-16.327.217-20.438 1.998-.48-1.159-1.006-3.735-1.006-3.735 3.555-1.254 15.803-1.717 19.926-1.754.473.788 1.144 2.692 1.518 3.491"/><path fill="#231f20" d="m79.548 27.379-.524-1.112c4.14-1.953 11.727-3.648 19.906-2.273a27 27 0 0 0-.698-1.238l1.055-.632c.482.805.92 1.626 1.301 2.44l.52 1.11-1.2-.246c-8.345-1.712-16.183-.017-20.36 1.95"/><path fill="#00d4fb" d="M95.675 23.893c.027-4.588.578-14.02 4.12-22.15a1.878 1.878 0 0 1 2.736-.83c8.091 5.245 16.204 21.432 12.44 31.068-.447 1.144-1.955 1.385-2.772.47-5.683-6.361-11.336-8.093-16.15-8.182a.376.376 0 0 1-.372-.379z"/><path fill="#2df8ff" d="M114.972 31.984a1.6 1.6 0 0 1-1.171.991c3.579-9.89-5.08-25.697-13.954-31.34a1.88 1.88 0 0 1 2.684-.719c8.089 5.242 16.204 21.432 12.441 31.068"/><path fill="#231f20" d="M113.444 33.627a2.28 2.28 0 0 1-1.705-.767c-4.698-5.26-9.835-7.87-15.702-7.976a1 1 0 0 1-.977-.996c.03-4.851.61-14.214 4.173-22.391a2.49 2.49 0 0 1 1.569-1.39 2.47 2.47 0 0 1 2.064.29c4.069 2.637 8.244 8.062 10.896 14.158 2.905 6.681 3.557 13.114 1.786 17.65a2.23 2.23 0 0 1-1.688 1.385 2.4 2.4 0 0 1-.413.037zm-17.151-9.966c6.133.178 11.488 2.92 16.364 8.382.248.278.615.403.982.34a.98.98 0 0 0 .76-.623c3.532-9.046-4.003-25.014-12.202-30.33a1.262 1.262 0 0 0-1.835.558c-3.417 7.848-4.022 16.852-4.067 21.674z"/><path fill="#00d4fb" d="M81.06 15.253a1.044 1.044 0 0 0-1.262.692c-1.579 4.75-1.847 14.94 1.796 16.674 3.19 1.52 11.66-2.52 11.929-6.076.312-4.136-6.48-9.631-12.463-11.29"/><path fill="#2df8ff" d="M93.526 26.543c-.14 1.852-2.505 3.835-5.189 5.094 2.003-1.104 3.6-2.708 3.629-4.3.074-4.012-6.325-9.71-11.8-11.626a1 1 0 0 0-.222-.05c.246-.348.689-.526 1.117-.408 5.982 1.659 12.777 7.154 12.465 11.29"/><path fill="#231f20" d="M83.32 33.56c-.744 0-1.423-.117-1.989-.388-1.296-.617-2.907-2.46-3.207-7.727-.19-3.328.238-7.134 1.092-9.697a1.66 1.66 0 0 1 2.01-1.09c6.128 1.697 13.254 7.397 12.912 11.929-.123 1.64-1.67 3.434-4.238 4.925-1.929 1.119-4.5 2.046-6.578 2.046zm-2.527-17.729c-.18 0-.347.12-.409.308-.794 2.389-1.208 6.103-1.03 9.24.204 3.586 1.119 6.024 2.506 6.686 1.454.691 4.642 0 7.422-1.611 2.15-1.248 3.54-2.763 3.631-3.954.13-1.712-1.205-3.923-3.663-6.064-2.393-2.086-5.515-3.8-8.352-4.585a.4.4 0 0 0-.105-.015z"/></g><defs><radialGradient id="a" cx="0" cy="0" r="1" gradientTransform="matrix(0 -23.8374 8.02076 0 111.025 132.91)" gradientUnits="userSpaceOnUse"><stop stop-color="#00f"/><stop offset=".11" stop-color="#0000cb"/><stop offset=".24" stop-color="#000095"/><stop offset=".37" stop-color="#000068"/><stop offset=".5" stop-color="#000042"/><stop offset=".63" stop-color="#000025"/><stop offset=".75" stop-color="#000010"/><stop offset=".88" stop-color="#000004"/><stop offset="1"/></radialGradient><radialGradient id="b" cx="0" cy="0" r="1" gradientTransform="matrix(0 -23.8374 2.02393 0 111.232 246.105)" gradientUnits="userSpaceOnUse"><stop stop-color="#00f"/><stop offset=".11" stop-color="#0000cb"/><stop offset=".24" stop-color="#000095"/><stop offset=".37" stop-color="#000068"/><stop offset=".5" stop-color="#000042"/><stop offset=".63" stop-color="#000025"/><stop offset=".75" stop-color="#000010"/><stop offset=".88" stop-color="#000004"/><stop offset="1"/></radialGradient><radialGradient id="c" cx="0" cy="0" r="1" gradientTransform="matrix(0 -23.8374 .67464 0 111.307 132.91)" gradientUnits="userSpaceOnUse"><stop offset=".15" stop-color="#fff"/><stop offset=".6" stop-color="#0071bc"/><stop offset=".63" stop-color="#00609f"/><stop offset=".7" stop-color="#00436f"/><stop offset=".76" stop-color="#002a47"/><stop offset=".83" stop-color="#001828"/><stop offset=".89" stop-color="#000a11"/><stop offset=".95" stop-color="#000204"/><stop offset="1"/></radialGradient><radialGradient id="d" cx="0" cy="0" r="1" gradientTransform="matrix(0 -14.3144 1.93728 0 111.269 132.747)" gradientUnits="userSpaceOnUse"><stop offset=".15" stop-color="#fff"/><stop offset=".54" stop-color="#0071bc"/><stop offset=".57" stop-color="#00609f"/><stop offset=".65" stop-color="#00436f"/><stop offset=".73" stop-color="#002a47"/><stop offset=".8" stop-color="#001828"/><stop offset=".87" stop-color="#000a11"/><stop offset=".94" stop-color="#000204"/><stop offset="1"/></radialGradient><radialGradient id="e" cx="0" cy="0" r="1" gradientTransform="matrix(13.5267 0 0 12.5301 110.977 137.897)" gradientUnits="userSpaceOnUse"><stop stop-color="#00f"/><stop offset=".11" stop-color="#0000cb"/><stop offset=".24" stop-color="#000095"/><stop offset=".37" stop-color="#000068"/><stop offset=".5" stop-color="#000042"/><stop offset=".63" stop-color="#000025"/><stop offset=".75" stop-color="#000010"/><stop offset=".88" stop-color="#000004"/><stop offset="1"/></radialGradient><radialGradient id="f" cx="0" cy="0" r="1" gradientTransform="matrix(13.5267 0 0 2.30144 110.977 137.903)" gradientUnits="userSpaceOnUse"><stop stop-color="#00f"/><stop offset=".11" stop-color="#0000cb"/><stop offset=".24" stop-color="#000095"/><stop offset=".37" stop-color="#000068"/><stop offset=".5" stop-color="#000042"/><stop offset=".63" stop-color="#000025"/><stop offset=".75" stop-color="#000010"/><stop offset=".88" stop-color="#000004"/><stop offset="1"/></radialGradient><radialGradient id="g" cx="0" cy="0" r="1" gradientTransform="matrix(13.5267 0 0 .76715 110.977 137.991)" gradientUnits="userSpaceOnUse"><stop offset=".15" stop-color="#fff"/><stop offset=".6" stop-color="#0071bc"/><stop offset=".63" stop-color="#00609f"/><stop offset=".7" stop-color="#00436f"/><stop offset=".76" stop-color="#002a47"/><stop offset=".83" stop-color="#001828"/><stop offset=".89" stop-color="#000a11"/><stop offset=".95" stop-color="#000204"/><stop offset="1"/></radialGradient><radialGradient id="h" cx="0" cy="0" r="1" gradientTransform="matrix(8.11357 0 0 2.20041 111.123 137.946)" gradientUnits="userSpaceOnUse"><stop offset=".15" stop-color="#fff"/><stop offset=".54" stop-color="#0071bc"/><stop offset=".57" stop-color="#00609f"/><stop offset=".65" stop-color="#00436f"/><stop offset=".73" stop-color="#002a47"/><stop offset=".8" stop-color="#001828"/><stop offset=".87" stop-color="#000a11"/><stop offset=".94" stop-color="#000204"/><stop offset="1"/></radialGradient><radialGradient id="i" cx="0" cy="0" r="1" gradientTransform="matrix(0 -15.5247 5.41732 0 111.064 137.554)" gradientUnits="userSpaceOnUse"><stop stop-color="#00f"/><stop offset=".11" stop-color="#0000cb"/><stop offset=".24" stop-color="#000095"/><stop offset=".37" stop-color="#000068"/><stop offset=".5" stop-color="#000042"/><stop offset=".63" stop-color="#000025"/><stop offset=".75" stop-color="#000010"/><stop offset=".88" stop-color="#000004"/><stop offset="1"/></radialGradient><radialGradient id="j" cx="0" cy="0" r="1" gradientTransform="matrix(0 -9.10474 9.49488 0 110.961 137.857)" gradientUnits="userSpaceOnUse"><stop offset=".15" stop-color="#fff"/><stop offset=".42" stop-color="#006fb9"/><stop offset=".47" stop-color="#00558d"/><stop offset=".52" stop-color="#003e68"/><stop offset=".58" stop-color="#002b47"/><stop offset=".63" stop-color="#001b2d"/><stop offset=".7" stop-color="#000f19"/><stop offset=".77" stop-color="#00060a"/><stop offset=".86" stop-color="#000102"/><stop offset="1"/></radialGradient><radialGradient id="k" cx="0" cy="0" r="1" gradientTransform="rotate(-63.48 166.77 -21.009)scale(11.5387 .90123)" gradientUnits="userSpaceOnUse"><stop stop-color="#0ff"/><stop offset=".02" stop-color="#00ecf6"/><stop offset=".07" stop-color="#00bade"/><stop offset=".13" stop-color="#0071bc"/><stop offset=".19" stop-color="#005e9d"/><stop offset=".28" stop-color="#004573"/><stop offset=".37" stop-color="#003050"/><stop offset=".47" stop-color="#001e32"/><stop offset=".58" stop-color="#00111c"/><stop offset=".69" stop-color="#00070c"/><stop offset=".82" stop-color="#000102"/><stop offset="1"/></radialGradient><radialGradient id="l" cx="0" cy="0" r="1" gradientTransform="rotate(243.479 98.112 35.11)scale(11.5387 .90123)" gradientUnits="userSpaceOnUse"><stop stop-color="#0ff"/><stop offset=".02" stop-color="#00ecf6"/><stop offset=".07" stop-color="#00bade"/><stop offset=".13" stop-color="#0071bc"/><stop offset=".19" stop-color="#005e9d"/><stop offset=".28" stop-color="#004573"/><stop offset=".37" stop-color="#003050"/><stop offset=".47" stop-color="#001e32"/><stop offset=".58" stop-color="#00111c"/><stop offset=".69" stop-color="#00070c"/><stop offset=".82" stop-color="#000102"/><stop offset="1"/></radialGradient><radialGradient id="m" cx="0" cy="0" r="1" gradientTransform="rotate(-78.321 139.77 .635)scale(9.77607 .53578)" gradientUnits="userSpaceOnUse"><stop stop-color="#0ff"/><stop offset=".02" stop-color="#00ecf6"/><stop offset=".07" stop-color="#00bade"/><stop offset=".13" stop-color="#0071bc"/><stop offset=".19" stop-color="#005e9d"/><stop offset=".28" stop-color="#004573"/><stop offset=".37" stop-color="#003050"/><stop offset=".47" stop-color="#001e32"/><stop offset=".58" stop-color="#00111c"/><stop offset=".69" stop-color="#00070c"/><stop offset=".82" stop-color="#000102"/><stop offset="1"/></radialGradient><radialGradient id="n" cx="0" cy="0" r="1" gradientTransform="rotate(219.694 80.432 49.474)scale(6.20894 .84359)" gradientUnits="userSpaceOnUse"><stop stop-color="#0ff"/><stop offset=".02" stop-color="#00ecf6"/><stop offset=".07" stop-color="#00bade"/><stop offset=".13" stop-color="#0071bc"/><stop offset=".19" stop-color="#005e9d"/><stop offset=".28" stop-color="#004573"/><stop offset=".37" stop-color="#003050"/><stop offset=".47" stop-color="#001e32"/><stop offset=".58" stop-color="#00111c"/><stop offset=".69" stop-color="#00070c"/><stop offset=".82" stop-color="#000102"/><stop offset="1"/></radialGradient><radialGradient id="o" cx="0" cy="0" r="1" gradientTransform="rotate(258.321 111.432 24.03)scale(9.77607 .53578)" gradientUnits="userSpaceOnUse"><stop stop-color="#0ff"/><stop offset=".02" stop-color="#00ecf6"/><stop offset=".07" stop-color="#00bade"/><stop offset=".13" stop-color="#0071bc"/><stop offset=".19" stop-color="#005e9d"/><stop offset=".28" stop-color="#004573"/><stop offset=".37" stop-color="#003050"/><stop offset=".47" stop-color="#001e32"/><stop offset=".58" stop-color="#00111c"/><stop offset=".69" stop-color="#00070c"/><stop offset=".82" stop-color="#000102"/><stop offset="1"/></radialGradient><radialGradient id="p" cx="0" cy="0" r="1" gradientTransform="rotate(140.306 30.567 89.327)scale(6.20894 .84359)" gradientUnits="userSpaceOnUse"><stop stop-color="#0ff"/><stop offset=".02" stop-color="#00ecf6"/><stop offset=".07" stop-color="#00bade"/><stop offset=".13" stop-color="#0071bc"/><stop offset=".19" stop-color="#005e9d"/><stop offset=".28" stop-color="#004573"/><stop offset=".37" stop-color="#003050"/><stop offset=".47" stop-color="#001e32"/><stop offset=".58" stop-color="#00111c"/><stop offset=".69" stop-color="#00070c"/><stop offset=".82" stop-color="#000102"/><stop offset="1"/></radialGradient><radialGradient id="q" cx="0" cy="0" r="1" gradientTransform="matrix(0 -19.232 .93809 0 110.597 137.554)" gradientUnits="userSpaceOnUse"><stop stop-color="#0ff"/><stop offset=".02" stop-color="#00ecf6"/><stop offset=".07" stop-color="#00bade"/><stop offset=".13" stop-color="#0071bc"/><stop offset=".19" stop-color="#005e9d"/><stop offset=".28" stop-color="#004573"/><stop offset=".37" stop-color="#003050"/><stop offset=".47" stop-color="#001e32"/><stop offset=".58" stop-color="#00111c"/><stop offset=".69" stop-color="#00070c"/><stop offset=".82" stop-color="#000102"/><stop offset="1"/></radialGradient></defs></svg>