<svg xmlns="http://www.w3.org/2000/svg" width="510" height="614" fill="none" viewBox="0 0 510 614"><path fill="#00d4fb" d="M62.982 393.228c8.236-7.184 15.248-12.135 18.405-10.809 5.591 2.344 7.412 19.808 5.658 30.562-21.1-1.57-24.069-19.753-24.069-19.753z"/><path fill="#2df8ff" d="M84.789 386.483c-.785-1.258-1.72-2.149-2.807-2.545-3.196-1.152-10.14 5.09-17.509 13.934-1.175-2.684-1.492-4.645-1.492-4.645 8.236-7.184 15.242-12.134 18.405-10.803 1.36.568 2.49 2.027 3.403 4.059"/><path fill="#231f20" d="m88.221 414.467-1.27-.094c-11.438-.852-17.72-6.477-20.978-11.044-3.525-4.95-4.327-9.673-4.36-9.873l-.123-.763.585-.507c10.509-9.172 16.45-12.469 19.859-11.043 6.6 2.762 8.281 21.134 6.493 32.071l-.206 1.259zm-23.707-20.722c.78 3.258 4.856 15.894 21.352 17.732 1.687-12.475-1.315-26.219-5.012-27.773-1.198-.501-4.912.156-16.34 10.041"/><path fill="#00d4fb" d="M114.924 434.109c-.841-12.34-2.127-22.209-4.466-24.72-4.132-4.439-13.722 3.23-18.094 10.893 12.007 20.716 22.56 13.827 22.56 13.827"/><path fill="#2df8ff" d="M106.642 408.124c1.041.111 1.977.585 2.751 1.481 2.272 2.64 2.89 13.149 2.45 25.512 1.95-.268 3.086-1.008 3.086-1.008-.841-12.341-2.128-22.209-4.467-24.715-1.002-1.075-2.328-1.437-3.814-1.265z"/><path fill="#231f20" d="M110.441 436.598c-.891 0-1.877-.1-2.94-.351-5.77-1.37-11.266-6.51-16.34-15.27l-.4-.691.395-.696c3.325-5.831 9.968-12.229 15.331-12.853 2.011-.234 3.737.356 4.99 1.704 2.311 2.484 3.804 10.37 4.834 25.573l.056.813-.685.445c-.106.067-2.078 1.326-5.241 1.326m-16.462-16.317c5.664 9.495 10.815 12.458 14.168 13.254 2.484.59 4.371.106 5.324-.267-.947-13.36-2.3-21.073-4.032-22.933-.646-.691-1.504-.964-2.629-.836-3.731.435-9.461 5.291-12.825 10.776z"/><path fill="#00d4fb" d="M149.507 448.601c-2.227-12.992-4.901-23.017-8.47-24.403-6.316-2.445-19.469 11.5-25.122 22.409 18.985 15.655 33.592 1.994 33.592 1.994"/><path fill="#2df8ff" d="M135.445 425.032c1.504-.479 2.89-.512 4.076.022 3.487 1.565 5.241 12.681 5.631 26.436 2.784-1.425 4.355-2.896 4.355-2.896-2.228-12.986-4.901-23.016-8.471-24.397-1.531-.596-3.464-.223-5.591.835"/><path fill="#231f20" d="M134.343 455.473c-5.53 0-12.151-1.883-19.319-7.797l-.868-.718.518-.997c5.752-11.099 19.396-25.963 26.864-23.067 3.732 1.448 6.527 9.061 9.34 25.467l.128.741-.546.512c-.1.095-6.438 5.859-16.111 5.859zm-16.657-9.228c15.543 12.146 27.6 3.993 30.318 1.81-3.041-17.409-5.736-21.886-7.468-22.56-4.583-1.771-16.479 9.127-22.85 20.75"/><path fill="#00d4fb" d="M188.947 449.819c-6.477-11.483-12.374-20.021-16.2-20.121-6.767-.178-14.452 17.387-16.1 29.566 23.15 8.337 32.3-9.445 32.3-9.445"/><path fill="#2df8ff" d="M167.767 432.372c1.253-.958 2.551-1.454 3.843-1.354 3.809.295 9.211 10.175 14.212 22.995 2.139-2.278 3.124-4.194 3.124-4.194-6.476-11.477-12.368-20.02-16.2-20.115-1.643-.044-3.336.958-4.984 2.673z"/><path fill="#231f20" d="M168.29 462.867c-3.558 0-7.585-.662-12.118-2.294l-1.058-.384.15-1.114c1.665-12.319 9.434-30.774 17.387-30.774h.133c4.004.106 9.2 6.332 17.376 20.828l.367.651-.345.669c-.078.156-6.605 12.413-21.892 12.413zm-10.102-4.544c18.729 6.198 27.327-5.541 29.154-8.509-8.732-15.365-12.776-18.673-14.636-18.723h-.066c-4.912 0-12.38 14.201-14.452 27.238z"/><path fill="#00bf9a" d="M228.248 425.55c-75.9 65.954-153.532-19.452-174.494-50.143-.98-1.437-3.24-.702-3.18 1.036 3.927 110.533 168.034 163.26 199.554 118.107 10.537-15.098-21.88-69.005-21.88-69.005z"/><path fill="#00a994" d="M250.129 494.555c-31.51 45.153-195.622-7.574-199.549-118.107 17.788 75.654 94.851 150.223 177.668 49.107 0 0 32.417 53.908 21.881 69.005z"/><path fill="#231f20" d="M207.758 512.092c-12.241 0-26.113-2.116-40.816-6.454-29.671-8.755-57.544-24.888-78.489-45.432-24.598-24.131-38.18-53.078-39.267-83.708a3.1 3.1 0 0 1 2.15-3.079 3.11 3.11 0 0 1 3.57 1.208c16.679 24.426 57.11 67.335 102.842 73.227 24.682 3.18 48.099-4.673 69.585-23.345l1.253-1.086.852 1.42c.083.133 8.225 13.727 14.969 28.998 9.217 20.866 11.522 34.833 6.856 41.522-7.686 11.015-23.396 16.74-43.517 16.74zM52.338 376.036a.4.4 0 0 0-.133.023c-.245.083-.24.272-.24.334 1.064 29.905 14.351 58.201 38.432 81.819 20.622 20.227 48.082 36.121 77.325 44.747 37.697 11.121 69.59 7.507 81.257-9.206 7.97-11.416-11.778-50.249-21.089-66.07-21.77 18.439-45.482 26.146-70.504 22.927-21.513-2.773-43.544-13.437-65.491-31.704-21.77-18.116-35.58-37.273-39.295-42.714q-.109-.158-.267-.156z"/><path fill="#fff0cb" d="M231.651 507.325c-.307.105-.613.2-.925.3a2 2 0 0 0-.167.056c-28.781 8.871-77.381-2.022-116.837-28.714 35.129 16.512 76.339 20.711 111.808 5.38l6.121 22.983z"/><path fill="#ffc9a0" d="M231.649 507.325c-.29.094-.585.195-.88.284q-.5.158-1.008.306c-.345.1-.69.195-1.041.295a98 98 0 0 1-1.537.396c-.741.178-1.498.351-2.272.506-.039.012-.078.017-.123.028q-.56.116-1.136.223c-.49.089-.98.178-1.476.256q-.6.095-1.208.19-.675.098-1.359.189a90 90 0 0 1-4.205.434q-1.22.099-2.467.156c-2.539.128-5.151.162-7.835.089-.507-.016-1.025-.027-1.532-.05-1.03-.044-2.066-.094-3.113-.161-.897-.062-1.804-.128-2.706-.206a89 89 0 0 1-2.055-.201c-.529-.05-1.07-.111-1.61-.172a173 173 0 0 1-3.152-.401q-.895-.127-1.799-.262l-1.598-.251c-.546-.094-1.103-.184-1.66-.284q-.017.001-.044-.005a148 148 0 0 1-7.841-1.582c-.368-.083-.73-.167-1.097-.251l-.039-.011c-.908-.217-1.816-.434-2.735-.662-.985-.251-1.977-.507-2.968-.78q-.46-.125-.93-.251a181 181 0 0 1-6.092-1.81c-.251-.078-.507-.161-.758-.239-.412-.134-.83-.267-1.242-.407-.612-.2-1.236-.406-1.86-.618-.473-.161-.946-.328-1.42-.49a198 198 0 0 1-3.286-1.18c-.529-.19-1.058-.39-1.587-.591-.846-.317-1.687-.646-2.539-.985-.429-.168-.847-.335-1.27-.507-.033-.011-.056-.022-.089-.034a188 188 0 0 1-2.317-.952c-.284-.122-.573-.239-.863-.362q-.591-.252-1.192-.512a225 225 0 0 1-3.152-1.393 4 4 0 0 0-.217-.094c-.512-.24-1.025-.474-1.543-.713a186 186 0 0 1-4.889-2.35q-.818-.41-1.626-.819a158 158 0 0 1-1.621-.835c-.479-.245-.952-.496-1.431-.746-.824-.44-1.654-.886-2.484-1.348-1.37-.752-2.74-1.532-4.099-2.322a90 90 0 0 1-1.581-.936c-.418-.245-.841-.501-1.264-.757q-.946-.568-1.883-1.153c-.523-.323-1.041-.652-1.565-.98q-.776-.495-1.553-.997a155 155 0 0 1-3.086-2.044c35.13 16.512 76.34 20.711 111.809 5.38l6.12 22.983z"/><path fill="#231f20" d="M207.937 512.092c-9.874 0-20.767-1.365-32.116-4.082-21.602-5.174-43.934-15.075-62.88-27.89l1.37-2.411c37.468 17.609 77.805 19.564 110.667 5.363l1.481-.641 6.867 25.802-1.231.417a51 51 0 0 1-.958.307l-.194.061c-6.661 2.055-14.458 3.079-23.012 3.079zm-78.768-25.322c34.912 19.218 75.209 27.416 100.799 19.63l-5.363-20.148c-28.625 11.884-62.573 11.951-95.43.518z"/><path fill="#00d4fb" d="M3.193 325.87c1.047-3.703 2.84-8.559 4.834-2.389 1.994 6.171 6.677 13.126 11.3 6.405 5.156-7.507-2.974-17.777-12.158-25.846-6.922-6.081-9.49-20.772-4.756-29.365 1.738-3.152 6.455-2.556 7.452.907 2.69 9.345 3.798 15.293 14.585 18.996 13.02 4.467 34.845 10.364 37.179 38.526 2.16 26.119-29.45 43.255-48.467 30.557-16.557-11.054-11.383-32.762-9.963-37.785z"/><path fill="#2df8ff" d="M35.35 321.639c-.596-.44-1.443-.056-1.543.679-1.359 10.147-6.17 11.562-9.01 20.595-4.695 14.947 13.237 19.157 21.295 13.321 6.004-4.35 6.366-11.835 4.322-17.688-.552-1.581-2.712-1.826-3.559-.384-.924 1.571-1.81 2.406-2.606 2.907-.897.568-2.072-.128-2.016-1.192.507-9.846-2.089-14.718-6.883-18.238"/><path fill="#00bf9a" d="M366.186 443.61c-7.229 20.928-14.129 44.641 34.444 52.092 1.771.273 3.447.997 5.079 1.738 14.045 6.343 24.008 5.931 28.658.997 10.826-11.478 4.906-45.354-.167-53.78-8.916-14.819-41.183-41.166-66.333-4.461"/><path fill="#231f20" d="M423.98 503.554c-5.274 0-11.684-1.62-18.84-4.85a29 29 0 0 1-.836-.39c-1.292-.607-2.517-1.181-3.725-1.225-14.469-.529-25.323-4.155-32.267-10.787a27.1 27.1 0 0 1-5.458-7.313l2.484-1.264a24.2 24.2 0 0 0 4.901 6.561c6.437 6.142 16.684 9.511 30.445 10.018 1.777.067 3.386.824 4.806 1.493.268.122.53.25.797.367 12.43 5.614 22.554 6.104 27.076 1.315 10.281-10.899 2.852-43.773-1.837-51.792-7.346-12.552-20.027-20.945-33.091-21.903-10.158-.741-19.186 3.141-25.44 10.938l-2.172-1.743c6.839-8.538 16.719-12.792 27.812-11.974 13.967 1.025 27.494 9.941 35.291 23.273 2.467 4.216 5.73 14.819 6.928 26.158 1.809 17.213-1.972 25.244-5.469 28.947-2.623 2.779-6.527 4.166-11.405 4.166z"/><path fill="#231f20" d="M361.504 470.497c2.11 3.525 3.825 7.424 5.825 10.971.646 1.214 1.331 2.434 1.949 3.831-1.426-.562-2.64-1.464-3.698-2.511-3.107-3.175-4.917-7.841-4.076-12.285zM381.674 425.472c-1.587 1.56-3.18 2.93-4.595 4.433-2.829 2.946-5.318 6.399-7.646 9.757-1.231 1.715-2.395 3.497-3.815 5.213 1.509-8.543 7.318-17.169 16.061-19.408z"/><path fill="#00bf9a" d="M411.768 463.552c.991-24.291 15.604-33.012 28.129-31.748 14.34 1.448 27.099 16.918 18.795 39.022-6.95 18.494-20.527 32.116-30.033 31.637-12.569-.635-17.743-17.915-16.885-38.911z"/><path fill="#fff0cb" d="M422.506 468.146c1.353-9.428 7.318-13.572 14.457-12.547s12.748 6.828 11.394 16.256-9.149 18.901-16.289 17.882c-7.139-1.025-10.915-12.157-9.562-21.585z"/><path fill="#231f20" d="M411.769 463.552c-1.765-4.612-.779-10.721 2.651-14.341.201 2.562-.1 4.862-.512 7.307-.468 2.434-.975 4.739-2.139 7.034M429.138 502.379c-6.204 2.472-11.489-1.147-12.04-7.719 1.659 1.186 2.695 2.684 4.093 3.949 2.239 2.038 5.134 2.5 7.941 3.77z"/><path fill="#231f20" d="M426.644 503.988c-3.046 0-6.739-.652-8.148-1.147l.925-2.629c1.509.529 6.465 1.281 9.011.875 11.422-1.833 22.515-13.611 28.953-30.752 3.742-9.958 3.324-19.43-1.175-26.681-3.648-5.881-9.802-9.796-16.457-10.464-8.359-.841-19.074 3.046-24.03 16.5a39 39 0 0 0-1.676 6.065l-2.735-.535a43 43 0 0 1 1.794-6.499c5.507-14.952 17.52-19.263 26.926-18.31 7.507.757 14.44 5.157 18.544 11.767 4.962 7.997 5.464 18.344 1.415 29.126-6.789 18.071-18.712 30.534-31.12 32.523-.662.105-1.42.15-2.227.15z"/><path fill="#fff0cb" d="M413.344 444.539c-2.311-10.13 6.549-15.955 13.85-7.345 2.178 2.567 2.317 6.382.206 8.899-1.364 1.626-3.224 2.69-5.073 3.425-3.759 1.492-8.042-.852-8.983-4.973z"/><path fill="#231f20" d="M419.971 451.35a8 8 0 0 1-3.72-.924 8.4 8.4 0 0 1-4.266-5.58c-1.253-5.497.507-10.492 4.388-12.436 4.45-2.227 9.056.54 11.885 3.876 2.634 3.102 2.723 7.702.206 10.693-1.348 1.604-3.186 2.857-5.625 3.82a7.7 7.7 0 0 1-2.868.546zm-5.274-7.122a5.62 5.62 0 0 0 2.846 3.736 5.11 5.11 0 0 0 4.266.257c1.999-.791 3.48-1.783 4.522-3.024 1.654-1.966 1.565-5.024-.201-7.101-2.779-3.274-5.964-4.466-8.515-3.185-2.255 1.13-4.032 4.449-2.918 9.322z"/><path fill="#fff0cb" d="M448.869 435.251c7.39-9.033 17.815-5.764 14.763 6.343-.907 3.609-4.137 6.404-7.601 6.416-2.239.005-4.288-.791-6.048-1.81-3.57-2.072-4.127-7.273-1.12-10.949z"/><path fill="#231f20" d="M456.002 449.402c-2.171 0-4.427-.674-6.71-1.999-1.922-1.114-3.202-2.991-3.62-5.285-.485-2.684.284-5.508 2.122-7.752 4.054-4.957 9.495-6.917 13.532-4.884 1.415.713 5.859 3.714 3.659 12.447-1.069 4.243-4.917 7.456-8.944 7.468h-.033zm-6.059-13.271c-1.297 1.587-1.871 3.642-1.537 5.491.268 1.476 1.075 2.673 2.278 3.375 1.877 1.092 3.62 1.621 5.313 1.621h.028c2.801-.012 5.485-2.317 6.254-5.363 1.141-4.539.317-8.009-2.211-9.284-2.373-1.192-6.421-.367-10.13 4.16z"/><path fill="#fff0cb" d="M428.123 433.162c2.773-12.875 14.925-14.963 18.094-1.236.946 4.093-.858 8.56-4.327 10.358-2.245 1.159-4.712 1.415-7.001 1.298-4.65-.24-7.891-5.179-6.766-10.42"/><path fill="#231f20" d="M435.87 445.002q-.518-.001-1.053-.028c-2.444-.128-4.655-1.325-6.226-3.369-1.837-2.4-2.506-5.586-1.832-8.732 1.504-6.978 5.881-11.695 10.904-11.734h.061c4.651 0 8.332 3.91 9.846 10.475 1.098 4.734-1.074 9.858-5.045 11.907-1.899.98-4.138 1.476-6.666 1.476zm-6.382-11.55c-.507 2.35-.022 4.7 1.32 6.455 1.063 1.386 2.539 2.199 4.16 2.283 2.489.134 4.55-.245 6.293-1.142 2.873-1.487 4.427-5.274 3.608-8.81-1.202-5.212-3.87-8.32-7.133-8.32h-.039c-3.069.022-6.789 2.979-8.204 9.534z"/><path fill="#00bf9a" d="M283.246 360.994c20.149-5.919 67.886-24.074 91.844-45.259 23.958-21.19 42.619 8.092 32.055 31.955-10.587 23.908-45.421 46.245-74.508 48.712"/><path fill="#00a994" d="M340.373 384.712c17.064 16.846 56.191-13.12 66.772-37.028 4.183-9.445 3.787-19.737.29-27.411 2.361 32.022-22.399 60.563-70.938 49.085-6.9 2.969.713 10.381 3.876 15.354"/><path fill="#231f20" d="m366.234 387.747-1.247-2.489a112 112 0 0 0 3.057-1.587c17.793-9.584 31.938-23.245 37.825-36.549 5.535-12.497 2.801-27.962-6.093-34.467-6.744-4.934-15.186-3.475-23.768 4.121-24.392 21.575-74.613 41.177-93.776 46.808l-.786-2.673c18.98-5.575 68.672-24.955 92.719-46.223 9.528-8.426 19.463-9.985 27.26-4.283 10.057 7.357 13.126 23.98 6.989 37.842-6.132 13.85-20.728 28.006-39.05 37.874a109 109 0 0 1-3.135 1.626z"/><path fill="#231f20" d="M379.396 378.358c-6.087 6.594-14.663 11.294-23.78 11.317 3.927-2.172 7.914-3.626 11.812-5.714 3.943-1.955 7.758-4.093 11.962-5.603z"/><path fill="#fff0cb" d="M394.036 315.629c3.72-4.89 5.396-13.583 1.08-15.209-4.667-1.76-12.029 7.111-12.914 11.505-.886 4.394 11.834 3.704 11.834 3.704"/><path fill="#231f20" d="m393.652 317.528-.641-.05c-1.648-.128-9.974-.913-12.095-4.138-.585-.885-.713-1.893-.368-2.907 1.142-3.336 6.059-8.626 10.687-10.447 2.144-.847 4.076-.863 5.586-.056 1.442.774 2.35 2.15 2.623 3.982.634 4.227-2.217 10.013-5.341 13.165l-.451.457zm.679-15.415c-.718 0-1.47.223-2.071.457-3.782 1.492-8.153 6.059-9.072 8.76-.067.195-.056.312.055.473.947 1.437 5.892 2.495 9.328 2.84 2.679-2.973 4.545-7.568 4.127-10.325-.145-.952-.529-1.587-1.186-1.938-.357-.189-.763-.267-1.181-.267"/><path fill="#fff0cb" d="M398.487 323.992a3.99 3.99 0 0 0 4.41.452c6.477-3.442 12.72-10.654 10.281-15.159-2.963-5.469-16.602-1.036-20.795 3.23-3.102 3.157 2.818 8.765 6.109 11.472z"/><path fill="#231f20" d="M400.981 326.404a4.9 4.9 0 0 1-3.079-1.091c-3.436-2.779-7.574-6.845-7.775-10.403-.072-1.287.362-2.451 1.265-3.364 3.363-3.419 12.09-6.883 17.876-6.07 3.074.434 4.489 1.949 5.14 3.146.819 1.51.925 3.342.312 5.308-1.331 4.265-6.098 9.183-11.589 11.962a4.7 4.7 0 0 1-2.15.512m6.444-18.266c-4.801 0-11.484 2.751-14.051 5.357-.351.362-.501.746-.468 1.253.112 1.927 2.635 5.062 6.75 8.393.64.518 1.509.623 2.216.261 4.717-2.389 9.095-6.822 10.186-10.308.39-1.242.357-2.305-.106-3.146-.501-.925-1.537-1.498-3.079-1.715a10 10 0 0 0-1.454-.095z"/><path fill="#fff0cb" d="M403.788 344.32a3.8 3.8 0 0 0 2.518.513c3.837-.602 10.842-3.659 9.974-8.588-.886-5.034-9.2-5.763-12.642-5.507-.651.05-1.292.261-1.815.657-4.116 3.102-3.074 9.901 1.96 12.925z"/><path fill="#231f20" d="M405.748 346.269a5.2 5.2 0 0 1-2.684-.751c-3.013-1.81-4.99-5.012-5.168-8.354-.145-2.784.98-5.296 3.085-6.883a4.8 4.8 0 0 1 2.545-.93c3.553-.267 13.021.412 14.112 6.655.295 1.665-.111 3.325-1.164 4.8-2.127 2.974-6.655 4.89-9.968 5.408a5 5 0 0 1-.769.061zm-.841-14.184c-.428 0-.818.017-1.169.039-.418.034-.791.162-1.081.379-1.375 1.036-2.077 2.64-1.977 4.511.129 2.428 1.593 4.767 3.821 6.109a2.37 2.37 0 0 0 1.581.329c2.774-.435 6.566-2.083 8.137-4.277.623-.875.852-1.76.685-2.696-.602-3.425-6.455-4.399-9.997-4.399z"/><path fill="#00bf9a" d="M182.532 466.465c-8.994-50.744 28.675-99.662 84.064-109.67 64.484-11.65 107.638 23.351 116.637 74.095 8.994 50.745-34.455 83.223-85.45 90.736-55.685 8.203-106.251-4.416-115.245-55.161z"/><path fill="#00a994" d="M297.777 521.626c-55.684 8.203-106.251-4.41-115.245-55.155a84 84 0 0 1-.891-6.46c11.845 45.231 60.468 56.336 113.803 48.467 48.996-7.223 91.053-37.329 86.352-84.365a107 107 0 0 1 1.432 6.783c8.994 50.745-34.456 83.223-85.451 90.73"/><path fill="#00a994" d="M246.496 522.457c-32.813-4.807-57.89-21.681-63.966-55.985-6.599-37.224 11.913-73.461 44.107-94.083-51.263 76.479-39.334 115.612 19.859 150.068"/><path fill="#fff0cb" d="M381.929 462.049a5 5 0 0 1-.106.312c-12.029 36.839-55.684 55.762-97.68 42.274-42.118-13.521-66.616-54.515-54.726-91.56 11.895-37.044 55.678-56.113 97.791-42.591 25.623 8.231 44.725 26.625 53.078 48.116 5.38 13.833 6.299 28.942 1.643 43.449"/><path fill="#ffc9a0" d="M381.823 462.361c-9.383 30.635-40.197 51.686-83.34 45.632 47.682-7.997 87.912-37.819 83.313-83.88.545 2.228.785 4.545 1.431 6.783 3.402 11.762 2.216 22.248-1.404 31.465"/><path fill="#231f20" d="M380.208 467.145c-.501 8.342-8.275 18.689-14.819 23.595 4.16-8.253 10.18-15.621 14.819-23.595M377.875 411.61c5.045 8.716 8.899 21.964 7.056 32-2.161-10.615-5.447-21.29-7.056-32"/><path fill="#231f20" d="M268.02 525.318c-17.542 0-33.102-2.645-45.9-7.874-22.866-9.35-36.649-26.414-40.959-50.728-4.417-24.91 2.032-50.199 18.154-71.199 16.073-20.94 39.88-35.174 67.034-40.08 29.717-5.369 56.581-1.136 77.699 12.246 19.603 12.424 33.559 32.634 39.3 56.904.173.724.307 1.208.424 1.648.2.741.378 1.387.612 2.707l-2.74.484c-.211-1.203-.356-1.732-.557-2.467-.122-.457-.267-.974-.445-1.737-5.575-23.557-19.102-43.16-38.081-55.189-20.516-13.004-46.696-17.102-75.71-11.862-26.47 4.784-49.665 18.645-65.319 39.039-15.643 20.377-21.897 44.886-17.62 69.022 4.132 23.311 17.347 39.679 39.272 48.639 19.23 7.863 44.959 9.724 74.402 5.385 30.468-4.488 56.447-17.681 71.266-36.193a69 69 0 0 0 4.572-6.426l2.362 1.481a72 72 0 0 1-4.756 6.689c-15.254 19.057-41.873 32.617-73.032 37.206-10.481 1.543-20.511 2.311-29.961 2.311z"/><path fill="#00bf9a" d="M188.172 484.553c13.148 26.675 32.979 45.482 85.099 45.482 1.899 0 3.765.506 5.592 1.03 15.682 4.505 26.085 2.422 30.256-3.653 9.701-14.129-1.459-49.587-8.014-57.806-11.528-14.463-52.204-30.986-70.91 1.938"/><path fill="#00a994" d="M258.648 529.489c-41.383-3.275-58.641-20.912-70.481-44.936l12.614-3.904c9.144 18.695 28.045 34.951 57.867 48.84"/><path fill="#231f20" d="M246.43 455.795c-2.835 2.617-5.87 4.717-8.515 7.407-1.287 1.281-2.49 2.667-3.732 4.093-1.247 1.42-2.5 2.89-3.987 4.238 1.982-7.897 8.075-14.335 16.234-15.738"/><path fill="#231f20" d="M294.023 534.875c-4.544 0-9.779-.819-15.543-2.473-1.854-.535-3.53-.975-5.207-.975-54.208 0-74.034-19.151-87.115-47.915l2.533-1.153c7.235 15.899 15.443 26.169 26.62 33.291 13.711 8.738 32.674 12.987 57.962 12.987 2.039 0 3.988.513 5.976 1.086 13.911 3.993 24.648 2.835 28.725-3.107 9.244-13.472-3.364-47.699-9.479-55.562-8.114-10.442-20.338-16.718-33.536-17.219-11.077-.412-21.658 3.397-27.6 9.951l-2.066-1.871c6.577-7.262 17.709-11.327 29.772-10.865 14.022.529 27.009 7.195 35.63 18.289 3.202 4.121 8.17 14.964 11.071 26.948 4.4 18.155 1.615 27.366-1.498 31.905-3.035 4.422-8.693 6.677-16.245 6.677z"/><path fill="#00bf9a" d="M276.592 499.021c-5.814-23.607 5.792-36.053 18.172-38.326 14.178-2.6 30.735 8.699 28.919 32.245-1.52 19.697-10.77 36.566-20.037 38.749-12.252 2.89-22.031-12.269-27.054-32.668"/><path fill="#fff0cb" d="M288.179 500.441c-1.325-9.428 3.247-15.075 10.387-16.077 7.139-1.008 14.145 3.007 15.47 12.435s-3.525 20.706-10.664 21.708c-7.14 1.008-13.867-8.637-15.198-18.066z"/><path fill="#231f20" d="M276.593 499.021c-2.98-3.937-3.737-10.08-1.448-14.513.908 2.406 1.258 4.695 1.548 7.162.234 2.467.384 4.823-.095 7.351zM304.091 531.467c-5.268 4.104-11.355 2.099-13.711-4.06 1.927.679 3.336 1.826 5.034 2.651 2.718 1.336 5.631.969 8.677 1.409"/><path fill="#231f20" d="M294.428 534.891c-.162 0-.306 0-.44-.011l.156-2.779c1.593.089 6.566-.568 8.899-1.671 10.459-4.94 17.832-19.347 19.241-37.596.819-10.604-2.222-19.592-8.56-25.3-5.14-4.634-12.14-6.677-18.723-5.469-8.27 1.52-17.469 8.237-18.483 22.543a39 39 0 0 0 .084 6.293l-2.774.251c-.206-2.322-.239-4.589-.083-6.739 1.125-15.893 11.461-23.378 20.761-25.082 7.423-1.359 15.309.935 21.09 6.137 6.994 6.298 10.358 16.094 9.467 27.583-1.487 19.246-9.467 34.539-20.828 39.902-2.701 1.275-7.619 1.943-9.807 1.943z"/><path fill="#fff0cb" d="M272.804 480.314c-5.045-9.083 1.849-17.147 11.255-10.915 2.807 1.86 4.004 5.486 2.673 8.487-.858 1.944-2.35 3.481-3.92 4.7-3.191 2.479-7.959 1.42-10.014-2.277z"/><path fill="#231f20" d="M278.858 485.327q-.81 0-1.621-.167a8.41 8.41 0 0 1-5.652-4.171c-2.734-4.929-2.434-10.22.746-13.16 3.653-3.38 8.849-2.005 12.497.412 3.392 2.244 4.756 6.638 3.18 10.214-.847 1.915-2.267 3.631-4.338 5.24a7.83 7.83 0 0 1-4.812 1.637zm-1.158-16.746c-1.348 0-2.54.429-3.475 1.292-1.849 1.71-2.635 5.396-.206 9.768a5.62 5.62 0 0 0 3.775 2.795c1.482.301 3.002-.038 4.166-.941 1.699-1.32 2.846-2.684 3.503-4.165 1.041-2.35.106-5.257-2.172-6.767-1.983-1.314-3.915-1.977-5.591-1.977z"/><path fill="#fff0cb" d="M304.336 461.503c4.584-10.737 15.504-10.497 15.95 1.983.134 3.72-2.189 7.306-5.513 8.281-2.15.629-4.339.434-6.31-.056-4.004-.997-5.992-5.836-4.127-10.208"/><path fill="#231f20" d="M311.9 473.548q-1.797.002-3.776-.49c-2.155-.534-3.91-1.977-4.951-4.065-1.214-2.445-1.259-5.374-.123-8.036 2.512-5.886 7.19-9.289 11.64-8.459 1.559.289 6.66 1.938 6.983 10.937.156 4.372-2.645 8.532-6.51 9.668a11.5 11.5 0 0 1-3.263.451zm-6.282-11.499c-.808 1.887-.786 4.02.055 5.702.669 1.342 1.782 2.272 3.13 2.606 2.122.524 3.943.552 5.58.067 2.685-.791 4.628-3.753 4.517-6.894-.167-4.678-1.927-7.78-4.712-8.298-2.606-.484-6.27 1.431-8.57 6.817"/><path fill="#fff0cb" d="M283.838 465.273c-.925-13.142 10.163-18.528 17.035-6.226 2.05 3.665 1.565 8.46-1.269 11.155-1.833 1.738-4.133 2.673-6.366 3.197-4.533 1.063-9.021-2.774-9.4-8.126"/><path fill="#231f20" d="M291.695 474.969c-1.771 0-3.519-.585-5.057-1.721-2.433-1.793-3.965-4.667-4.187-7.874-.502-7.123 2.394-12.87 7.2-14.307 1.682-.501 7.546-1.454 12.436 7.301 2.372 4.243 1.715 9.762-1.526 12.842-1.76 1.671-4.121 2.862-7.006 3.542a8 8 0 0 1-1.86.217m.184-21.446c-.485 0-.964.067-1.437.211-2.94.875-5.691 4.756-5.224 11.439.167 2.395 1.287 4.522 3.063 5.831 1.409 1.036 3.052 1.403 4.628 1.036 2.434-.568 4.305-1.504 5.725-2.852 2.345-2.227 2.785-6.298 1.014-9.467-2.228-3.987-5.046-6.198-7.775-6.198z"/><path fill="#00bf9a" d="M226.415 354.552c-19.213 9.127-67.524 27.633-99.913 27.8-32.395.162-26.731 34.873-2.645 45.766 24.13 10.915 74.229 1.069 96.388-19.658"/><path fill="#00a994" d="M200.514 421.223c-25.005 14.068-52.527 17.81-76.657 6.889-9.534-4.316-16.178-12.352-18.717-20.51 3.352 4.36 7.952 8.169 13.543 10.698 24.12 10.898 65.553 10.664 81.831 2.923"/><path fill="#231f20" d="M152.298 434.801c-10.988 0-21.068-1.821-29.015-5.419-13.978-6.32-22.872-20.939-20.249-33.28 2.038-9.562 10.587-15.086 23.462-15.147 32.518-.167 83.129-19.069 101.228-27.662l1.197 2.518c-18.272 8.682-69.428 27.767-102.408 27.934-11.617.061-18.985 4.655-20.75 12.942-2.328 10.921 6.048 24.453 18.673 30.162 13.427 6.075 33.336 6.849 53.245 2.077 1.125-.268 2.261-.563 3.38-.863l.73 2.684c-1.147.312-2.311.612-3.464.885-8.838 2.117-17.693 3.169-26.029 3.169"/><path fill="#231f20" d="M168.739 432.105c3.809-1.732 7.907-2.751 11.884-3.91 4.076-1.013 7.696-2.717 11.862-3.631-1.621 1.432-3.258 2.724-5.135 3.826-5.63 3.141-12.224 4.216-18.611 3.709z"/><path fill="#fff0cb" d="M112.122 395.059c-6.109-1.181-13.243-6.616-11.076-10.759 2.333-4.478 13.883-2.746 17.52-.023 3.631 2.724-6.438 10.782-6.438 10.782z"/><path fill="#231f20" d="m113.688 396.218-.641-.039c-4.488-.273-10.542-2.718-12.909-6.332-1.024-1.565-1.27-3.213-.701-4.761.596-1.626 2.06-2.907 4.249-3.715 4.722-1.748 12.001-1.069 15.109.68.941.529 1.52 1.37 1.676 2.428.568 3.859-5.179 10.068-6.338 11.277zm-3.381-13.093c-2.016 0-4.054.262-5.658.852-.974.362-2.216 1.008-2.6 2.061-.262.713-.123 1.459.412 2.278 1.581 2.411 6.014 4.589 10.107 5.023 2.373-2.584 5.397-6.733 5.141-8.459-.028-.206-.101-.301-.29-.412-1.476-.83-4.277-1.348-7.117-1.348z"/><path fill="#fff0cb" d="M114.407 404.383a4.04 4.04 0 0 1-3.024 3.313c-7.212 1.771-16.796.535-17.993-4.511-1.454-6.131 11.84-11.984 17.887-11.594 4.472.289 3.787 8.52 3.13 12.786z"/><path fill="#231f20" d="M104.933 409.863c-3.72 0-7.207-.741-9.568-2.15-1.782-1.063-2.935-2.517-3.336-4.204-.317-1.337-.273-3.436 1.755-5.831 3.82-4.522 12.736-7.78 17.581-7.474a4.36 4.36 0 0 1 3.213 1.682c2.244 2.818 1.86 8.677 1.142 13.093-.312 1.91-1.704 3.464-3.542 3.954a28.4 28.4 0 0 1-7.245.936zm5.73-16.896c-4.221 0-11.711 2.912-14.752 6.51-1.025 1.208-1.415 2.35-1.17 3.391.229.953.92 1.782 2.055 2.462 3.18 1.904 9.484 2.294 14.664.913.785-.211 1.375-.88 1.509-1.71.863-5.301.646-9.378-.574-10.909a1.57 1.57 0 0 0-1.214-.635 8 8 0 0 0-.523-.017z"/><path fill="#fff0cb" d="M124.124 423.311a3.8 3.8 0 0 1-1.554 2.083c-3.302 2.133-10.659 4.55-13.332.245s3.058-10.564 5.831-12.686c.529-.406 1.153-.674 1.81-.729 5.201-.435 8.999 5.401 7.245 11.087"/><path fill="#231f20" d="M114.228 429.415a9.3 9.3 0 0 1-2.066-.217c-1.788-.401-3.202-1.381-4.104-2.829-3.381-5.447 3.308-12.33 6.164-14.53a4.9 4.9 0 0 1 2.546-1.013c2.656-.223 5.19.913 6.955 3.107 2.116 2.635 2.779 6.382 1.732 9.78a5.2 5.2 0 0 1-2.127 2.84c-2.328 1.503-5.903 2.857-9.1 2.857zm3.202-15.827q-.217 0-.434.017c-.368.028-.741.184-1.081.445-2.595 1.994-7.579 7.491-5.496 10.849.512.824 1.281 1.342 2.35 1.581 2.668.596 6.649-.718 9.044-2.261.457-.295.808-.768.98-1.325.78-2.523.306-5.285-1.242-7.212-1.097-1.364-2.545-2.094-4.121-2.094"/><path fill="#00d4fb" d="M94.124 248.183c-.874-2.389.652-5.207 3.17-5.881 15.692-4.182 40.647 2.228 55.851 14.513-18.679 4.979-32.239 16.908-37.691 24.459-.284.395-14.998-15.833-21.324-33.091z"/><path fill="#2df8ff" d="M97.149 252.538c5.307 12.642 15.693 24.966 18.767 28.101-.167.217-.323.423-.467.635-.284.395-14.998-15.827-21.33-33.091-.868-2.389.657-5.212 3.17-5.881 15.693-4.182 40.653 2.228 55.851 14.513a71 71 0 0 0-9.523 3.28c-13.394-9.428-32.239-14.797-44.112-12.329-2.078.428-3.22 2.717-2.356 4.772"/><path fill="#231f20" d="m116.087 282.772-.852-.106c-.462-.061-.857-.117-3.609-3.285-1.86-2.144-3.954-4.801-5.903-7.485-4.043-5.564-9.567-14.112-12.909-23.228-.54-1.482-.412-3.169.351-4.639.791-1.521 2.161-2.634 3.765-3.063 16.083-4.288 41.695 2.339 57.088 14.774l2.133 1.721-2.646.707c-19.202 5.118-32.244 17.454-36.922 23.93l-.49.68zm-20.66-35.068c5.29 14.429 16.405 27.973 19.808 31.543 5.28-6.672 17.47-17.637 34.862-23.006-14.919-10.87-37.847-16.484-52.454-12.591-.847.228-1.582.83-2.016 1.66-.407.779-.48 1.648-.206 2.394z"/><path fill="#00d4fb" d="M130.945 168.147c19.57 6.744 48.283 23.512 60.847 40.408-22.371 5.753-39.039 14.942-46.963 26.241-.396.568-22.889-24.509-19.341-63.152.245-2.656 2.94-4.372 5.463-3.503z"/><path fill="#2df8ff" d="M129.113 183.706c-1.876 24.203 8.499 42.102 13.695 49.052-5.525-6.694-20.233-29.31-17.326-61.109.246-2.662 2.941-4.371 5.464-3.503 19.564 6.739 48.283 23.513 60.846 40.415a152 152 0 0 0-10.581 3.118c-11.405-12.97-32.79-25.461-47.665-30.796-2.077-.747-4.265.635-4.433 2.818z"/><path fill="#231f20" d="m145.354 236.478-1.058-.368c-1.304-.479-7.19-7.473-12.202-18.272-4.667-10.057-9.84-26.257-7.997-46.317a5.46 5.46 0 0 1 2.489-4.104 5.5 5.5 0 0 1 4.812-.585c20.555 7.084 49.185 24.32 61.509 40.899l1.237 1.665-2.005.518c-22.154 5.697-38.549 14.824-46.173 25.695l-.612.874zm-15.76-67.162c-.524 0-1.042.15-1.493.445a2.68 2.68 0 0 0-1.225 2.022c-1.749 19.057 3.057 34.505 7.395 44.106 3.927 8.693 8.382 14.669 10.348 16.863 8.08-10.514 23.857-19.319 44.791-24.994-12.619-15.632-39.434-31.576-58.909-38.286a2.8 2.8 0 0 0-.902-.151z"/><path fill="#fff0cb" d="M298.889 166.397c6.426-4.628 14.902-.534 17.408 9.896 3.921 16.329 3.47 37.363-4.422 41.924-17.414 10.057-35.641-7.769-37.546-19.999-1.693-10.887 10.425-21.641 24.56-31.821"/><path fill="#ffc9a0" d="M311.881 218.217c-9.456 5.463-19.151 2.701-26.352-2.924 6.064.757 12.976-.585 19.993-5.396 7.3-5.007 11.021-16.785 11.861-28.335 2.662 15.292 1.565 32.578-5.502 36.655"/><path fill="#231f20" d="M301.196 222.577c-4.166 0-7.847-1.192-10.693-2.551-8.737-4.182-16.278-13.466-17.542-21.596-1.854-11.912 10.976-22.978 25.122-33.164 3.096-2.233 6.705-2.751 10.158-1.47 4.533 1.682 7.963 6.121 9.417 12.174 2.044 8.509 2.862 17.915 2.255 25.807-.495 6.404-2.166 14.663-7.329 17.642-3.998 2.311-7.863 3.158-11.383 3.158zm-1.493-55.055c-12.775 9.205-25.623 20.02-23.997 30.479.964 6.209 6.9 15.164 15.995 19.514 4.639 2.222 11.789 3.937 19.48-.507 5.708-3.297 8.582-20.316 3.759-40.392-1.214-5.062-4.088-8.882-7.68-10.213-2.556-.947-5.24-.552-7.562 1.119z"/><path fill="#00bf9a" d="M130.412 354.312c-42.107-77.766-1.771-158.365 73.99-174.076 91.749-19.023 130.888 44.68 136.746 88.648 48.84 30.234 12.33 97.696-79.297 102.196-7.601.373-15.142 1.453-22.515 3.336-42.631 10.865-91.605 11.884-108.924-20.099z"/><path fill="#00a994" d="M223.875 377.841c-38.404 7.212-78.217 4.644-93.47-23.524-7.658-14.139-12.586-28.374-15.07-42.296 19.425 61.22 67.146 65.168 108.54 65.82"/><path fill="#231f20" d="M189.688 382.674c-37.112 0-53.379-14.54-60.501-27.7-10.431-19.257-16.167-39.166-17.058-59.17-.847-18.94 2.656-37.006 10.414-53.696 15.136-32.579 44.875-55.623 81.58-63.236 36.828-7.635 68.148-2.823 93.091 14.301 23.251 15.966 40.025 43.06 44.864 72.475.245 1.503 1.08 2.84 2.289 3.664 14.284 9.791 21.279 23.49 19.692 38.582-2.244 21.29-21.329 41.807-49.809 53.546l-1.058-2.573c27.533-11.344 45.961-30.986 48.099-51.262 1.476-14.029-5.09-26.809-18.495-35.993-1.826-1.253-3.09-3.263-3.458-5.513-4.717-28.68-21.051-55.088-43.694-70.631-24.292-16.68-54.894-21.346-90.947-13.867-35.837 7.429-64.857 29.911-79.62 61.682-7.563 16.278-10.982 33.909-10.158 52.398.874 19.581 6.499 39.084 16.729 57.968 7.735 14.29 27.026 30.284 74.987 25.317l.284 2.767c-6.188.641-11.918.936-17.22.936z"/><path fill="#231f20" d="M189.37 381.261c11.272-1.961 23.685-2.824 35.035-4.45-9.663 5.224-24.309 6.377-35.035 4.45M324.235 355.204c-5.246 5.307-14.39 8.62-21.808 8.598 3.375-2.038 7.034-3.48 10.676-4.912 3.675-1.403 7.267-2.684 11.127-3.686zM175.577 255.34c1.409-8.693 9.188-16.763 18.405-16.345 2.996.134 5.87.98 8.348 2.439-2.857-.356-5.614-.534-8.27-.25-8.348.829-14.262 7.328-18.489 14.156zM310.105 224.672c-7.412-4.856-17.492-7.268-24.654-.713 4.366-10.236 19.787-7.88 24.654.713M249.973 294.11c2.4-3.157 6.527-3.419 8.654-.245.601.947 1.03 2.183.863 3.949l-.25.367c-2.93-1.615-6.093-2.779-9.323-3.631l.061-.44zM283.42 289.845c-1.871-3.492-.317-7.312 3.503-7.735 1.142-.084 2.495.105 3.871 1.247l.167.412c-2.841 1.537-5.063 3.943-7.179 6.332z"/><path fill="#ffb5b6" d="M181.471 343.256c11.009-1.183 19.361-7.471 18.655-14.046s-10.204-10.946-21.213-9.764-19.361 7.471-18.655 14.046 10.203 10.946 21.213 9.764M338.485 301.896c8.336-3.173 13.519-9.882 11.577-14.984s-10.274-6.666-18.61-3.492c-8.336 3.173-13.519 9.881-11.577 14.983s10.274 6.666 18.61 3.493"/><path fill="#231f20" d="M305.224 290.397c1.88 8.196-.52 17.21-5.809 23.798-10.792 13.529-30.396 17.663-46.573 13.201-8.128-2.254-15.575-6.634-21.272-12.537 16.49 11.066 38.505 13.826 56.077 4.134 10.58-5.719 17.591-16.364 17.571-28.597zM179.469 291.844c8.855 8.62 24.61 9.116 34.2 1.826 3.419-2.606 5.808-6.17 7.796-10.108.117 2.323-.245 4.69-1.041 6.973-4.272 12.302-20.032 16.646-31.237 11.461-4.338-1.949-8.403-5.513-9.718-10.152M289.029 264.584c5.363 4.243 12.296 7.028 18.901 4.744 6.616-2.088 10.698-8.554 13.572-14.696a18.88 18.88 0 0 1-2.1 11.756c-6.861 12.764-25.472 11.834-30.373-1.804"/><path fill="#00d4fb" d="M234.407 220.444c-3.14 10.252-3.853 24.988 10.576 34.182 2.578 1.643 5.914.59 7.184-2.322 6.449-14.797 1.815-27.901-10.581-35.046-2.785-1.604-6.193-.044-7.184 3.186z"/><path fill="#2df8ff" d="M253.643 248.328c.707-8.381-3.743-17.849-11.005-21.368-1.865-.902-4.099-.251-5.268 1.559-2.445 3.781-3.269 9.824-2.083 15.755-4.021-7.93-3.007-16.902-.885-23.83.985-3.23 4.399-4.784 7.184-3.18 11.271 6.494 16.122 17.927 12.051 31.07z"/><path fill="#231f20" d="M247.618 256.793c-1.181 0-2.35-.34-3.381-.992-16.1-10.258-13.906-26.809-11.16-35.764.624-2.038 2.061-3.636 3.943-4.377a6.06 6.06 0 0 1 5.263.396c13.41 7.724 17.687 21.83 11.16 36.805-.78 1.782-2.25 3.119-4.038 3.664a6.1 6.1 0 0 1-1.793.268zm-11.879-35.943c-2.512 8.198-4.55 23.334 9.996 32.601.88.557 1.894.707 2.863.412 1.024-.312 1.838-1.063 2.294-2.116 6.004-13.772 2.267-26.219-9.996-33.28a3.24 3.24 0 0 0-2.851-.217c-1.086.429-1.927 1.375-2.3 2.6z"/><path fill="#fff0cb" d="M105.854 207.224c-5.675-2.217-11.812 1.927-11.968 8.014-.568 22.075 19.463 42.413 29.983 45.726 25.584 8.059 39.88-24.999 32.59-38.988-5.112-9.813-29.332-6.432-50.605-14.752"/><path fill="#ffc9a0" d="M123.875 260.96c-10.526-3.314-30.552-23.652-29.99-45.721a8.76 8.76 0 0 1 3.063-6.466 7 7 0 0 0-.167 2.021c1.27 19.258 20.656 34.356 30.886 38.115 15.098 5.546 25.473-.891 29.51-9.679-3.698 13.644-15.883 27.221-33.302 21.735z"/><path fill="#231f20" d="M131.681 263.61c-2.673 0-5.43-.434-8.231-1.32-10.96-3.453-31.543-24.476-30.958-47.091a10.24 10.24 0 0 1 4.578-8.27c2.796-1.855 6.181-2.222 9.289-1.003 9.038 3.537 18.645 4.929 27.121 6.154 11.723 1.699 20.978 3.041 24.214 9.25 4.388 8.421 1.453 23.017-6.538 32.545-5.38 6.416-12.113 9.729-19.475 9.729zm-29.02-55.601a7.3 7.3 0 0 0-4.054 1.242 7.36 7.36 0 0 0-3.33 6.026c-.552 21.335 18.739 41.127 29.008 44.362 12.676 3.993 20.94-3.013 24.738-7.546 7.329-8.743 10.113-21.964 6.198-29.471-2.573-4.945-11.645-6.259-22.142-7.78-8.626-1.247-18.4-2.667-27.734-6.32a7.3 7.3 0 0 0-2.684-.513"/><path fill="#00d4fb" d="M256.35 149.74c.913-.696 2.21-.523 2.951.351 6.666 7.858 14.981 27.11 9.317 33.214-4.956 5.346-24.303 4.126-27.539-2.456-3.764-7.658 5.063-23.357 15.271-31.109"/><path fill="#2df8ff" d="M241.073 180.843c1.688 3.43 7.741 5.402 13.856 5.753-4.689-.574-8.977-2.412-10.252-5.43-3.214-7.607 4.705-23.39 13.744-31.242q.182-.16.39-.262c-.741-.479-1.727-.479-2.456.078-10.208 7.752-19.041 23.451-15.276 31.108z"/><path fill="#231f20" d="M256.856 188.038a36 36 0 0 1-5.101-.362c-6.076-.891-10.419-3.158-11.929-6.215-4.148-8.443 5.185-24.866 15.683-32.829 1.498-1.136 3.625-.891 4.856.557 3.609 4.249 7.351 11.204 9.54 17.72 1.921 5.714 3.43 13.355-.268 17.342-2.517 2.712-7.718 3.787-12.781 3.787m.769-37.335a.76.76 0 0 0-.44.145c-10.375 7.875-18.016 22.978-14.864 29.388 1.064 2.161 4.829 3.954 9.83 4.689 6.554.958 13.193-.139 15.437-2.562 4.644-5.012-2.445-23.223-9.356-31.364a.81.81 0 0 0-.613-.29z"/><path fill="#00d4fb" d="M181.691 187.287c-.707-10.431-.501-38.833 7.696-52.978.93-1.604 2.885-2.311 4.634-1.704 13.621 4.689 34.578 26.764 43.17 43.538 3.771 7.362 2.601 26.28-1.821 34.383-.484.891-14.184-10.77-28.279-16.406-16.891-6.75-25.328-5.625-25.411-6.839z"/><path fill="#2df8ff" d="M239.396 192.304s-.005.028-.005.039c-7.34-22.427-29.705-48.684-50.205-57.678l.201-.351c.93-1.604 2.884-2.311 4.639-1.704 13.621 4.689 34.577 26.764 43.17 43.538 1.816 3.542 2.484 9.757 2.2 16.156"/><path fill="#231f20" d="M235.254 211.979c-.83 0-1.888-.707-5.58-3.252-5.285-3.637-14.128-9.724-23.089-13.304-10.926-4.366-18.149-5.374-22.031-5.915-2.673-.373-4.143-.579-4.249-2.127-.679-10.002-.585-39.161 7.88-53.769 1.259-2.166 3.904-3.146 6.293-2.322 6.638 2.283 15.17 8.532 24.014 17.581 8.409 8.605 15.676 18.317 19.942 26.642 3.91 7.63 2.913 26.977-1.838 35.687-.2.367-.551.634-.958.729q-.19.05-.389.05zm-52.22-25.522a42 42 0 0 0 1.904.289c3.999.557 11.445 1.593 22.683 6.087 9.244 3.698 18.255 9.896 23.635 13.599 1.286.886 2.6 1.788 3.452 2.328 3.776-8.314 4.556-25.533 1.253-31.977-8.871-17.319-29.866-38.548-42.385-42.859-1.136-.389-2.389.067-2.98 1.086-7.924 13.667-8.169 41.06-7.557 51.447z"/><path fill="#00d4fb" d="M157.476 170.379c-1.348-.106-2.523.902-2.696 2.244-1.548 12.096 2.584 36.572 12.107 39.011 8.337 2.138 26.687-11.483 25.662-20.11-1.191-10.03-20.003-19.981-35.079-21.14z"/><path fill="#2df8ff" d="M192.557 191.518c.534 4.495-4.188 10.342-10.013 14.608 4.266-3.581 7.334-8.159 6.655-11.979-1.704-9.623-19.664-20.243-33.654-22.259a2.2 2.2 0 0 0-.551-.011c.423-.953 1.398-1.582 2.478-1.498 15.075 1.158 33.893 11.11 35.085 21.139"/><path fill="#231f20" d="M168.809 213.244a9 9 0 0 1-2.266-.268c-10.431-2.673-14.764-27.895-13.143-40.536.267-2.094 2.105-3.615 4.182-3.453 15.404 1.186 35.057 11.422 36.355 22.365.467 3.943-2.373 8.921-7.791 13.666-4.817 4.221-11.901 8.226-17.337 8.226m-11.527-41.484c-.563 0-1.047.44-1.125 1.036-.78 6.098-.028 15.181 1.871 22.605 2.177 8.515 5.535 13.939 9.2 14.88 3.826.98 11.171-2.183 17.08-7.351 4.578-4.01 7.206-8.315 6.861-11.244-.496-4.188-4.739-8.871-11.645-12.859-6.711-3.87-14.992-6.51-22.159-7.061h-.083z"/><path fill="#12c9f8" d="M100.328 409.461c-2.021 1.286-5.101 4.227-7.05 6.972-1.754-1.375-3.537-2.968-4.75-4.076.105-.863.116-.908.217-1.66a220 220 0 0 1 7.468-2.528c1.815.897 4.115 1.292 4.115 1.292M126.197 430.544c-1.849 1.726-3.046 3.135-4.728 5.257-1.838-1.092-3.453-1.938-5.269-3.019-.105-1.537-.167-2.099-.289-3.519 1.581-.19 3.386-.774 4.717-1.337 1.275.791 3.948 2.094 5.569 2.618M164.643 434.07c-2.506 3.453-4.772 8.142-6.688 13.928-2.144-.373-4.466-.829-7.479-1.191-.914-5.185-1.56-8.476-2.467-12.096 6.332 0 9.562.15 16.634-.641M182.33 430.573c-.066.345-.846 3.402-.946 4.834a23 23 0 0 0-3.03-3.782c.925-.234 1.61-.373 3.976-1.052"/><path fill="#96efff" d="M496.216 502.396c-30 44.363-90.24 55.155-137.499 63.927-3.475.646-4.249 5.279-1.175 7.016 2.885 1.627 6.677 3.682 11.628 6.232 5.369 2.762 6.572 9.969 2.306 14.246-13.133 13.172-61.125 19.9-106.79 20.174-11.19.067-22.239-.253-32.602-.961-54.476-3.72-57.94-19.353-36.109-26.286 2.745-.874 3.046-4.606.478-5.909-14.089-7.134-66.85-7.646-97.774-10.876-24.916-2.601-48.684-21.017-18.178-35.953 3.615-1.771 3.57-6.923-.055-8.677-50.723-24.542-68.939-67.824-18.918-101.361 2.779 5.48 7.022 11.962 12.196 19.235 7.613 10.103 16.417 20.021 27.644 26.626 46.362 21.335 75.7 32.294 98.087 25.595 32.44 14.953 84.532 29.922 123.654 10.035 1.894-8.041 2.066-14.151 2.066-14.151s18.946 6.215 38.499-10.776c16.84 9.54 81.513 11.216 98.331-16.974.218-.724 1.777-7.635-.885-15.922.044-.027 2.406-1.681 3.597-4.911.229-.624 2.239-7.017-1.147-11.3-.629-.791-1.476-1.392-2.406-1.782-6.393-2.701-11.266 2.417-12.262 3.575-.173-.1-1.231-.674-1.231-.674s-.613-6.788-6.121-10.235c-1.214-.758-6.276-2.924-10.948 2.472-1.493 1.727-3.225 4.996-3.798 7.997-.067.045-.301.123-.685.34-.407.234-.719.423-.719.423s-8.203-8.013-19.447-11.232c-12.803-3.659-22.704 1.164-22.877 1.242-.596-2.145-2.773-12.525-10.113-25.362-.869-1.514-4.589-7.573-6.995-10.514-.022-.028 2.556-1.064 5.508-2.784 14.117 1.481 27.037 3.519 38.27 6.148 72.535 16.969 104.604 47.276 98.713 82.775-1.531 9.226-5.627 18.803-12.243 28.588z"/><path fill="#72e9ff" d="M358.717 566.322c47.259-8.771 107.498-19.563 137.499-63.926v.006c6.616-9.785 10.712-19.362 12.243-28.589L264.686 613.991c45.665-.274 93.657-7.002 106.79-20.174 4.266-4.277 3.063-11.484-2.306-14.246-4.951-2.551-8.743-4.605-11.628-6.232-3.074-1.737-2.3-6.371 1.175-7.017"/><path fill="#d9feff" d="M84.662 459.653c18.299 10.414 70.915 36.7 113.373 32.256a9.1 9.1 0 0 1 5.547 1.18c37.919 22.126 99.574 23.819 120.235 11.979 0 0-51.447 34.138-121.861-4.627a9 9 0 0 0-4.929-1.098c-29.276 1.899-56.274-.105-112.365-39.69M325.205 488.97c6.237.389 22.933-.802 35.168-10.882 1.782-1.47 4.232-1.816 6.393-1.003 35.296 13.255 81.781 9.289 95.241-13.532-8.42 24.331-61.114 35.719-94.06 21.546-1.988-.852-4.266-.635-6.082.54-15.526 10.063-28.034 11.506-36.983 9.412.245-2.272.323-4.778.323-6.076zM95.047 479.674c-12.408 3.67-33.492-5.858-26.219-20.973 1.03-2.138 4.049-2.4 5.385-.434.017.022.028.045.045.067.652.991.724 2.239.345 3.364-.456 1.353-.618 3.859 2.49 6.732 4.66 4.311 17.96 11.244 17.96 11.244zM283.542 545.801c-21.797 5.858-67.095 3.859-79.921-15.911-.211-.329-.389-.679-.473-1.058-.635-2.84 3.074-4.823 7.279-2.189 6.872 4.3 31.041 20.494 72.909 17.944.746-.045.93 1.024.206 1.219zM356.006 527.695c12.251 1.42 36.566-1.002 50.399-8.18 2.211-1.148 4.689-2.1 7.708-4.907 17.809-16.584 13.532-2.066 4.109 5.987-8.799 7.518-37.34 18.946-62.222 7.1zM475.517 456.891c17.703 8.053 8.732 24.977 1.136 30.073-1.521 1.019-3.336-.797-2.328-2.323 3.993-6.042 8.994-16.361.429-26.764-.429-.518.15-1.259.763-.98zM107.651 509.1c0-6.994 7.914-14.117 17.682-14.117s17.682 7.123 17.682 14.117-7.914 11.222-17.682 11.222-17.682-4.222-17.682-11.222"/><path fill="#fff" fill-opacity=".8" d="M121.585 508.521c2.284-2.114 2.643-5.442.8-7.433s-5.188-1.892-7.472.222-2.643 5.442-.801 7.433c1.843 1.991 5.188 1.892 7.473-.222"/><path fill="#d9feff" d="M143.604 542.069c-1.838-5.953 1.737-13.689 8.454-15.76 6.716-2.072 14.028 2.305 15.866 8.258 1.837 5.954-2.501 11.222-9.211 13.293-6.717 2.072-13.266.162-15.104-5.791z"/><path fill="#fff" fill-opacity=".8" d="M154.092 536.165c1.481-1.684 1.493-4.095.026-5.384s-3.856-.971-5.337.713-1.492 4.094-.025 5.384c1.466 1.29 3.856.97 5.336-.713"/><path fill="#fff" fill-opacity=".4" d="M465.915 317.199c-1.342-4.347 1.269-9.996 6.173-11.508 4.904-1.513 10.243 1.683 11.585 6.03s-1.826 8.194-6.726 9.707c-4.904 1.512-9.686.117-11.028-4.229zM74.287 175.556c1.342-4.347-1.269-9.995-6.173-11.508s-10.243 1.684-11.585 6.031 1.826 8.193 6.726 9.706c4.904 1.513 9.686.118 11.028-4.229z"/><path fill="#fff" fill-opacity=".8" d="M473.572 312.888c1.082-1.229 1.09-2.989.019-3.931s-2.815-.709-3.896.521c-1.082 1.229-1.09 2.989-.019 3.931s2.815.708 3.896-.521M66.63 171.245c-1.081-1.229-1.09-2.989-.019-3.931 1.07-.942 2.816-.708 3.897.521s1.09 2.989.018 3.931c-1.07.942-2.815.709-3.896-.521"/><path fill="#fff" fill-opacity=".4" d="M441.076 274.131a13.66 13.66 0 0 0 .454-19.528c-5.353-5.52-14.235-5.727-19.838-.462a13.66 13.66 0 0 0-.455 19.529c5.353 5.52 14.235 5.727 19.839.461M134.147 113.523a13.66 13.66 0 0 1-.454-19.528c5.352-5.52 14.234-5.727 19.838-.462a13.66 13.66 0 0 1 .454 19.529c-5.353 5.52-14.235 5.727-19.838.461"/><path fill="#fff" fill-opacity=".8" d="M429.561 263.92c1.831-2.049 1.845-4.982.032-6.552-1.814-1.569-4.768-1.181-6.598.868s-1.845 4.983-.032 6.552c1.813 1.57 4.767 1.181 6.598-.868M145.661 103.312c-1.83-2.049-1.844-4.982-.031-6.552s4.767-1.181 6.598.868 1.845 4.982.032 6.552c-1.814 1.57-4.768 1.181-6.599-.868"/><path fill="#fff" fill-opacity=".4" d="M487.36 212.41a21.86 21.86 0 0 0-2-31.19c-9.302-8.052-23.488-7.142-31.685 2.032a21.857 21.857 0 0 0 2 31.19c9.302 8.052 23.488 7.142 31.685-2.032M14.842 45.77a21.857 21.857 0 0 1 2-31.191c9.302-8.052 23.488-7.142 31.685 2.032a21.857 21.857 0 0 1-2 31.19c-9.302 8.052-23.488 7.142-31.685-2.032"/><path fill="#fff" fill-opacity=".8" d="M467.215 195.759c2.93-3.278 2.952-7.972.051-10.483s-7.628-1.89-10.557 1.389-2.952 7.971-.051 10.483c2.902 2.511 7.628 1.89 10.557-1.389M34.987 29.118c-2.93-3.278-2.952-7.972-.05-10.483 2.9-2.512 7.627-1.89 10.556 1.388 2.93 3.279 2.952 7.972.05 10.484-2.9 2.511-7.627 1.89-10.556-1.389M180.213 513.495c3.23 0 5.848-1.309 5.848-2.923s-2.618-2.924-5.848-2.924-5.847 1.309-5.847 2.924 2.618 2.923 5.847 2.923M414.029 411.522c4.691 0 8.493-1.994 8.493-4.455s-3.802-4.455-8.493-4.455c-4.69 0-8.492 1.994-8.492 4.455s3.802 4.455 8.492 4.455M446.602 415.74c.328-1.581-1.298-3.255-3.632-3.739s-4.491.405-4.819 1.986 1.298 3.255 3.632 3.739 4.491-.405 4.819-1.986"/></svg>