<svg xmlns="http://www.w3.org/2000/svg" width="341" height="435" fill="none" viewBox="0 0 341 435"><ellipse cx="186.062" cy="402.862" fill="#000" fill-opacity=".1" rx="153.973" ry="31.638"/><path fill="#00d4fb" d="M39.633 246.886c11.068-10.513 23.876-12.991 25.296-8.31 1.289 4.235-9.977 22.518-20.384 23.454-7.076-5.887-4.912-15.144-4.912-15.144"/><path fill="#2df8ff" d="M63.838 237.128c-.297 1.762-1.15 3.662-2.533 5.38-3.105 3.844-7.681 5.298-10.23 3.244-1.598-1.289-2.01-3.668-1.322-6.207 6.222-3.271 11.723-4.025 14.085-2.417"/><path fill="#231f20" d="m44.102 263.452-.435-.364c-7.643-6.36-5.468-16.102-5.375-16.515l.094-.402.297-.287c9.125-8.668 19.267-11.972 24.179-10.672 1.74.457 2.94 1.509 3.381 2.963.831 2.731-1.779 8.023-4.499 12.06-1.955 2.902-8.97 12.435-17.08 13.167l-.568.05zm-3.205-15.866c-.292 1.685-1.046 8.343 4.086 13.002 5.319-.832 10.925-6.619 14.476-11.89 3.337-4.956 4.45-8.728 4.146-9.719-.06-.193-.236-.782-1.448-1.102-5.253-1.388-15.027 3.916-21.265 9.709z"/><path fill="#00d4fb" d="M46.924 265.49c4.405-3.475 13.54-5.843 20.71-5.479 1.871.093 3.292 1.723 3.182 3.596-.65 11.482-9.51 20.221-15.396 23.123-11.007-13.018-8.502-21.246-8.502-21.246z"/><path fill="#2df8ff" d="M69.934 261.112c-1.68 4.813-5.176 9.72-9.482 9.61-5.138-.133-8.552-3.288-9.345-7.644 4.758-2.093 11.184-3.337 16.525-3.062.92.05 1.735.468 2.302 1.101z"/><path fill="#231f20" d="m55.068 288.443-.694-.821c-11.366-13.437-8.877-22.171-8.766-22.534l.126-.414.336-.264c4.592-3.623 14.096-6.157 21.635-5.771a4.66 4.66 0 0 1 3.265 1.564 4.8 4.8 0 0 1 1.222 3.486c-.699 12.308-10.043 21.262-16.155 24.28l-.964.479zm-6.9-22.171c-.259 1.679-.644 8.568 7.599 18.712 5.346-3.084 13.089-11.041 13.678-21.455a2.04 2.04 0 0 0-.523-1.492 1.92 1.92 0 0 0-1.36-.65c-6.63-.342-15.17 1.834-19.4 4.89z"/><path fill="#00d4fb" d="M59.258 286.058c4.845-3.166 14.42-4.73 21.717-3.657 1.905.281 3.193 2.104 2.901 4.026-1.795 11.807-11.717 19.979-18.016 22.413-9.972-14.527-6.597-22.787-6.597-22.787z"/><path fill="#2df8ff" d="M83.217 283.761c-2.198 4.813-6.256 9.544-10.644 9.015-5.237-.633-8.42-4.229-8.8-8.805 5.072-1.702 11.762-2.368 17.197-1.564a3.4 3.4 0 0 1 2.246 1.36z"/><path fill="#231f20" d="m65.337 310.52-.617-.898c-10.275-14.968-6.889-23.724-6.734-24.087l.16-.397.357-.237c5.05-3.293 15.005-4.989 22.67-3.865a4.74 4.74 0 0 1 3.15 1.899 4.95 4.95 0 0 1 .914 3.701c-1.922 12.628-12.346 20.965-18.882 23.493l-1.013.391zm-4.912-23.57c-.43 1.685-1.547 8.811 5.941 20.183 5.782-2.665 14.515-10.166 16.15-20.91a2.2 2.2 0 0 0-.401-1.646 2.01 2.01 0 0 0-1.338-.81c-6.762-.997-15.727.43-20.352 3.189z"/><path fill="#00d4fb" d="M82.63 306.665c2.242-5.342 9.29-12 15.93-15.205 1.735-.837 3.822-.049 4.659 1.707 5.132 10.783 1.498 23.119-2.351 28.664-16.403-6.437-18.237-15.166-18.237-15.166"/><path fill="#2df8ff" d="M101.181 291.333c.881 5.221.177 11.411-3.76 13.432-4.692 2.412-9.345 1.222-12.225-2.357 3.244-4.252 8.414-8.558 13.364-10.943a3.4 3.4 0 0 1 2.621-.132"/><path fill="#231f20" d="m101.378 323.511-1.013-.397c-16.9-6.63-19.003-15.783-19.085-16.168l-.089-.419.166-.396c2.334-5.562 9.625-12.551 16.601-15.91a4.78 4.78 0 0 1 3.673-.198 4.94 4.94 0 0 1 2.83 2.549c5.49 11.538 1.531 24.286-2.466 30.041l-.623.892zm-17.285-16.753c.254.711.97 2.346 2.715 4.378 2.098 2.44 6.128 5.932 13.524 8.999 3.292-5.446 6.315-16.554 1.646-26.368a2.22 2.22 0 0 0-1.255-1.139 2.05 2.05 0 0 0-1.564.077c-6.156 2.968-12.786 9.18-15.066 14.053"/><path fill="#00bf9a" d="M179.89 287.935c-21.877 13.349-86.583 46.364-114.808 1.096-19.162-30.74-9.686-43.175-12.368-59.431-1.756-10.678-5.765-15.183-8.457-17.044-1.08-.749-2.56.022-2.578 1.332-.049 4.356-1.04 13.751-7.543 24.892-8.243 14.125-29.531 58.39-5.022 101.075 22.031 38.362 81.357 78.882 161.546 10.992-7.653-33.4-10.781-62.906-10.781-62.906z"/><path fill="#00a192" d="M190.673 350.842c-80.195 67.89-139.515 27.37-161.552-10.992q-.585-1.025-1.14-2.043c32.23 30.514 82.855 31.324 117.154-13.63a1113 1113 0 0 0 21.073-28.619 206 206 0 0 0 13.678-7.628s3.128 29.507 10.776 62.912z"/><path fill="#231f20" d="M107.118 388.741a85.6 85.6 0 0 1-14.768-1.272c-26.089-4.571-50.174-22.116-64.424-46.93-25.203-43.886-2.528-89.517 5.027-102.452 6.283-10.767 7.307-19.793 7.356-24.215a3 3 0 0 1 1.636-2.643 3 3 0 0 1 3.1.198c3.128 2.164 7.235 7.038 9.036 17.953.81 4.934.545 9.444.264 14.219-.65 10.959-1.382 23.383 11.91 44.711 11.8 18.928 31.437 25.927 58.357 20.811 23.502-4.466 45.99-17.121 54.563-22.353l1.856-1.134.231 2.164c.033.292 3.21 29.815 10.754 62.747l.187.815-.639.54c-18.038 15.27-36.088 25.937-53.659 31.703-10.435 3.426-20.737 5.144-30.781 5.144zM43.333 213.63a.3.3 0 0 0-.127.033.25.25 0 0 0-.143.231c-.055 4.692-1.13 14.258-7.731 25.569-7.362 12.617-29.481 57.091-5.017 99.693 13.849 24.115 37.218 41.16 62.509 45.593 14.157 2.478 29.03 1.211 44.216-3.773 17.02-5.589 34.547-15.898 52.102-30.651-6.289-27.673-9.51-52.791-10.374-60.115-9.791 5.816-31.227 17.342-53.644 21.599-12.681 2.406-24.007 2.186-33.66-.661-11.553-3.409-20.82-10.607-27.549-21.4-13.76-22.072-13-34.959-12.323-46.331.275-4.615.534-8.976-.231-13.607-1.73-10.491-5.683-14.616-7.885-16.136a.25.25 0 0 0-.143-.05z"/><path fill="#f6e8cb" d="M190.671 350.843c-80.196 67.89-139.516 27.369-161.552-10.992-17.681-30.79-11.536-62.395-3.64-82.925-3.26 9.434-7.087 30.019-.347 51.931C33.512 336.122 89 404.36 158.81 338.028c10.28-9.77 18.363-17.755 24.674-24.28 1.707 10.573 4.069 23.509 7.18 37.095z"/><path fill="#ffc9a0" d="M190.673 350.842c-80.195 67.89-139.515 27.37-161.552-10.992q-.585-1.026-1.14-2.043c11.773 11.146 26.002 18.327 40.996 20.767 23.638 12.154 54.948 12.611 89.836-20.541 10.281-9.769 18.364-17.755 24.674-24.28 1.707 10.573 4.07 23.509 7.181 37.095z"/><path fill="#231f20" d="M107.123 388.736a85.7 85.7 0 0 1-14.768-1.272c-26.09-4.571-50.174-22.116-64.425-46.931-17.857-31.098-11.888-62.901-3.733-84.102l2.588.941c-1.415 4.103-8.095 25.839-.33 51.078 2.174 7.071 8.259 18.685 18.826 30.068 7.934 8.547 21.018 19.682 38.319 24.22 24.553 6.437 49.541-2.214 74.27-25.713 9.735-9.251 18.022-17.407 24.635-24.236l1.911-1.977.441 2.715c2.081 12.892 4.493 25.343 7.163 37.007l.188.815-.639.54c-18.039 15.271-36.089 25.938-53.66 31.703-10.434 3.426-20.737 5.144-30.781 5.144zM20.017 283.029c-2.4 17.077-.826 36.77 10.297 56.133 13.849 24.11 37.218 41.154 62.514 45.587 14.152 2.478 29.03 1.211 44.217-3.772 17.02-5.59 34.547-15.899 52.096-30.647-2.423-10.661-4.631-21.973-6.57-33.664-6.299 6.443-13.958 13.949-22.807 22.358-13.43 12.766-27.196 21.346-40.907 25.514-12.059 3.668-24.162 3.96-35.957.865-31.034-8.134-53.599-38.312-59.083-56.144-2.902-9.444-3.85-18.426-3.8-26.235z"/><path fill="#00d4fb" d="M36.256 151.506a1.403 1.403 0 0 0 1.905-1.426c-.38-4.813-.517-11.84 2.517-11.769 2.478.061 3.964 3.916 5.209 7.369a15.6 15.6 0 0 0 4.443 6.476c6.36 5.523 15.782 14.098 1.779 32.651-4.653 6.162-13.474 9.532-21.492 9.918-12.917.622-24.943-7.071-29.123-21.769-5.815-20.437 6.9-32.425 11.525-42.101 3.65-7.627 1.03-14.621-2.357-19.919-1.117-1.746.276-3.987 2.346-3.794 8.656.831 17.263 9.312 16.503 19.324-.854 11.317-1.861 14.472.275 19.263 1.487 3.332 4.455 4.989 6.47 5.766z"/><path fill="#2df8ff" d="M42.175 192.126c-3.672 1.542-7.709 2.417-11.563 2.599-.54.027-1.085.038-1.625.027 3.266-4.637 3.657-7.109-2.714-9.257-10.363-3.497-16.194-9.208-13.849-23.069 1.09-6.465 2.555-10.535 3.778-13.013.952-1.927 3.788-1.712 4.427.336.754 2.445 1.195 5.425 2.285 8.376 2.687 7.237 10.021 4.78 17.57 11.047 5.777 4.803 5.98 14.688 1.686 22.943z"/><path fill="#00bf9a" d="M96.071 336.613c0-52.807 41.419-119.001 92.508-119.001s92.507 66.194 92.507 119.001-41.419 72.224-92.507 72.224-92.508-19.417-92.508-72.224"/><path fill="#00a192" d="M281.086 336.612c0 52.807-41.419 72.225-92.507 72.225s-92.508-19.418-92.508-72.225q.002-.803.011-1.613c19.961 35.118 54.789 65.445 92.497 65.445s74.798-34.854 92.077-73.271c.287 3.183.43 6.333.43 9.439"/><path fill="#f6e8cb" d="M124.225 323.088c0-42.073 28.561-66.359 63.797-66.359s64.612 24.611 63.797 66.359c-.716 36.644-28.562 66.36-63.797 66.36s-63.797-29.71-63.797-66.36"/><path fill="#00d4fb" fill-opacity=".602" d="M186.455 271.491v29.721l25.118 11.226z"/><path fill="#a3f1ff" d="m186.454 271.491-25.121 40.947 25.121-11.225z"/><path fill="#97efff" d="M186.455 331.698v20.196l25.135-34.778z"/><path fill="#61e6ff" d="M186.454 351.894v-20.199l-25.121-14.579z"/><path fill="#a4f1ff" d="m186.455 327.024 25.118-14.586-25.118-11.218z"/><path fill="#e6fbff" d="m161.333 312.438 25.121 14.586V301.22z"/><path fill="#ffc9a0" d="M211.837 260.809a261 261 0 0 1-25.169 1.222h-.226c-7.406 0-15.06-.347-22.736-1.04 7.489-2.815 15.704-4.263 24.311-4.263s16.431 1.393 23.82 4.081" opacity=".75"/><path fill="#231f20" d="M188.578 410.208c-27.873 0-50.141-5.567-66.192-16.548-18.375-12.573-27.692-31.77-27.692-57.047s10.226-56.419 27.356-80.105c8.843-12.231 18.865-21.951 29.784-28.884 11.888-7.556 24.25-11.383 36.744-11.383s24.856 3.827 36.744 11.383c10.914 6.933 20.936 16.653 29.784 28.884 17.131 23.686 27.356 53.633 27.356 80.105s-9.317 44.474-27.691 57.047c-16.052 10.981-38.319 16.548-66.193 16.548m0-191.219c-11.96 0-23.826 3.684-35.268 10.953-10.473 6.653-20.506 16.395-29.03 28.174-16.8 23.234-26.832 52.575-26.832 78.491 0 24.319 8.914 42.745 26.496 54.778 15.583 10.662 37.328 16.07 64.634 16.07s49.051-5.408 64.634-16.07c17.582-12.033 26.497-30.459 26.497-54.778 0-25.916-10.033-55.257-26.833-78.491-8.518-11.779-18.556-21.521-29.029-28.174-11.443-7.269-23.309-10.953-35.269-10.953"/><path fill="#00bf9a" d="M109.071 315.51c-17.631 1.674-38.666 7.665-41.997 41.798-4.989 51.132 34.619 72.389 65.317 48.907 5.269-4.031 7.775-12.831 3.562-25.894"/><path fill="#00a192" d="M132.39 406.215c-9.377 7.17-19.581 10.172-29.09 9.417 11.684-4.438 22.196-11.074 27.675-18.993 3.491-5.056 4.741-10.194 4.801-16.742l.177.425c4.212 13.062 1.707 21.862-3.563 25.893"/><path fill="#231f20" d="M120.57 412.95c4.323-2.638 8.755-5.436 12.28-8.911 3.248-3.623 4.107-8.772 4.069-13.519-.006-3.348-.452-6.741-.958-10.199 3.166 6.261 4.625 14.125 1.888 20.833-.903 2.147-2.318 4.185-4.184 5.644-3.871 2.908-8.376 5.127-13.089 6.157zM109.072 315.509c-5.027 1.564-10.06 2.638-14.972 4.34-4.939 1.646-9.449 3.838-13.958 6.547 6.437-8.794 18.49-11.95 28.936-10.887z"/><path fill="#231f20" d="M106.13 417.13c-8.039 0-15.77-2.549-22.367-7.544-13.716-10.381-20.296-29.485-18.055-52.41 1.371-14.043 5.914-24.738 13.496-31.787 3.954-3.673 8.667-6.382 14.4-8.277l.864 2.616c-5.353 1.768-9.736 4.285-13.392 7.682-7.175 6.669-11.31 16.494-12.631 30.036-2.142 21.95 4.047 40.156 16.981 49.948 9.862 7.462 22.488 9.02 34.641 4.279l.738-.287c4.124-1.586 11.806-4.532 14.784-11.988l2.555 1.019c-3.425 8.574-11.833 11.801-16.354 13.536l-.721.281c-4.967 1.938-10.011 2.896-14.933 2.896z"/><path fill="#00bf9a" d="M59.619 350.105c14.24-10.915 35.489-7.743 49.453 10.48 13.97 18.228 15.88 45.306 1.129 55.516-14.383 9.956-39.31 2.235-53.28-15.987-13.97-18.228-11.542-39.094 2.698-50.009"/><path fill="#f6e8cb" d="M73.947 378.262c6.712-5.143 16.678-3.706 23.198 4.802 6.519 8.509 7.356 21.186.407 26.004-6.773 4.698-18.463 1.135-24.982-7.374-6.52-8.508-5.336-18.288 1.377-23.432"/><path fill="#231f20" d="M95.015 421.839c-13.529 0-29.08-7.693-39.189-20.883-6.828-8.905-10.203-19.092-9.51-28.68.678-9.357 5.105-17.617 12.462-23.256 15.5-11.879 37.586-7.264 51.385 10.738 8.899 11.609 13.177 26.753 11.173 39.535-1.245 7.919-4.824 14.126-10.352 17.953-4.521 3.128-10.049 4.598-15.969 4.598zm-34.552-70.644c-14.345 10.992-15.369 31.214-2.445 48.082 9.592 12.517 24.272 19.858 36.909 19.863 5.385 0 10.396-1.332 14.493-4.168 4.895-3.387 8.078-8.966 9.201-16.119 1.861-11.873-2.313-26.566-10.638-37.431-6.415-8.371-14.868-13.933-23.793-15.657-8.574-1.657-17.004.27-23.733 5.43z"/><path fill="#f6e8cb" d="M53.504 374.126c3.83-1.253 5.536-6.545 3.811-11.821s-6.228-8.537-10.058-7.284-5.536 6.545-3.811 11.82 6.228 8.537 10.058 7.285"/><path fill="#231f20" d="M51.818 375.778c-3.976 0-8.04-3.409-9.708-8.497-1.96-5.992.149-12.072 4.691-13.559 4.549-1.487 9.835 2.176 11.795 8.167 1.96 5.992-.149 12.071-4.691 13.558a6.6 6.6 0 0 1-2.087.331m-7.087-9.357c1.487 4.549 5.22 7.418 8.32 6.405s4.416-5.54 2.93-10.083c-1.487-4.549-5.22-7.424-8.32-6.405-3.1 1.013-4.417 5.54-2.93 10.083"/><path fill="#f6e8cb" d="M62.77 364.031a3.795 3.795 0 0 1-4.35-1.449c-3.144-4.603-7.913-13.855-.033-18.889 6.938-4.433 14.719 4.45 16.574 9.638.43 1.2.22 2.538-.556 3.546-2.687 3.486-8.182 5.992-11.635 7.154"/><path fill="#231f20" d="M61.564 365.605a5.19 5.19 0 0 1-4.279-2.246c-.925-1.355-5.473-8.443-4.069-14.776.578-2.61 2.081-4.653 4.471-6.074 2.44-1.448 5.21-1.679 8.012-.672 4.758 1.713 9.102 6.956 10.561 11.031a5.1 5.1 0 0 1-.76 4.851c-3.358 4.362-10.252 6.934-12.284 7.617a5.2 5.2 0 0 1-1.647.269zm.743-21.636q-1.686 0-3.216.903c-1.729 1.029-2.775 2.434-3.188 4.301-.897 4.053 1.41 9.339 3.657 12.627a2.43 2.43 0 0 0 2.775.92c3.805-1.283 8.689-3.717 10.985-6.691a2.4 2.4 0 0 0 .347-2.247c-1.217-3.398-4.961-7.947-8.898-9.362q-1.264-.456-2.462-.457z"/><path fill="#f6e8cb" d="M94.823 358.948c-3.15.816-7.802.876-12.141-1.492-2.594-1.415-4.147-4.18-4.053-7.131.237-7.484 4.504-10.579 8.524-10.579 4.339 0 11.03 5.496 10.726 15.375a4.06 4.06 0 0 1-3.056 3.822z"/><path fill="#231f20" d="M90.633 360.843c-2.456 0-5.5-.48-8.612-2.176-3.05-1.663-4.878-4.879-4.768-8.381.259-8.228 5.16-11.912 9.9-11.912 2.429 0 5.198 1.36 7.406 3.64 3.189 3.288 4.857 7.958 4.697 13.156a5.424 5.424 0 0 1-4.085 5.116c-.931.243-2.539.562-4.538.562zm-3.474-19.721c-3.166 0-6.933 2.423-7.148 9.246-.077 2.462 1.2 4.714 3.337 5.882 4.901 2.676 9.763 1.723 11.134 1.371a2.686 2.686 0 0 0 2.027-2.533c.181-6.003-2.38-9.566-3.921-11.157-1.674-1.73-3.755-2.803-5.43-2.803z"/><path fill="#00bf9a" d="M266.196 315.511c17.632 1.674 38.666 7.666 41.998 41.798 4.988 51.132-34.619 72.389-65.317 48.908-5.27-4.031-7.775-12.832-3.563-25.894"/><path fill="#00a192" d="M242.881 406.216c9.377 7.17 19.58 10.171 29.09 9.417-11.685-4.439-22.196-11.075-27.675-18.994-3.491-5.055-4.741-10.193-4.802-16.741l-.176.424c-4.212 13.063-1.707 21.863 3.563 25.894"/><path fill="#231f20" d="M254.705 412.951c-4.939-1.095-9.68-3.447-13.645-6.608-2.296-2.076-3.772-4.879-4.504-7.842-1.399-6.107-.022-12.705 2.764-18.184-.507 3.458-.953 6.856-.958 10.199-.039 4.747.82 9.896 4.069 13.52 3.524 3.475 7.957 6.267 12.279 8.91zM266.194 315.51c10.446-1.057 22.499 2.093 28.936 10.888-4.515-2.71-9.025-4.902-13.958-6.548-4.917-1.702-9.95-2.781-14.972-4.34z"/><path fill="#231f20" d="M269.136 417.131c-4.929 0-9.967-.958-14.934-2.897l-.721-.281c-4.521-1.734-12.935-4.962-16.354-13.536l2.555-1.019c2.979 7.451 10.66 10.403 14.785 11.989l.737.286c12.159 4.747 24.779 3.189 34.641-4.279 12.935-9.791 19.124-27.997 16.982-49.948-1.322-13.542-5.452-23.366-12.632-30.035-3.656-3.398-8.039-5.915-13.391-7.682l.864-2.616c5.738 1.894 10.446 4.604 14.405 8.277 7.582 7.049 12.125 17.743 13.496 31.786 2.236 22.926-4.345 42.029-18.055 52.41-6.597 4.995-14.334 7.545-22.367 7.545z"/><path fill="#00bf9a" d="M315.649 350.105c-14.24-10.915-35.489-7.743-49.453 10.48-13.97 18.228-15.88 45.306-1.129 55.516 14.383 9.957 39.31 2.236 53.28-15.987 13.97-18.228 11.541-39.094-2.698-50.009"/><path fill="#f6e8cb" d="M301.326 378.263c-6.712-5.144-16.679-3.707-23.198 4.802-6.52 8.508-7.357 21.185-.408 26.004 6.773 4.697 18.463 1.134 24.983-7.374s5.335-18.289-1.377-23.432"/><path fill="#231f20" d="M280.253 421.839c-5.919 0-11.447-1.47-15.968-4.598-5.529-3.827-9.113-10.039-10.352-17.953-2.005-12.776 2.274-27.926 11.172-39.535 13.794-18.002 35.885-22.617 51.386-10.738 7.362 5.645 11.789 13.899 12.461 23.256.694 9.593-2.682 19.775-9.51 28.68-10.104 13.19-25.659 20.883-39.189 20.883zm16.8-76.646c-1.971 0-3.964.193-5.969.578-8.925 1.724-17.378 7.286-23.793 15.657-8.325 10.865-12.499 25.558-10.638 37.431 1.123 7.153 4.306 12.726 9.201 16.119 13.706 9.488 37.724 2.153 51.402-15.695 6.415-8.371 9.592-17.893 8.948-26.808-.617-8.558-4.664-16.114-11.393-21.274-5.154-3.948-11.31-6.008-17.758-6.008"/><path fill="#f6e8cb" d="M331.865 366.88c1.725-5.276.019-10.568-3.811-11.821s-8.333 2.009-10.058 7.284-.019 10.568 3.811 11.821 8.333-2.009 10.058-7.284"/><path fill="#231f20" d="M323.502 375.784a6.8 6.8 0 0 1-2.136-.342c-4.543-1.487-6.652-7.566-4.692-13.558.925-2.825 2.61-5.232 4.741-6.779 2.269-1.641 4.774-2.137 7.054-1.388 2.285.749 4.014 2.627 4.873 5.287.81 2.506.744 5.446-.182 8.271s-2.61 5.232-4.741 6.78c-1.574 1.139-3.265 1.729-4.917 1.729m2.847-19.644c-1.079 0-2.225.408-3.315 1.201-1.668 1.206-2.995 3.128-3.739 5.402-1.486 4.549-.17 9.07 2.93 10.083 1.42.463 3.05.111 4.581-1.002 1.669-1.206 2.996-3.128 3.739-5.402.743-2.28.809-4.609.176-6.57-.578-1.801-1.685-3.051-3.105-3.513a4 4 0 0 0-1.267-.199"/><path fill="#f6e8cb" d="M312.502 364.034a3.796 3.796 0 0 0 4.35-1.449c3.145-4.604 7.913-13.855.033-18.889-6.938-4.433-14.718 4.45-16.574 9.637a3.75 3.75 0 0 0 .556 3.547c2.687 3.486 8.183 5.992 11.635 7.154"/><path fill="#231f20" d="M313.712 365.608c-.55 0-1.106-.088-1.646-.269-2.032-.683-8.926-3.261-12.285-7.617a5.1 5.1 0 0 1-.76-4.851c1.454-4.075 5.804-9.313 10.562-11.031 2.802-1.008 5.572-.776 8.011.672 2.39 1.421 3.893 3.458 4.472 6.074 1.404 6.339-3.145 13.421-4.07 14.776a5.18 5.18 0 0 1-4.278 2.246zm-.771-2.88a2.424 2.424 0 0 0 2.77-.919c2.247-3.294 4.554-8.575 3.656-12.628-.413-1.867-1.453-3.271-3.188-4.301-1.734-1.03-3.645-1.178-5.671-.451-3.937 1.42-7.687 5.964-8.899 9.361a2.4 2.4 0 0 0 .347 2.247c2.291 2.974 7.181 5.408 10.985 6.691"/><path fill="#f6e8cb" d="M280.448 358.95c3.149.815 7.802.875 12.141-1.493 2.594-1.415 4.147-4.179 4.053-7.131-.237-7.484-4.504-10.579-8.524-10.579-4.339 0-11.029 5.496-10.726 15.375a4.06 4.06 0 0 0 3.056 3.822z"/><path fill="#231f20" d="M284.532 360.833c-1.503 0-2.995-.182-4.427-.551a5.414 5.414 0 0 1-4.086-5.116c-.159-5.198 1.509-9.868 4.697-13.156 2.208-2.28 4.978-3.64 7.406-3.64 4.741 0 9.642 3.684 9.901 11.911.11 3.508-1.718 6.719-4.769 8.382-2.615 1.426-5.677 2.17-8.716 2.17zm-3.739-3.216c1.371.352 6.234 1.305 11.134-1.371 2.137-1.162 3.414-3.42 3.337-5.882-.215-6.823-3.987-9.246-7.147-9.246-1.674 0-3.756 1.074-5.429 2.803-1.542 1.591-4.103 5.154-3.921 11.157a2.685 2.685 0 0 0 2.026 2.533z"/><path fill="#00a192" d="M92.092 318.908c.027.055.06.115.093.17 15.165 26.406 40.478 27.249 44.299 22.474-3.964 10.574-28.055 13.272-44.392-22.644"/><path fill="#00bf9a" d="M148.564 227.09c-43.45 13.525-76.125 57.608-56.38 91.988 15.165 26.407 40.478 27.249 44.299 22.475 9.119 2.962 14.053-5.023 14.201-8.729 5.854-2.418 4.841-10.452.1-19.478-4.741-9.032-24.57-26.61-19.427-40.009 5.143-13.398 26.172-44.948 26.172-44.948l-8.959-1.299z"/><path fill="#231f20" d="M128.831 345.181q-1.04.002-2.153-.088c-5.187-.402-23.094-3.409-35.687-25.332-7.307-12.721-8.056-27.386-2.164-42.404 8.992-22.92 32.279-43.169 59.326-51.584l.82 2.627c-26.282 8.178-48.885 27.794-57.58 49.965-5.578 14.214-4.89 28.053 1.988 40.025 11.921 20.756 28.661 23.586 33.512 23.961 4.653.352 7.676-.612 8.518-1.663l.595-.744.903.292c3.144 1.024 5.947.699 8.326-.958 2.703-1.884 4.008-4.945 4.074-6.509l.033-.882.815-.336c1.366-.567 2.269-1.492 2.759-2.836 1.134-3.139-.088-8.508-3.353-14.731-1.261-2.406-3.679-5.49-6.476-9.059-2.153-2.748-4.598-5.865-6.767-9.037-2.473-3.612-4.24-6.784-5.418-9.703l2.554-1.03c1.102 2.732 2.776 5.733 5.132 9.18 2.126 3.101 4.433 6.047 6.663 8.894 2.88 3.673 5.369 6.851 6.751 9.478 2.605 4.956 5.325 11.922 3.502 16.945-.661 1.822-1.85 3.194-3.535 4.091-.419 2.489-2.197 5.739-5.154 7.798-2.032 1.415-5.363 2.781-9.939 1.559-1.63 1.343-4.488 2.081-8.039 2.081z"/><path fill="#231f20" d="M137.449 295.106c-5.732-4.813-10.919-14.819-6.095-21.774-.755 7.941 3.628 14.522 6.095 21.774M135.505 341.029c.044-1.277-.286-2.599-.842-3.767-.595-1.277-1.575-2.335-2.781-3.106 3.105.771 5.462 3.503 6.354 6.532zM149.205 333.561c.319-1.96-.055-4.064-.975-5.853-.969-1.95-2.648-3.492-4.509-4.621 2.186.782 4.19 2.01 5.66 3.866 1.548 1.928 2.484 4.373 2.561 6.873l-2.742-.265z"/><path fill="#00a192" d="M282.569 318.908c-.027.055-.06.115-.093.17-15.165 26.406-40.478 27.249-44.299 22.474 3.964 10.574 28.055 13.272 44.392-22.644"/><path fill="#00bf9a" d="M226.096 227.09c43.451 13.525 76.126 57.608 56.38 91.989-15.164 26.406-40.477 27.248-44.299 22.474-9.118 2.962-14.052-5.023-14.201-8.729-5.853-2.417-4.84-10.452-.099-19.478 4.741-9.032 24.57-26.61 19.427-40.008s-26.172-44.948-26.172-44.948l8.959-1.3z"/><path fill="#231f20" d="M245.832 345.182c-3.552 0-6.404-.738-8.04-2.082-4.576 1.222-7.907-.149-9.939-1.564-2.957-2.06-4.735-5.309-5.154-7.798-1.69-.892-2.874-2.269-3.535-4.092-1.823-5.022.903-11.988 3.502-16.945 1.377-2.627 3.866-5.804 6.751-9.477 2.23-2.847 4.543-5.794 6.663-8.894 2.356-3.442 4.036-6.443 5.132-9.18l2.555 1.03c-1.173 2.918-2.946 6.096-5.413 9.703-2.175 3.177-4.615 6.289-6.768 9.037-2.797 3.568-5.214 6.652-6.475 9.059-3.265 6.223-4.488 11.592-3.353 14.731.484 1.344 1.387 2.275 2.758 2.836l.815.336.033.881c.061 1.57 1.366 4.626 4.069 6.51 2.379 1.657 5.182 1.982 8.326.958l.903-.292.595.743c.842 1.052 3.865 2.016 8.518 1.663 4.846-.374 21.591-3.205 33.512-23.96 6.878-11.973 7.56-25.812 1.988-40.025-8.695-22.171-31.298-41.782-57.586-49.965l.821-2.627c27.047 8.42 50.339 28.669 59.325 51.584 5.892 15.018 5.143 29.677-2.164 42.404-12.593 21.929-30.499 24.935-35.686 25.332a29 29 0 0 1-2.153.083z"/><path fill="#231f20" d="M237.214 295.107c2.472-7.253 6.85-13.834 6.095-21.775 4.824 6.961-.363 16.961-6.095 21.775M236.425 340.694c.892-3.028 3.249-5.76 6.355-6.531-2.236 1.377-3.513 3.883-3.629 6.454a4 4 0 0 0 0 .419l-2.731-.342zM222.72 333.826c.105-4.918 3.618-9.268 8.221-10.739-2.769 1.625-5.01 4.34-5.467 7.567-.144.942-.193 1.994-.017 2.913l-2.742.265z"/><path fill="#2df8ff" d="M257.126 91.518c2.957-5.584 10.352-16.94 11.525-32.227.138-1.817-1.179-3.398-2.941-3.54-10.225-.843-30.268 6.437-38.671 19.18 10.677 15.8 30.087 16.582 30.087 16.582z"/><path fill="#00d4fb" d="M252.984 90.985c8.7-13.558 11.211-25.15 11.883-29.44.154-.97-.584-1.84-1.537-1.818-9.162.254-26.953 6.758-33.495 16.945 8.722 13.399 23.149 14.313 23.149 14.313"/><path fill="#231f20" d="m257.94 92.929-.865-.033c-.82-.033-20.23-.997-31.171-17.187l-.512-.76.506-.766c8.81-13.365 29.542-20.651 39.938-19.798 2.511.21 4.394 2.457 4.196 5.017-1.052 13.652-6.894 24.137-10.385 30.399-.49.876-.931 1.668-1.3 2.368l-.407.765zm-29.223-18.002c8.998 12.539 23.937 14.78 27.626 15.15q.411-.753.898-1.62c3.38-6.063 9.041-16.218 10.043-29.27.083-1.057-.672-1.982-1.679-2.065-9.306-.765-28.457 5.937-36.888 17.805"/><path fill="#2df8ff" d="M243.232 71.435c2.318-6.977 8.661-21.45 6.855-39.149-.214-2.104-2.098-3.64-4.201-3.453-12.23 1.107-34.343 13.481-41.584 29.743 15.886 15.888 38.93 12.854 38.93 12.854z"/><path fill="#00d4fb" d="M238.237 71.666c7.422-17.248 7.962-30.999 7.857-36.043a1.836 1.836 0 0 0-2.191-1.762c-10.749 2.142-30.368 13.173-35.946 26.136 13.078 13.542 30.28 11.664 30.28 11.664z"/><path fill="#231f20" d="M238.415 73.065c-7.83 0-23.259-1.685-35.081-13.508l-.672-.667.386-.864c7.56-16.973 30.351-29.435 42.718-30.553 2.852-.259 5.407 1.84 5.699 4.68 1.608 15.767-3.078 28.902-5.881 36.749a151 151 0 0 0-1.04 2.974l-.27.82-.854.11c-.258.034-2.114.265-4.999.265zM205.96 58.28c13.486 12.837 32.108 12.198 36.255 11.873q.348-1.008.77-2.18c2.721-7.628 7.28-20.393 5.733-35.543-.138-1.349-1.35-2.34-2.71-2.22-11.227 1.02-32.603 12.667-40.048 28.07"/><path fill="#2df8ff" d="M117.507 91.96c-2.957-5.584-10.352-16.94-11.524-32.226-.138-1.818 1.178-3.398 2.94-3.541 10.225-.843 30.269 6.437 38.671 19.18-10.677 15.8-30.087 16.582-30.087 16.582z"/><path fill="#00d4fb" d="M121.645 91.426c-8.7-13.558-11.211-25.15-11.882-29.44-.155-.97.583-1.84 1.536-1.817 9.163.253 26.954 6.757 33.495 16.945-8.722 13.398-23.149 14.312-23.149 14.312"/><path fill="#231f20" d="m116.697 93.37-.408-.765c-.369-.7-.809-1.493-1.299-2.368-3.491-6.262-9.334-16.747-10.38-30.399-.198-2.56 1.685-4.813 4.196-5.017 10.396-.853 31.122 6.432 39.932 19.798l.507.765-.512.76c-10.941 16.19-30.352 17.155-31.172 17.188l-.864.033zm-6.146-35.867q-.793.001-1.519.06c-1.008.083-1.762 1.008-1.68 2.066 1.002 13.051 6.663 23.2 10.044 29.264.319.578.622 1.118.897 1.619 3.69-.374 18.645-2.632 27.626-15.144-7.995-11.256-25.632-17.865-35.368-17.865"/><path fill="#2df8ff" d="M131.396 71.875c-2.318-6.977-8.661-21.45-6.855-39.149.215-2.104 2.098-3.64 4.201-3.453 12.23 1.107 34.344 13.481 41.585 29.743-15.886 15.888-38.931 12.854-38.931 12.854z"/><path fill="#00d4fb" d="M136.393 72.106c-7.423-17.248-7.963-30.999-7.858-36.043a1.837 1.837 0 0 1 2.191-1.762c10.749 2.142 30.368 13.173 35.946 26.136C153.595 73.979 136.393 72.1 136.393 72.1z"/><path fill="#231f20" d="M136.222 73.506c-2.885 0-4.741-.232-5-.265l-.853-.11-.27-.82c-.292-.876-.644-1.867-1.041-2.974-2.803-7.848-7.489-20.982-5.881-36.748.292-2.842 2.847-4.94 5.699-4.681 12.368 1.123 35.159 13.58 42.719 30.552l.385.865-.671.666C159.486 71.815 144.058 73.5 136.227 73.5zm-3.805-2.914c4.146.325 22.769.964 36.254-11.873-7.45-15.397-28.826-27.05-40.048-28.069-1.354-.121-2.571.87-2.709 2.22-1.547 15.15 3.012 27.914 5.732 35.542q.423 1.172.771 2.18"/><path fill="#00a192" d="M262.827 249.736c-15.192 5.721-33.061 9.345-50.989 11.074-7.39-2.687-15.44-4.081-23.821-4.081s-16.822 1.449-24.311 4.263c-18.276-1.652-36.683-5.276-52.25-10.926 0 0 1.944-1.779 2.77-2.462.886-.738 3.744-3.078 3.744-3.078 20.974 6.383 45.637 9.296 68.472 9.296h.226c22.741 0 48.627-3.31 69.546-9.632 0 0 2.978 2.313 4.08 3.271.638.551 2.533 2.275 2.533 2.275" opacity=".75"/><path fill="#00bf9a" d="M300.328 183.474c-1.525-3.436-3.519-7.01-6.024-10.728 1.454-6.542 1.669-12.49 1.669-19.428 0-53.864-46.067-97.821-103.95-100.382-.457-.016-.92-.038-1.382-.055q-.687-.023-1.382-.038c-.468-.011-.931-.017-1.399-.022q-.595-.007-1.189-.006c-.474 0-.942 0-1.415.006-59.811.583-108.113 45.35-108.113 100.497 0 6.938.215 12.886 1.674 19.428-2.522 3.74-4.526 7.336-6.051 10.794-2.726 5.7-3.937 11.091-3.85 16.169-.55 37.717 64.117 54.111 117.529 54.111h.226c53.417 0 118.09-16.394 117.534-54.117.088-5.088-1.135-10.502-3.877-16.229"/><path fill="#231f20" d="M109.508 243.148c-27.725-10.095-42.234-25.123-41.964-43.467-.094-5.369 1.244-11.019 3.98-16.741 1.487-3.376 3.453-6.906 5.826-10.48-1.31-6.151-1.58-11.923-1.58-19.148 0-27.045 11.387-52.514 32.069-71.717 20.633-19.16 48.121-29.87 77.409-30.157q1.315-.015 2.638 0a120 120 0 0 1 2.808.061l1.382.055c28.402 1.256 54.888 12.385 74.584 31.335 19.79 19.043 30.693 44.05 30.693 70.423 0 7.225-.27 12.991-1.575 19.148 2.351 3.541 4.306 7.055 5.815 10.447 2.736 5.716 4.085 11.388 3.997 16.813.27 18.261-14.184 33.267-41.799 43.362l-.947-2.589c18.419-6.735 40.307-19.274 39.988-40.779.088-5.039-1.173-10.287-3.745-15.656-1.525-3.442-3.513-6.978-5.925-10.552l-.33-.49.127-.578c1.365-6.157 1.635-11.675 1.635-19.131 0-25.613-10.6-49.921-29.845-68.436-19.211-18.487-45.064-29.34-72.789-30.569l-1.371-.055a110 110 0 0 0-2.747-.06c-.402-.006-.81-.006-1.19-.006-.462 0-.919 0-1.382.005-28.6.281-55.438 10.728-75.564 29.419-20.11 18.679-31.188 43.433-31.188 69.702 0 7.456.27 12.974 1.64 19.131l.127.578-.33.49c-2.428 3.602-4.427 7.165-5.936 10.579-2.571 5.375-3.816 10.607-3.733 15.591-.314 21.598 21.662 34.148 40.152 40.878l-.941 2.588z"/><path fill="#231f20" d="M238.01 248.805c7.224-2.589 14.498-4.725 21.717-7.214 7.241-2.435 14.262-5.139 21.359-8.041-11.668 9.125-28.413 14.214-43.076 15.249zM90.512 232.63c7.521 3.309 15.021 6.322 22.774 8.938 7.737 2.676 15.561 4.89 23.347 7.539-15.968-1.151-33.451-6.471-46.121-16.483z"/><path fill="#f6e8cb" d="M91.48 107.715c11.063 4.197 39.68-17.628 37.235-29.203-2.764-13.08-36.32-32.943-47.173-25.15-11.222 8.056-2.974 49.458 9.939 54.353"/><path fill="#ffc9a0" d="M91.48 107.714c11.063 4.196 39.68-17.628 37.235-29.204C102.714 121.53 67.39 89.1 81.542 53.36c-11.222 8.056-2.974 49.458 9.939 54.354"/><path fill="#231f20" d="M94.674 109.62c-1.333 0-2.572-.193-3.684-.617-4.703-1.784-8.111-7.39-10.143-11.78-2.582-5.578-4.504-12.467-5.413-19.406-1.63-12.457.353-22.017 5.297-25.574 4.048-2.908 11.085-2.65 19.801.738 12.726 4.934 27.62 16.256 29.52 25.25 1.112 5.275-3.243 12.726-11.651 19.929-6.971 5.97-16.652 11.46-23.733 11.46zm-6.586-56.628c-2.395 0-4.356.495-5.743 1.492-4.047 2.908-5.65 11.713-4.174 22.98 1.861 14.242 7.797 26.693 13.799 28.968 4.961 1.877 15.556-2.578 24.652-10.365 7.406-6.344 11.624-13.123 10.749-17.27-1.526-7.23-14.526-18.09-27.824-23.25-4.383-1.702-8.304-2.56-11.459-2.56z"/><path fill="#f6e8cb" d="M282.638 108.596c-11.062 4.196-39.679-17.628-37.234-29.204 2.764-13.079 36.32-32.942 47.173-25.15 11.223 8.057 2.974 49.458-9.939 54.354"/><path fill="#ffc9a0" d="M282.638 108.595c-11.062 4.197-39.679-17.628-37.234-29.203 26.001 43.02 61.325 10.59 47.173-25.15 11.223 8.056 2.974 49.458-9.939 54.353"/><path fill="#231f20" d="M279.446 110.501c-7.082 0-16.767-5.496-23.738-11.466-8.409-7.203-12.764-14.654-11.652-19.93 1.9-8.987 16.794-20.31 29.52-25.25 8.722-3.38 15.754-3.645 19.806-.737 4.95 3.552 6.927 13.112 5.297 25.574-.908 6.94-2.83 13.829-5.412 19.407-2.032 4.389-5.441 10.001-10.143 11.78-1.112.424-2.351.616-3.684.616zm6.585-56.634c-3.155 0-7.076.859-11.459 2.56-13.292 5.155-26.293 16.02-27.818 23.251-.875 4.147 3.342 10.926 10.749 17.27 9.091 7.792 19.696 12.242 24.652 10.364 6.002-2.274 11.938-14.73 13.799-28.966 1.475-11.268-.127-20.074-4.174-22.981-1.393-.997-3.348-1.493-5.743-1.493z"/><path fill="#fff" d="M103.412 161.508c0-16.731 11.954-30.289 26.706-30.289s26.706 13.558 26.706 30.289c0 11.201-5.363 20.981-13.331 26.224-6.508 1.679-21.442 4.339-32.278-4.83-4.835-5.479-7.803-13.029-7.803-21.394"/><path fill="#231f20" d="M156.801 162.692c-.357 10.705-5.616 19.984-13.309 25.04-2.235.578-5.462 1.267-9.179 1.558-10.247-1.343-18.237-12.22-18.237-25.431 0-14.12 9.124-25.563 20.374-25.563s19.867 10.815 20.351 24.396"/><path fill="#00d4fb" d="M151.114 175.523c-.49 4.851-2.202 8.651-7.621 12.209-2.56.815-5.644 1.299-9.179 1.558-6.354-.831-11.844-5.331-15.093-11.785-.754-6.124 1.586-10.072 5.402-12.33.859-.507 1.955.011 2.092.997.49 3.557 2.517 10.75 10.699 11.135 4.725.226 7.874-4.042 9.168-8.729.298-1.079 1.674-1.387 2.412-.55 1.768 1.999 2.417 4.515 2.12 7.495" opacity=".93"/><path fill="#fff" d="M140.995 156.738c3.269 0 5.919-3.02 5.919-6.746 0-3.725-2.65-6.746-5.919-6.746-3.27 0-5.92 3.021-5.92 6.746s2.65 6.746 5.92 6.746"/><path fill="#231f20" d="M111.236 182.924c-13.887-12.909-12.263-38.191 3.343-49.31 5.258-3.877 12.037-5.727 18.562-4.978 20.456 2.522 30.632 26.114 23.209 44.127-2.252 5.59-6.162 10.689-11.294 13.861 8.392-7.836 11.669-20.298 8.998-31.345-2.384-10.464-10.583-19.941-21.536-21.169-5.198-.606-10.544.765-14.938 3.772-14.097 9.78-16.503 30.927-6.338 45.047z"/><path fill="#fff" d="M269.512 161.508c0-16.731-11.955-30.289-26.706-30.289-14.752 0-26.706 13.558-26.706 30.289 0 11.201 5.363 20.981 13.331 26.224 6.508 1.68 21.441 4.339 32.278-4.83 4.835-5.479 7.803-13.029 7.803-21.394"/><path fill="#231f20" d="M216.121 162.692c.358 10.705 5.617 19.985 13.309 25.04 2.236.578 5.462 1.267 9.179 1.559 10.248-1.344 18.237-12.221 18.237-25.432 0-14.12-9.124-25.563-20.373-25.563s-19.867 10.816-20.352 24.396"/><path fill="#00d4fb" d="M221.812 175.523c.49 4.852 2.202 8.651 7.62 12.209 2.561.815 5.644 1.3 9.18 1.558 6.354-.831 11.844-5.33 15.093-11.785.754-6.123-1.586-10.072-5.402-12.33-.859-.506-1.955.011-2.093.997-.49 3.558-2.516 10.75-10.699 11.135-4.724.226-7.874-4.042-9.168-8.728-.297-1.08-1.674-1.388-2.411-.551-1.768 1.999-2.418 4.516-2.12 7.495" opacity=".93"/><path fill="#fff" d="M231.932 156.739c3.269 0 5.919-3.021 5.919-6.746s-2.65-6.747-5.919-6.747-5.919 3.021-5.919 6.747 2.65 6.746 5.919 6.746"/><path fill="#231f20" d="M261.693 182.924c10.165-14.12 7.759-35.266-6.338-45.047-4.394-3.007-9.741-4.378-14.939-3.772-10.952 1.233-19.151 10.705-21.535 21.169-2.671 11.047.606 23.504 8.997 31.346-5.132-3.172-9.041-8.272-11.293-13.862-7.423-18.013 2.753-41.605 23.209-44.127 6.52-.749 13.298 1.101 18.562 4.978 15.6 11.119 17.23 36.401 3.343 49.31z"/><path fill="#bf2a31" d="M202.75 200.574c-8.563-2.384-23.595-2.147-31.959.154-5.997 1.653-10.556-1.222-14.02-3.695.854 14.484 4.786 38.858 31.359 38.858 26.574 0 29.371-25.691 29.493-40.091-4.191 1.784-8.321 6.597-14.873 4.774"/><path fill="#ff6e70" d="M215.678 212.338c-3 11.966-10.341 23.553-27.553 23.553-13.287 0-20.914-6.091-25.324-13.999-1.542-2.764-2.693-5.755-3.552-8.783 3.992-6.592 10.952-11.626 19.349-13.768h.011l18.926.193c7.742 2.148 14.206 6.779 18.143 12.804"/><path fill="#ff9595" d="M213.835 218.113c-3.816 9.659-11.304 17.776-25.709 17.776-13.287 0-20.913-6.09-25.324-13.999a35 35 0 0 1-1.641-3.348c5.782-6.135 15.517-10.166 26.546-10.166s20.302 3.839 26.128 9.737"/><path fill="#231f20" d="M188.128 237.267c-12.158 0-21.084-4.945-26.524-14.704-3.541-6.344-5.573-14.67-6.206-25.448l-.17-2.874 2.345 1.674c3.436 2.456 7.544 4.951 12.858 3.486 8.909-2.451 24.184-2.522 32.691-.154 4.174 1.162 7.285-.788 10.297-2.671 1.244-.782 2.423-1.515 3.667-2.043l1.933-.821-.016 2.104c-.061 7.197-1.036 17.556-5.325 26.053-5.165 10.221-13.755 15.403-25.544 15.403zm-29.778-37.503c2.037 23.372 11.8 34.749 29.778 34.749 22.934 0 27.549-21.824 28.066-36.412-.429.259-.87.534-1.316.815-3.188 1.994-7.153 4.477-12.494 2.99-7.973-2.219-22.851-2.147-31.221.155-5.391 1.481-9.774-.408-12.808-2.291z"/><path fill="#231f20" d="M167.302 202.584c-5.209 0-9.257-2.929-12.12-5-.512-.369-.997-.721-1.459-1.035a1.375 1.375 0 1 1 1.547-2.275c.485.325.991.694 1.525 1.08 3.48 2.516 7.808 5.644 13.629 4.042 8.909-2.451 24.184-2.522 32.691-.154 4.168 1.162 7.285-.788 10.297-2.671 2.076-1.3 4.036-2.528 6.277-2.754a1.378 1.378 0 1 1 .276 2.743c-1.597.159-3.299 1.222-5.094 2.351-3.188 1.994-7.147 4.477-12.494 2.991-7.973-2.22-22.851-2.148-31.221.154a14.5 14.5 0 0 1-3.854.528M169.67 184.532c.705-2.676 3.018-3.734 5.171-2.759 2.213 1.146 2.659 3.905.787 6.019-.05.066-.154.066-.209 0a7.32 7.32 0 0 0-5.694-2.825c-.226-.016-.082-.314-.06-.435zM197.894 187.527c-1.002-2.489-.771-4.439 1.277-5.661 2.164-1.124 5.11 0 5.589 2.88.022.088-.049.176-.137.17-2.506-.121-4.532 1.46-6.421 2.919-.193.127-.253-.198-.314-.314zM140.09 107.086c-1.388-1.129-3.04-1.536-4.714-1.878-4.064-.765-8.215-.027-11.701 2.231-.738.457-1.448.997-2.219 1.542a9.2 9.2 0 0 1 1.289-2.517c2.901-4.07 8.804-5.314 13.281-3.31 1.712.777 3.563 2.038 4.069 3.938zM233.19 107.087c.507-1.9 2.357-3.161 4.07-3.938 4.482-1.999 10.379-.76 13.281 3.31a9.2 9.2 0 0 1 1.289 2.517c-.777-.546-1.482-1.085-2.22-1.542-3.485-2.258-7.637-2.996-11.701-2.231-1.674.342-3.325.749-4.713 1.878z"/><path fill="#ffb6b5" d="M120.209 199.806c.682-6.427-7.048-12.517-17.267-13.602-10.218-1.084-19.055 3.246-19.737 9.673s7.048 12.516 17.267 13.601 19.055-3.245 19.737-9.672M272.803 209.456c10.218-1.085 17.949-7.175 17.267-13.601s-9.519-10.758-19.738-9.673-17.949 7.175-17.267 13.601 9.519 10.758 19.738 9.673"/><path fill="#00d4fb" d="M177.332 116.31c.182-7.49 6.63-18.388 10.286-18.311 4.218.088 10.539 11.163 10.286 18.311-.265 7.423-6.487 18.03-10.286 18.31-3.673.27-10.495-9.78-10.286-18.31"/><path fill="#2df8ff" d="M187.022 108.248c-.985 6.08-4.256 10.574-6.971 10.133-1.156-.187-2.081-1.261-2.676-2.908.49-5.969 4.526-13.662 7.918-16.427 1.448 1.994 2.362 5.314 1.729 9.202"/><path fill="#231f20" d="M187.464 136.003c-1.3 0-2.72-.727-4.229-2.159-3.651-3.475-7.445-10.815-7.28-17.567.182-7.522 6.691-19.654 11.63-19.654h.06c1.498.033 3.09.93 4.741 2.676 3.475 3.679 7.104 11.245 6.894 17.061-.126 3.645-1.624 8.31-3.997 12.468-1.184 2.076-4.295 6.927-7.566 7.17-.083.005-.171.011-.253.011zm-8.755-19.66c-.138 5.667 3.226 12.462 6.426 15.508 1.134 1.079 1.982 1.432 2.378 1.399 2.72-.204 8.761-9.792 9.014-16.989.176-4.946-3.034-11.785-6.145-15.073-1.525-1.62-2.467-1.806-2.797-1.812h-.017c-2.279 0-8.683 9.56-8.865 16.967z"/><path fill="#00d4fb" d="M184.801 3.148c-5.622 9.924-17.88 32.893-20.044 48.037a17.13 17.13 0 0 0 3.266 12.716c6.04 8.057 12.973 18.184 16.761 23.79 1.382 2.049 4.378 2.115 5.848.127 4.427-5.975 12.835-17.16 19.118-24.462 3.596-4.18 5.016-9.808 3.761-15.177-3.502-14.98-16.646-36.016-22.747-45.24-1.443-2.176-4.675-2.065-5.963.209"/><path fill="#2eb0d1" d="M185.679 47.06c-3.293 4.863-10.743 14.192-12.01 21.616-.38 2.208.314 4.45 1.911 6.234 3.535 3.948 7.874 10.837 10.088 13.585.809 1.003 2.56 1.036 3.425.061 2.593-2.93 7.24-10.337 10.919-13.916 2.103-2.049 2.935-4.808 2.202-7.44-2.048-7.341-9.471-15.723-13.044-20.244-.843-1.068-2.737-1.013-3.491.1z"/><path fill="#2df8ff" d="M209.75 63.362c-.787.92-1.613 1.895-2.456 2.919 2.06-3.833 2.781-8.525 1.9-13.03-2.869-14.736-13.678-35.41-18.645-44.502-1.751-3.205-3.315-3.006-4.889.204-4.747 9.698-14.653 32.36-16.432 47.25-.528 4.433.441 8.933 2.677 12.512.682 1.096 1.382 2.23 2.092 3.387a430 430 0 0 0-5.974-8.195 17.15 17.15 0 0 1-3.266-12.715c2.164-15.144 14.422-38.114 20.044-48.038 1.288-2.274 4.52-2.384 5.963-.209 6.096 9.224 19.245 30.255 22.741 45.24 1.256 5.37-.165 10.997-3.755 15.177"/><path fill="#231f20" d="M187.753 90.649h-.104a4.97 4.97 0 0 1-4.003-2.187c-3.64-5.385-10.65-15.634-16.723-23.735-2.974-3.965-4.229-8.844-3.524-13.74 2.219-15.496 14.872-39.094 20.208-48.516a4.84 4.84 0 0 1 4.075-2.467 4.83 4.83 0 0 1 4.234 2.18c5.699 8.619 19.35 30.322 22.94 45.686 1.343 5.75-.176 11.874-4.058 16.39-6.245 7.263-14.62 18.393-19.053 24.384a4.97 4.97 0 0 1-3.986 2.01zM186.002 3.83c-5.258 9.29-17.725 32.519-19.878 47.553a15.66 15.66 0 0 0 3.007 11.697c6.106 8.145 13.149 18.437 16.8 23.845.407.6 1.057.958 1.778.97a2.17 2.17 0 0 0 1.823-.893c4.455-6.019 12.874-17.21 19.179-24.54 3.314-3.848 4.608-9.07 3.463-13.965-3.485-14.93-16.932-36.296-22.554-44.794a2.08 2.08 0 0 0-1.839-.947 2.08 2.08 0 0 0-1.773 1.074z"/></svg>