<svg xmlns="http://www.w3.org/2000/svg" width="48" height="48" fill="none" viewBox="0 0 48 48"><g clip-path="url(#a)"><mask id="b" width="48" height="48" x="0" y="0" maskUnits="userSpaceOnUse" style="mask-type:alpha"><circle cx="24" cy="24" r="23.415" fill="#d9d9d9"/></mask><g mask="url(#b)"><path fill="url(#c)" d="M72.98 31.783 5.879-22.181l-30.837 38.343 67.101 53.964z"/><path fill="url(#d)" d="M72.98 31.783 42.143 70.126 3.81 39.298C7.726 36.346 40.26 11.8 44.225 8.658z"/><mask id="e" width="98" height="94" x="-25" y="-23" maskUnits="userSpaceOnUse" style="mask-type:luminance"><path fill="#fff" d="M72.98 31.783 5.879-22.181l-30.837 38.343 67.101 53.964z"/></mask><g mask="url(#e)"><path fill="#6e6e6e" d="m5.174-24.778-.766.952L15.213 3.657zM13.353-18.926 19.05 6.288l-4.543-24.285zM64.548 22.246l-23.358.866 24.445.009zM63.927 45.241l-16.543-8.52 16.167 8.988zM43.016 4.93 31.272 15.79 43.597 5.397zM-8.62-7.626l-.392.487L5.312 6.486zM30.316-5.284l-4.222 16.328 4.843-15.828zM46.323 7.589l-9.425 6.487 9.848-6.147zM-2.13 36.737l5.761-3.222-6.009 3.023zM47.219 8.31l-13.533 8.509 14.128-8.03zM67.032 24.244l-25.931-.263 27.19 1.275z" style="mix-blend-mode:overlay"/><path fill="#6e6e6e" d="M-1.876 36.942 9.87 30.29l-12.254 6.244zM30.68-4.99 25.83 12.641 31.353-4.45zM60.702 49.251 37.374 33.664 60.15 49.938zM42.968 4.89l-1.234 1.175 1.295-1.125zM4.676 42.21l6.25-6.74-6.582 6.474zM47.35 8.414l-11.443 7.14L47.85 8.819zM10.106-21.538l8.574 30.18-7.105-28.998zM19.242 53.925 20.77 38.59l-2.114 14.864zM69.361 38.485 38.99 28.917l29.672 10.436zM-3.081-14.513l-.405.503L7.476 1.418zM-12.16 28.67l20.44-3.238-21.325 2.527zM27.045-7.915 25.113 6.888l2.495-14.35zM29.874-5.64 27.095 6.114 30.321-5.28zM41.844 3.987l-1.215 1.281 1.279-1.23zM-15.363 26.095 7.333 24.34l-23.721.93zM66.788 41.684 41.285 31.366 66.21 42.403zM59.28 18.01 41.046 20.9l19.025-2.255zM5.528-25.219l-.233.29L15.767 3.704l-9.14-28.038zM9.708 46.258l.876-1.631-.942 1.577zM13.483 49.293l1.289-3.887-1.44 3.766z" style="mix-blend-mode:overlay"/><path fill="#6e6e6e" d="M27.268-7.735 25.07 8.07l2.8-15.323zM-9.594-6.415l-.596.74 22.702 19.972zM63.027 46.36l-17.32-9.607 16.924 10.1zM4.964 42.443l5.512-6.128-5.81 5.888zM40.352 2.787l-9.823 11.67L40.901 3.23zM-2.622 36.342l13.605-7.127-14.185 6.66zM-5.457-11.559l-.321.4L4.29.866z" style="mix-blend-mode:overlay"/><path fill="#6e6e6e" d="m40.438 2.856-8.373 9.905 8.84-9.529zM-3.203 35.874l7.453-3.731-7.77 3.476zM49.328 63.394l-14.356-21.1L48.777 64.08zM-17.846 3.846l-.572.711 25.26 11.449zM55.78 55.372 37.2 37.747l18.073 18.256zM-17.88 24.07l21.464-.516-22.475-.296zM12.794 48.74l3.164-8.536-3.495 8.27zM66.235 42.372 40.985 31.63l24.679 11.452zM64.299 44.78 40.359 32.74l23.396 12.715zM-16.212 1.815l-.47.583 20.59 10.836z" style="mix-blend-mode:overlay"/><path fill="#6e6e6e" d="M55.366 55.887 33.32 34.29l21.434 22.357zM20.14-13.468 21.6 5.735l-.676-18.572zM-16.468 2.133l-.425.528 18.675 9.632zM3.279 41.087l4.256-4.027-4.47 3.856zM28.345 61.246 24.994 40.41l2.45 20.11zM46.196 7.487l-1.578 1.118 1.65-1.06zM52.388 12.467l-7.272 2.814 7.577-2.569zM-10.731-5l-.536.665L9.941 12.859zM52.85 12.839l-16.903 6.105 17.609-5.538zM63.503 21.405l-27.39 1.543 28.647-.532zM52.143 59.894l-18.49-22.527 17.89 23.274zM25.59-9.085 24.33 6.443l1.855-15.049zM14.435 50.059l1.088-3.804-1.234 3.687zM75.167 31.266l-27.829-3.902 27.125 4.777zM26.136 59.47 24.25 42.067l1.162 16.819zM37.826.756l-7.53 11.505 8.025-11.107zM66.73 41.756l-27.268-11.11 26.652 11.877zM-.448 38.09l1.511-1.003-1.577.95zM64.575 44.436 36.584 30.63 63.94 45.225zM57.77 16.795 43.558 19.66l14.818-2.378zM2.63 40.565l2.935-2.618-3.078 2.503zM31.857 64.07l-4.38-18.349 3.529 17.665zM6.361 43.566l4.966-6.357-5.256 6.124zM44.89 6.437 31.622 16.755 45.505 6.93zM-14.904.188l-.618.768L11.275 16.6z" style="mix-blend-mode:overlay"/><path fill="#6e6e6e" d="M44.986 6.514 31.68 16.773 45.603 7.01zM51.695 60.452 32.287 36.05l18.759 25.209zM48.58 64.325 35.666 44.38l12.392 20.593zM9.804 46.335l.815-1.537-.879 1.485zM-12.279-3.077l-.388.483L3.378 9.046zM46.966 8.106l-7.368 4.802 7.694-4.54zM73.939 32.793l-30.347-5.298 29.6 6.227zM13.683-18.66l4.859 21.986-3.857-21.18zM27.202-7.789l-1.65 12.282L27.67-7.412zM35.565-1.062 30.792 8.28l5.153-9.037zM-8-8.397l-.277.345L1.56 1.77zM14.86 50.4l4.11-14.871-4.678 14.415zM7.925 44.824l.884-1.35-.94 1.304zM60.303 18.832l-13.453 1.82 14.042-1.346zM59.999 50.126l-19.7-13.827 19.228 14.414z" style="mix-blend-mode:overlay"/><path fill="#6e6e6e" d="M48.342 64.62 32.12 39.034l15.553 26.42zM63.621 45.622 37.024 31.441l25.991 14.935zM33.142-3.011 29.72 5.964l3.772-8.695zM54.537 56.917l-14.59-15.024 14.171 15.545zM41.02 3.324l-.556.634.587-.61zM36.148-.594 29.986 10.66 36.61-.222zM4.11-23.455l-.775.963L15.405 5.77zM60.99 19.385l-17.424 2.032 18.193-1.414zM-23.999 11.496l-.823 1.024 34.457 7.775zM51.05 11.391l-13.269 5.805 13.826-5.358zM-8.89-7.29l-.26.323 9.592 8.99zM44.743 69.095 29.342 37.78l14.564 32.357z" style="mix-blend-mode:overlay"/><path fill="#6e6e6e" d="m-23.98 11.474-.602.748L.667 18.02zM2.664 40.593l9.205-8.115-9.652 7.755zM57.821 52.834 35.55 34.476l21.705 19.062zM58.99 51.382 45.3 41.087l13.354 10.711zM-22.436 20.407l31.01 1.922-32.601-3.202zM59.458 18.153 42.67 20.748l17.515-2.01zM50.985 61.335 31.039 34.95l19.37 27.101zM54.306 14.009l-14.17 4.397 14.762-3.92zM13.633 49.414l4.226-12.71-4.716 12.316zM42.129 4.216l-3.727 3.808 3.919-3.654zM53.322 13.218l-16.02 5.513 16.688-4.976zM21.418 55.675l.607-20.75-1.416 20.1zM6.015 43.288l3.609-4.48-3.817 4.313zM-5.344 34.152l17.114-6.714-17.83 6.14zM41.335 3.578l-10.688 11.56L41.904 4.034z" style="mix-blend-mode:overlay"/><path fill="#6e6e6e" d="m41.83 3.976-.835.885.88-.85zM-5.234-11.836l-.388.482L6.37 3.163zM7.57 44.538l2.379-3.478-2.53 3.356zM45.047 6.563l-6.14 4.779 6.427-4.549zM40.776 3.128l-5.472 6.319 5.774-6.076z" style="mix-blend-mode:overlay"/><path fill="#6e6e6e" d="m40.89 3.22-7.727 8.775L41.31 3.56zM55.513 14.98l-17.24 4.616 17.963-4.035zM23.517 57.363l-.506-12.77-.005 12.36zM19.49 54.124l1.6-17.363-2.265 16.83zM4.227 41.85l2.658-2.769-2.797 2.657zM7.497 44.48l.499-.73-.531.704zM58.745 51.685l-11.478-8.769 11.194 9.122zM69.442 38.385 36.958 28.19l31.809 11.033zM70.36 37.244l-30.038-8.472 29.338 9.341zM53.358 58.383l-12.504-13.93L52.98 58.854zM54.832 56.551 42.444 44.076l12.037 12.91zM21.53 55.765l.274-13.169-.79 12.754z" style="mix-blend-mode:overlay"/><path fill="#6e6e6e" d="M55.296 55.973 34.544 35.572l20.173 21.122zM40.921 3.245l-.845.975.892-.938zM.088 38.52l3.672-2.56-3.837 2.428zM33.329-2.861l-3.775 9.647 4.151-9.344zM45.905 67.65 34.531 46.534l10.816 21.811zM-20.598 7.268l-.602.748L5.124 17.1zM5.886 43.184l6.87-8.336-7.259 8.023zM-8.039 31.985l13.638-3.967-14.21 3.508zM43.826 70.236 30.136 40.56l12.889 30.672zM55.996 55.104 39.96 40.156l15.603 15.486zM29.613-5.85l-4.2 18.205 4.89-17.649zM51.44 60.769 36.07 41.193l14.85 20.222zM70.475 27.013l-31.697-2.164 33.336 3.482zM41.027 3.33l-6.858 7.705L41.4 3.63zM26.475-8.373 24.599 8.405l2.516-16.263zM-12.396 28.48l15.433-2.39-16.103 1.852zM-24.39 11.984l-.672.834L2.88 18.847zM-21.549 8.45l-.736.915L9.56 19.19zM.362-18.795l-.542.674 11.5 20.577zM17.192 52.276l1.912-10.994-2.329 10.66zM20.602-13.096l1.508 24.74-.505-23.934zM-2.36-15.41l-.645.802 16.807 24.68zM-16.906 2.677l-.508.631 22.38 11.07zM17.468-15.617l3.554 25.776-2.458-24.894zM-7.106 32.736l10.762-3.52-11.21 3.159z" style="mix-blend-mode:overlay"/><path fill="#6e6e6e" d="M21.083-12.71 21.817.82l-.189-13.09zM63.98 21.789l-18.95.956 19.823-.254zM18.274-14.969l2.488 20.46-1.628-19.768zM2.193 40.214l10.095-8.489-10.577 8.101zM58.127 17.082 41.359 20.27l17.485-2.612zM2.774 40.682l.568-.515-.596.492zM46.043 7.364 43.1 9.47l3.076-1.999zM-10.783-4.937l-.471.586L7.438 10.783zM31.085-4.665l-4.269 14.702 4.831-14.25zM-14.496-.32l-.434.54L3.752 11.58zM39.007 1.705l-1.851 2.561 1.964-2.47zM4.456 42.034l2.701-2.877-2.844 2.762zM3.735-22.989l-.766.952L15.315 6.065zM18.977 53.712l1.208-11.352-1.642 11.003zM52.97 12.935l-15.018 5.378 15.644-4.875zM17.005-15.99l3.92 26.46-2.786-25.547zM-25.345 18.067l30.01 3.17-31.639-4.48zM58.558 51.918 32.79 31.648l25.238 20.929z" style="mix-blend-mode:overlay"/></g><g fill="#ffc773" style="mix-blend-mode:overlay"><path d="m3.723 39.39 2.15-1.27 24.06-12.259-5.46-2.183L5.644 37.936zM43.989 8.902l-2.215 1.312-22.579 11.238 5.278 2.226 17.535-13.276z"/></g></g><mask id="f" width="48" height="48" x="0" y="0" maskUnits="userSpaceOnUse" style="mask-type:alpha"><circle cx="24" cy="24" r="23.415" fill="#d9d9d9"/></mask><g mask="url(#f)"><path fill="#00bf9a" d="M13.244 45.008c-.63 1.092-2.976 5.542-.405 9.552-1.103 1.47-.922 2.226.147 2.6 1 .35 5.444.61 7.35-.892.222-.175.382-.417.454-.69.441-1.685.453-3.52.453-4.656z"/><path fill="#00a192" d="M21.243 50.923c0 1.136-.012 2.972-.453 4.657a1.3 1.3 0 0 1-.453.689c-.418.329-.957.573-1.555.75 1.136-1.25.846-2.495-.429-3.146 1.633-1.203-.236-2.708-2.78-7.142z"/><path fill="#231f20" d="M15.505 57.595c-1.159 0-2.144-.13-2.573-.28-.531-.186-.844-.457-.957-.827-.147-.485.071-1.118.667-1.935-1.069-1.719-1.392-3.7-.96-5.894.328-1.672 1.031-3.056 1.422-3.731l.09-.158 8.212 6.072v.082c0 1.03 0 2.95-.458 4.698-.08.304-.262.58-.51.776-1.076.847-2.827 1.106-4.108 1.176q-.423.022-.825.022zm-2.209-12.346c-.39.703-.998 1.967-1.294 3.472-.422 2.149-.094 4.083.975 5.75l.061.096-.068.09c-.57.762-.8 1.345-.682 1.735.08.265.327.466.753.614.904.317 5.304.624 7.196-.866.194-.153.335-.367.396-.603.436-1.662.447-3.499.448-4.532l-7.784-5.756"/><path fill="#00bf9a" d="M34.422 45.008c.63 1.092 2.977 5.542.406 9.552 1.103 1.47.922 2.226-.147 2.6-1 .35-5.444.61-7.35-.892a1.3 1.3 0 0 1-.454-.69c-.441-1.685-.453-3.52-.453-4.656z"/><path fill="#00a192" d="M26.424 50.923c0 1.136.012 2.972.453 4.657.071.273.232.514.453.689.418.329.957.573 1.555.75-1.136-1.25-.847-2.495.429-3.146-1.633-1.203.236-2.708 2.78-7.142z"/><path fill="#231f20" d="M32.162 57.595q-.403 0-.825-.023c-1.28-.068-3.032-.328-4.108-1.176a1.47 1.47 0 0 1-.51-.776c-.458-1.748-.458-3.667-.458-4.697v-.083l.066-.049 8.145-6.023.091.158c.39.676 1.093 2.059 1.422 3.732.431 2.193.109 4.176-.96 5.894.596.817.814 1.45.667 1.934-.113.371-.426.642-.957.828-.43.15-1.414.28-2.573.28m-5.574-6.59c0 1.034.011 2.87.447 4.533.062.236.203.45.396.602 1.892 1.491 6.292 1.184 7.196.867.426-.15.672-.35.753-.614.119-.39-.111-.973-.683-1.735l-.068-.09.062-.096c1.069-1.667 1.397-3.602.975-5.75-.296-1.505-.904-2.77-1.294-3.472l-7.784 5.756"/><path fill="#fff0cb" d="M9.54 41.156c-.54.346-2.496 2.235-2.054 3.45.357.983 1.687-.45 2.12-1.082l-.065-2.368"/><path fill="#231f20" d="M7.888 45.103a1 1 0 0 1-.074-.005c-.155-.02-.364-.111-.482-.436-.262-.723.226-1.598.682-2.205.517-.688 1.153-1.255 1.44-1.438l.242-.155.074 2.709-.03.043c-.272.398-1.176 1.488-1.851 1.488zm1.498-3.626c-.693.582-2.096 2.115-1.748 3.073.067.186.156.217.217.225.386.049 1.169-.711 1.586-1.3z"/><path fill="#00bf9a" d="M17.874 33.434c-2.632 1.323-6.527 3.788-8.712 7.38-2.03 3.337.633 5.753 2.772 4.87 4.506-1.863 8.736-9.944 8.265-10.91-.197-.64-2.325-1.34-2.325-1.34"/><path fill="#00a192" d="M11.935 45.683c-.628.26-1.3.235-1.886-.014 4.674-.932 7.736-10.684 7.56-11.46-.111-.356-.85-.73-1.462-.985.336-.184 1.422.365 1.727.21 0 0 2.13.7 2.325 1.34.472.966-3.759 9.047-8.264 10.91"/><path fill="#231f20" d="M11.012 46.029a2.7 2.7 0 0 1-2.04-.953c-.356-.415-1.404-1.956.05-4.346 2.309-3.796 6.49-6.291 8.778-7.441l.06-.03.064.02c.367.12 2.197.753 2.426 1.435.047.099.154.39-.255 1.469-.569 1.5-1.768 3.562-3.054 5.25-1.175 1.542-3.004 3.558-5.046 4.401a2.6 2.6 0 0 1-.984.196zm6.875-12.418c-2.269 1.147-6.34 3.595-8.585 7.288-.905 1.487-.935 2.97-.082 3.965.667.78 1.733 1.048 2.652.668 3.585-1.482 6.98-6.985 7.92-9.465.364-.961.272-1.198.26-1.221l-.008-.024c-.066-.213-.71-.727-2.157-1.211"/><path fill="#fff0cb" d="M10.287 45.023c.529-.114.816.473.622.816-.259.456-.906.933-1.407.827-.414-.088-.427-.711-.307-.943.14-.272.687-.614 1.092-.7"/><path fill="#231f20" d="M9.639 46.843a.8.8 0 0 1-.175-.02.53.53 0 0 1-.372-.346c-.115-.305-.044-.762.166-1.062a.5.5 0 0 1 .127-.129c.18-.128.532-.354.87-.424.303-.063.572.032.739.261a.76.76 0 0 1 .058.795c-.333.587-.962.925-1.413.925m.795-1.673a.6.6 0 0 0-.114.012c-.29.06-.617.28-.745.37a.2.2 0 0 0-.05.05c-.149.214-.205.554-.128.76.047.122.119.14.143.145.39.094.99-.333 1.227-.749a.43.43 0 0 0-.038-.442.35.35 0 0 0-.296-.146"/><path fill="#fff0cb" d="M9.435 45.423c-.1-.98-.431-1.967-1.2-.964-.352.457-.494 1.312-.132 1.537s1.118-.294 1.332-.573"/><path fill="#231f20" d="M8.317 46.214a.56.56 0 0 1-.3-.08c-.14-.087-.233-.24-.27-.444-.073-.398.081-.97.357-1.331.297-.387.567-.54.826-.465.35.099.574.608.667 1.512l.006.064-.039.052c-.192.25-.779.692-1.247.692m.49-2.011c-.11 0-.268.126-.444.355-.222.29-.352.762-.295 1.074.013.077.046.178.121.225.232.145.84-.225 1.076-.486-.09-.794-.282-1.123-.424-1.163a.1.1 0 0 0-.034-.005"/><path fill="#fff0cb" d="M38.434 41.405c.54.345 2.497 2.235 2.055 3.45-.357.982-1.687-.451-2.12-1.083z"/><path fill="#231f20" d="M40.086 45.352c-.676 0-1.579-1.09-1.852-1.488l-.03-.043.075-2.71.243.156c.285.183.921.75 1.439 1.438.456.607.944 1.482.682 2.205-.118.326-.328.417-.482.437a1 1 0 0 1-.074.004zm-1.553-1.63c.417.59 1.199 1.35 1.586 1.301.061-.007.15-.039.217-.224.349-.959-1.054-2.492-1.748-3.073z"/><path fill="#00bf9a" d="M30.1 33.683c2.632 1.323 6.527 3.787 8.712 7.38 2.03 3.337-.633 5.753-2.772 4.87-4.505-1.863-8.736-9.944-8.265-10.91.197-.64 2.326-1.34 2.326-1.34"/><path fill="#00a192" d="M36.04 45.932c.628.26 1.3.235 1.886-.014h-.002c-4.672-.932-7.735-10.684-7.558-11.46.11-.356.85-.73 1.461-.985-.336-.185-1.422.364-1.727.21 0 0-2.129.7-2.325 1.34-.471.965 3.759 9.046 8.265 10.909"/><path fill="#231f20" d="M36.962 46.278c-.332 0-.666-.064-.984-.195-2.042-.844-3.871-2.86-5.047-4.402-1.286-1.688-2.485-3.75-3.054-5.25-.408-1.08-.301-1.37-.254-1.47.23-.68 2.06-1.312 2.425-1.433l.065-.021.06.03c2.287 1.15 6.468 3.645 8.777 7.44 1.454 2.391.406 3.932.05 4.347-.529.618-1.278.953-2.04.953zm-6.874-12.419c-1.448.485-2.091.998-2.157 1.212l-.009.023c-.012.024-.103.26.261 1.221.94 2.48 4.334 7.984 7.92 9.466.918.38 1.985.111 2.652-.668.853-.996.823-2.478-.082-3.965-2.246-3.693-6.316-6.141-8.585-7.289"/><path fill="#fff0cb" d="M37.688 45.271c-.53-.113-.817.474-.622.816.258.456.905.934 1.407.828.413-.088.427-.712.306-.943-.14-.272-.687-.614-1.091-.7"/><path fill="#231f20" d="M38.336 47.092c-.451 0-1.08-.338-1.413-.925a.76.76 0 0 1 .058-.794c.167-.23.436-.324.74-.261.337.07.688.295.868.424q.075.053.127.128c.21.3.28.757.165 1.061a.53.53 0 0 1-.371.348.8.8 0 0 1-.175.02m-.795-1.673a.35.35 0 0 0-.296.146.43.43 0 0 0-.038.442c.236.416.835.844 1.226.75.024-.007.096-.024.143-.146.078-.207.02-.547-.128-.76a.2.2 0 0 0-.05-.05c-.128-.091-.456-.31-.745-.37a.6.6 0 0 0-.114-.012z"/><path fill="#fff0cb" d="M38.54 45.671c.1-.979.431-1.966 1.2-.964.352.458.494 1.312.132 1.537s-1.118-.293-1.332-.573"/><path fill="#231f20" d="M39.657 46.463c-.468 0-1.054-.441-1.247-.692l-.039-.052.006-.065c.093-.904.317-1.412.667-1.512.26-.073.53.08.826.466.277.36.43.932.358 1.331-.037.203-.13.356-.27.444a.56.56 0 0 1-.3.08m-.947-.843c.237.26.844.631 1.076.486.075-.047.108-.148.121-.225.057-.313-.073-.785-.295-1.074-.195-.254-.37-.381-.478-.35-.141.04-.334.369-.424 1.163"/><path fill="#00bf9a" d="m34.817 45.78-.02.036c-1.401 2.601-5.647 7.547-10.977 7.568-5.331-.02-9.576-4.967-10.978-7.568l-.02-.036c1.092-7.921 5.193-12.342 10.188-12.787q.3-.027.606-.034l.204-.003h.032q.086 0 .17.003.306.007.605.034c4.995.444 9.098 4.864 10.19 12.787"/><path fill="#fff0cb" d="M23.829 53.326c4.74 0 8.582-3.828 8.582-8.55s-3.842-8.55-8.582-8.55-8.582 3.828-8.582 8.55 3.842 8.55 8.582 8.55"/><path fill="#ffc9a0" d="M28.576 37.652a34 34 0 0 1-4.77.335h-.028a34 34 0 0 1-4.707-.327 8.6 8.6 0 0 1 2.217-1.052q1.253.095 2.501.094h.027c.838 0 1.684-.036 2.524-.103a8.5 8.5 0 0 1 2.236 1.053"/><path fill="#231f20" d="m12.9 46.015-.295-.139.076-.16a24 24 0 0 1 .802-3.712l.312.096A24 24 0 0 0 13 45.786l-.003.025z"/><path fill="#231f20" d="m12.859 45.8-.024-.034v-.003c.024-.649.101-1.295.216-1.935.346-1.913 1.006-3.809 2.134-5.405a32 32 0 0 0-1.884 5.459c-.158.623-.303 1.252-.457 1.882-.003-.012.015.037.015.035zM34.744 45.973c-.027-.05-.059-.137-.065-.154l-.006-.016-.003-.017a23.5 23.5 0 0 0-.91-4.056l.31-.102c.41 1.259.72 2.636.92 4.095.013.033.03.078.04.096l-.288.153z"/><path fill="#231f20" d="M32.446 38.353c1.512 2.154 2.255 4.804 2.39 7.413l-.023.034.016-.038v.003c-.579-2.54-1.27-5.046-2.382-7.412"/><path fill="#2df8ff" d="M32.16 17.46c.35-.661 1.227-2.007 1.366-3.819a.387.387 0 0 0-.348-.42c-1.212-.1-3.588.764-4.583 2.274 1.265 1.872 3.565 1.965 3.565 1.965"/><path fill="#00d4fb" d="M31.67 17.397c1.03-1.607 1.328-2.98 1.407-3.489a.183.183 0 0 0-.182-.215c-1.086.03-3.194.8-3.97 2.008 1.034 1.588 2.744 1.696 2.744 1.696"/><path fill="#231f20" d="m32.257 17.628-.103-.004c-.097-.004-2.398-.118-3.695-2.037l-.06-.09.06-.09c1.044-1.585 3.501-2.448 4.733-2.347a.55.55 0 0 1 .498.594c-.125 1.618-.817 2.86-1.231 3.603l-.154.28zm-3.464-2.134c1.066 1.486 2.837 1.752 3.274 1.796l.107-.192c.4-.719 1.071-1.922 1.19-3.469a.224.224 0 0 0-.199-.245c-1.103-.09-3.373.704-4.372 2.11"/><path fill="#2df8ff" d="M30.514 15.08c.275-.826 1.027-2.542.812-4.64a.46.46 0 0 0-.498-.408c-1.45.13-4.07 1.597-4.928 3.524 1.883 1.883 4.614 1.524 4.614 1.524"/><path fill="#00d4fb" d="M29.922 15.108c.88-2.044.944-3.674.931-4.272a.218.218 0 0 0-.26-.209c-1.273.254-3.599 1.562-4.26 3.098 1.55 1.605 3.589 1.382 3.589 1.382"/><path fill="#231f20" d="M29.942 15.274c-.928 0-2.757-.2-4.158-1.601l-.08-.08.046-.102c.896-2.011 3.598-3.488 5.063-3.62.338-.031.641.217.676.554.19 1.869-.365 3.425-.697 4.355q-.071.198-.123.353l-.032.097-.102.013c-.03.004-.25.031-.592.031m-3.846-1.753c1.599 1.522 3.806 1.446 4.297 1.407l.091-.258c.323-.904.863-2.417.68-4.212a.296.296 0 0 0-.321-.263c-1.33.12-3.864 1.501-4.747 3.326"/><path fill="#2df8ff" d="M15.612 17.513c-.35-.662-1.227-2.008-1.366-3.82a.387.387 0 0 1 .349-.42c1.212-.099 3.587.764 4.583 2.274-1.265 1.872-3.566 1.965-3.566 1.965"/><path fill="#00d4fb" d="M16.103 17.45c-1.031-1.607-1.329-2.981-1.408-3.49a.184.184 0 0 1 .182-.215c1.086.03 3.194.8 3.97 2.008-1.034 1.588-2.744 1.697-2.744 1.697"/><path fill="#231f20" d="m15.516 17.68-.049-.09-.154-.282c-.413-.742-1.106-1.984-1.23-3.602a.55.55 0 0 1 .498-.595c1.232-.1 3.688.763 4.732 2.347l.06.09-.06.09c-1.297 1.92-3.597 2.033-3.695 2.037zm-.729-4.25q-.093 0-.18.006a.224.224 0 0 0-.199.245c.119 1.547.79 2.75 1.19 3.468l.107.192c.437-.044 2.21-.312 3.274-1.795-.947-1.334-3.038-2.117-4.192-2.117"/><path fill="#2df8ff" d="M17.259 15.133c-.275-.827-1.027-2.542-.813-4.64a.46.46 0 0 1 .498-.41c1.45.132 4.07 1.598 4.929 3.526-1.883 1.883-4.614 1.523-4.614 1.523"/><path fill="#00d4fb" d="M17.85 15.16c-.879-2.044-.943-3.674-.93-4.271a.218.218 0 0 1 .26-.21c1.273.255 3.599 1.562 4.26 3.098-1.55 1.605-3.59 1.382-3.59 1.382z"/><path fill="#231f20" d="M17.83 15.326c-.342 0-.562-.027-.592-.032l-.102-.013-.032-.097-.123-.352c-.332-.93-.888-2.487-.697-4.355a.624.624 0 0 1 .675-.555c1.466.133 4.168 1.61 5.064 3.62l.045.103-.08.08c-1.4 1.4-3.23 1.6-4.157 1.6zm-.45-.345c.49.038 2.698.114 4.296-1.408-.883-1.824-3.416-3.205-4.747-3.326a.296.296 0 0 0-.32.263c-.184 1.796.356 3.308.679 4.212q.05.14.091.259"/><path fill="#00a192" d="M13.617 36.274s.103.05.162.073c1.561.614 3.395 1.047 5.292 1.313a8.6 8.6 0 0 1 2.217-1.052c-2.19-.169-4.363-.569-6.394-1.263-.366.252-.913.645-1.277.93M32.794 35.418c-1.947.583-4.181.998-6.454 1.18a8.5 8.5 0 0 1 2.236 1.054c1.949-.28 3.819-.744 5.41-1.413-.685-.488-.92-.663-1.192-.821"/><path fill="#00bf9a" d="M37.28 28.358a8.4 8.4 0 0 0-.714-1.271c.173-.775.198-1.48.198-2.303 0-6.383-5.46-11.592-12.32-11.896l-.164-.006a13 13 0 0 0-.33-.008h-.308c-7.09.07-12.814 5.375-12.814 11.91 0 .823.025 1.528.198 2.303q-.447.665-.717 1.28c-.323.675-.467 1.313-.456 1.915-.066 4.47 7.599 6.413 13.93 6.413h.026c6.331 0 13.997-1.943 13.93-6.413.011-.604-.134-1.245-.459-1.924"/><path fill="#231f20" d="M14.663 35.43c-3.286-1.196-5.005-2.977-4.973-5.151-.011-.636.147-1.306.472-1.984.176-.4.409-.818.69-1.242-.155-.729-.187-1.413-.187-2.27 0-3.204 1.35-6.223 3.8-8.498 2.446-2.27 5.704-3.54 9.175-3.574a13 13 0 0 1 .48.002l.166.005.164.007c3.366.148 6.505 1.467 8.84 3.713 2.345 2.257 3.637 5.22 3.637 8.346 0 .856-.032 1.54-.186 2.27.278.419.51.835.689 1.237.324.678.484 1.35.474 1.993.032 2.164-1.681 3.942-4.954 5.139l-.113-.307c2.183-.798 4.778-2.285 4.74-4.833.01-.597-.14-1.22-.444-1.856a8 8 0 0 0-.702-1.25l-.04-.058.016-.069c.162-.73.194-1.383.194-2.267 0-3.035-1.257-5.916-3.538-8.11-2.277-2.191-5.341-3.477-8.627-3.623l-.163-.006-.161-.005-.164-.003h-.305c-3.39.034-6.57 1.272-8.956 3.487-2.383 2.214-3.697 5.147-3.697 8.26 0 .884.032 1.538.195 2.267l.015.069-.04.058a8 8 0 0 0-.703 1.254c-.305.637-.452 1.257-.442 1.847-.038 2.56 2.567 4.047 4.759 4.845z"/><path fill="#231f20" d="M29.894 36.1c.856-.306 1.718-.56 2.574-.854a42 42 0 0 0 2.531-.953c-1.383 1.081-3.367 1.684-5.105 1.807M12.412 34.184c.891.392 1.78.749 2.699 1.059.917.317 1.844.58 2.767.893-1.892-.136-3.965-.767-5.466-1.953"/><path fill="#fff0cb" d="M12.527 19.38c1.311.497 4.703-2.09 4.413-3.461-.327-1.55-4.305-3.904-5.59-2.98-1.33.954-.353 5.86 1.177 6.44"/><path fill="#ffc9a0" d="M12.527 19.38c1.311.497 4.703-2.09 4.413-3.461-3.081 5.098-7.268 1.255-5.59-2.98-1.33.954-.353 5.86 1.177 6.44"/><path fill="#231f20" d="M12.906 19.606a1.2 1.2 0 0 1-.437-.073c-.557-.212-.961-.876-1.202-1.396-.306-.661-.534-1.478-.642-2.3-.193-1.476.042-2.61.628-3.031.48-.345 1.314-.314 2.347.088 1.508.584 3.274 1.926 3.499 2.992.132.625-.384 1.508-1.381 2.362-.826.707-1.974 1.358-2.813 1.358m-.782-6.711c-.283 0-.516.059-.68.177-.48.344-.67 1.388-.495 2.723.22 1.688.924 3.163 1.636 3.433.588.223 1.843-.306 2.922-1.228.877-.752 1.377-1.556 1.273-2.047-.18-.857-1.721-2.144-3.297-2.755-.52-.202-.985-.304-1.359-.304"/><path fill="#fff0cb" d="M35.184 19.484c-1.311.498-4.703-2.089-4.413-3.46.328-1.55 4.305-3.905 5.591-2.981 1.33.955.352 5.861-1.178 6.441"/><path fill="#ffc9a0" d="M35.184 19.484c-1.311.498-4.703-2.089-4.413-3.46 3.082 5.098 7.268 1.254 5.591-2.981 1.33.955.352 5.861-1.178 6.441"/><path fill="#231f20" d="M34.805 19.71c-.84 0-1.987-.651-2.814-1.358-.996-.854-1.512-1.737-1.38-2.362.225-1.065 1.99-2.407 3.498-2.993 1.034-.4 1.867-.432 2.348-.087.587.42.82 1.554.628 3.03-.108.823-.336 1.64-.642 2.3-.24.52-.645 1.186-1.202 1.397q-.199.074-.437.073zm.781-6.712c-.374 0-.838.102-1.358.304-1.575.61-3.116 1.899-3.297 2.755-.104.492.396 1.295 1.274 2.047 1.077.924 2.334 1.45 2.922 1.228.711-.27 1.415-1.745 1.635-3.433.175-1.335-.015-2.378-.494-2.723-.166-.118-.397-.177-.681-.177"/><path fill="#fff" d="M13.942 25.755c0-1.983 1.416-3.59 3.165-3.59 1.748 0 3.165 1.607 3.165 3.59 0 1.327-.636 2.486-1.58 3.108-.771.199-2.541.514-3.826-.573-.573-.649-.925-1.544-.925-2.535"/><path fill="#231f20" d="M20.27 25.895c-.043 1.269-.666 2.369-1.578 2.968-.265.068-.647.15-1.088.184-1.214-.159-2.161-1.448-2.161-3.013 0-1.674 1.08-3.03 2.414-3.03s2.355 1.282 2.412 2.891"/><path fill="#00d4fb" d="M19.595 27.416c-.058.575-.26 1.025-.903 1.447a4.8 4.8 0 0 1-1.088.184c-.753-.098-1.404-.631-1.789-1.396-.09-.726.188-1.194.64-1.461a.165.165 0 0 1 .248.118c.059.421.299 1.274 1.268 1.32.56.026.934-.48 1.087-1.035a.167.167 0 0 1 .286-.065c.21.237.287.535.251.888" opacity=".93"/><path fill="#fff" d="M18.396 25.19c.387 0 .701-.358.701-.8 0-.441-.314-.8-.701-.8-.388 0-.702.359-.702.8s.314.8.702.8"/><path fill="#231f20" d="M14.869 28.293c-1.646-1.53-1.454-4.526.396-5.844a3.15 3.15 0 0 1 2.2-.59c2.425.3 3.63 3.095 2.75 5.23-.266.662-.73 1.267-1.338 1.643.995-.929 1.383-2.406 1.067-3.715-.283-1.24-1.255-2.363-2.553-2.509a2.62 2.62 0 0 0-1.77.447c-1.671 1.16-1.956 3.665-.751 5.339z"/><path fill="#fff" d="M33.628 25.755c0-1.983-1.417-3.59-3.165-3.59s-3.165 1.607-3.165 3.59c0 1.327.635 2.486 1.58 3.108.771.199 2.541.514 3.825-.573.573-.649.925-1.544.925-2.535"/><path fill="#231f20" d="M27.3 25.895c.043 1.269.666 2.369 1.578 2.968.265.068.647.15 1.088.184 1.214-.159 2.161-1.448 2.161-3.013 0-1.674-1.081-3.03-2.415-3.03-1.333 0-2.354 1.282-2.412 2.891"/><path fill="#00d4fb" d="M27.974 27.416c.058.575.261 1.025.904 1.447.303.096.669.154 1.088.184.753-.098 1.403-.631 1.788-1.396.09-.726-.187-1.194-.64-1.461a.165.165 0 0 0-.248.118c-.058.421-.298 1.274-1.268 1.32-.56.026-.933-.48-1.086-1.035a.167.167 0 0 0-.286-.065c-.21.237-.287.535-.252.888" opacity=".93"/><path fill="#fff" d="M29.174 25.19c.387 0 .701-.358.701-.8 0-.441-.314-.8-.701-.8s-.702.359-.702.8.314.8.702.8"/><path fill="#231f20" d="M32.7 28.293c1.206-1.673.92-4.18-.75-5.338a2.62 2.62 0 0 0-1.771-.447c-1.298.146-2.27 1.268-2.552 2.508-.317 1.31.071 2.786 1.066 3.715-.608-.376-1.072-.98-1.339-1.643-.88-2.135.327-4.93 2.751-5.23a3.15 3.15 0 0 1 2.2.59c1.85 1.318 2.042 4.315.396 5.844z"/><path fill="#bf2a31" d="M25.715 30.385c-1.015-.283-2.796-.255-3.788.018-.71.196-1.251-.145-1.662-.438.102 1.717.568 4.605 3.717 4.605s3.481-3.044 3.496-4.751c-.497.211-.986.782-1.763.566"/><path fill="#ff6e70" d="M27.248 31.779c-.356 1.418-1.226 2.791-3.266 2.791-1.575 0-2.478-.722-3.001-1.659a5 5 0 0 1-.421-1.04c.473-.782 1.298-1.379 2.293-1.633h.002l2.243.023c.917.255 1.683.804 2.15 1.518"/><path fill="#ff9595" d="M27.03 32.463c-.453 1.145-1.34 2.107-3.048 2.107-1.575 0-2.478-.722-3.001-1.659a4 4 0 0 1-.195-.397c.686-.727 1.84-1.205 3.147-1.205s2.406.455 3.096 1.154"/><path fill="#231f20" d="M23.982 34.733c-1.44 0-2.499-.586-3.143-1.742-.42-.752-.66-1.739-.736-3.016l-.02-.34.278.198c.407.29.894.586 1.524.413 1.056-.29 2.866-.3 3.874-.019.495.138.864-.093 1.22-.316.148-.093.288-.18.436-.242l.229-.098-.002.25c-.008.853-.123 2.08-.631 3.087-.613 1.212-1.63 1.826-3.028 1.826m-3.53-4.444c.242 2.77 1.4 4.118 3.53 4.118 2.719 0 3.265-2.586 3.327-4.315q-.076.046-.156.096c-.378.236-.848.53-1.481.355-.945-.263-2.709-.255-3.7.018-.64.175-1.159-.048-1.519-.272"/><path fill="#231f20" d="M21.514 30.623c-.617 0-1.097-.347-1.436-.593l-.173-.122a.163.163 0 1 1 .183-.27q.086.059.18.128c.413.298.926.669 1.616.479 1.056-.29 2.866-.299 3.875-.018.494.137.863-.094 1.22-.317.246-.154.479-.3.744-.326a.163.163 0 1 1 .033.325c-.19.019-.391.145-.604.279-.378.236-.847.53-1.48.354-.946-.263-2.71-.255-3.701.018q-.24.065-.457.063M21.794 28.484c.084-.318.358-.443.613-.328.262.136.315.463.093.714-.006.008-.018.008-.025 0a.87.87 0 0 0-.674-.335c-.027-.002-.01-.037-.008-.052zM25.14 28.839c-.12-.295-.092-.526.15-.671a.457.457 0 0 1 .663.341c.003.01-.006.02-.016.02-.297-.014-.537.173-.761.346-.023.015-.03-.023-.037-.037M18.289 19.306c-.165-.134-.36-.183-.559-.223a1.9 1.9 0 0 0-1.387.264c-.087.054-.171.118-.263.183q.052-.16.153-.298c.344-.482 1.043-.63 1.574-.392.203.092.422.241.482.466M29.324 19.306c.06-.226.279-.375.482-.467.531-.237 1.23-.09 1.574.392q.1.14.153.298c-.092-.064-.176-.128-.263-.182a1.9 1.9 0 0 0-1.387-.265c-.199.04-.394.09-.559.223"/><path fill="#ffb5b6" d="M15.932 30.294c.08-.762-.836-1.483-2.047-1.612-1.21-.128-2.258.385-2.34 1.146-.08.762.836 1.484 2.047 1.612s2.259-.384 2.34-1.146M34.018 31.437c1.211-.128 2.127-.85 2.047-1.612-.081-.761-1.129-1.275-2.34-1.146s-2.127.85-2.046 1.612c.08.761 1.128 1.275 2.34 1.146"/><path fill="#00d4fb" d="M22.703 20.399c.021-.888.785-2.18 1.219-2.17.5.01 1.249 1.323 1.219 2.17-.032.88-.77 2.136-1.22 2.17-.435.032-1.243-1.16-1.218-2.17"/><path fill="#2df8ff" d="M23.851 19.443c-.117.72-.504 1.253-.826 1.201-.137-.022-.247-.15-.317-.344.058-.708.536-1.62.938-1.947.172.236.28.63.205 1.09"/><path fill="#231f20" d="M23.903 22.733q-.232-.001-.5-.256c-.433-.412-.883-1.282-.864-2.082.022-.892.793-2.33 1.379-2.33h.007q.267.007.562.318c.412.436.842 1.332.817 2.022-.015.432-.193.984-.474 1.477-.14.246-.509.821-.897.85zm-1.037-2.33c-.017.671.382 1.477.761 1.838.135.127.235.17.282.165.323-.024 1.039-1.16 1.069-2.013.02-.586-.36-1.397-.729-1.786-.18-.192-.292-.215-.331-.215h-.002c-.27 0-1.03 1.133-1.051 2.01"/><path fill="#00d4fb" d="M23.588 6.988c-.666 1.176-2.119 3.898-2.376 5.693a2.03 2.03 0 0 0 .387 1.507 77 77 0 0 1 1.987 2.819c.164.243.519.25.693.015.525-.708 1.521-2.034 2.266-2.9a2.05 2.05 0 0 0 .446-1.798c-.415-1.775-1.973-4.268-2.696-5.361a.415.415 0 0 0-.707.025"/><path fill="#00a9d2" d="M23.691 12.192c-.39.576-1.273 1.682-1.423 2.561a.88.88 0 0 0 .226.74c.42.467.933 1.284 1.196 1.61.096.118.303.122.406.006.307-.347.858-1.225 1.294-1.649.25-.243.348-.57.261-.882-.243-.87-1.122-1.863-1.546-2.399-.1-.126-.324-.12-.414.012"/><path fill="#2df8ff" d="M26.545 14.124q-.14.163-.29.345c.243-.454.329-1.01.224-1.544-.34-1.746-1.62-4.196-2.21-5.274-.207-.38-.392-.356-.58.025-.562 1.149-1.736 3.835-1.947 5.6a2.3 2.3 0 0 0 .318 1.482l.248.401a51 51 0 0 0-.709-.97 2.03 2.03 0 0 1-.387-1.508c.257-1.794 1.71-4.517 2.376-5.693a.415.415 0 0 1 .707-.024c.722 1.093 2.28 3.585 2.695 5.361a2.05 2.05 0 0 1-.445 1.799"/><path fill="#231f20" d="M23.937 17.357h-.012a.59.59 0 0 1-.475-.259 78 78 0 0 0-1.982-2.813 2.18 2.18 0 0 1-.417-1.628c.263-1.837 1.762-4.633 2.395-5.75.1-.176.28-.286.483-.292.201-.008.39.09.502.258.675 1.022 2.293 3.594 2.718 5.415.16.681-.02 1.407-.48 1.942-.74.86-1.733 2.18-2.259 2.89a.59.59 0 0 1-.472.238M23.73 7.07c-.624 1.1-2.101 3.853-2.356 5.635-.07.493.055.986.356 1.386a77 77 0 0 1 1.991 2.826.26.26 0 0 0 .21.115.26.26 0 0 0 .217-.106c.528-.713 1.526-2.04 2.273-2.908a1.89 1.89 0 0 0 .41-1.655c-.412-1.77-2.006-4.301-2.673-5.308a.25.25 0 0 0-.218-.113.25.25 0 0 0-.21.128"/><path fill="#00d4fb" fill-opacity=".602" d="M23.858 38.333v3.522l2.977 1.33z"/><path fill="#a3f1ff" d="m23.858 38.333-2.977 4.852 2.977-1.33z"/><path fill="#97efff" d="M23.858 45.468v2.393l2.98-4.122z"/><path fill="#61e6ff" d="M23.858 47.861v-2.394l-2.977-1.728z"/><path fill="#a4f1ff" d="m23.858 44.914 2.977-1.729-2.977-1.33z"/><path fill="#e6fbff" d="m20.88 43.185 2.978 1.729v-3.058z"/><path fill="url(#g)" d="M25.949 43.227c0-3.496-.954-6.33-2.131-6.33s-2.13 2.834-2.13 6.33.953 6.33 2.13 6.33 2.13-2.833 2.13-6.33" style="mix-blend-mode:screen"/><path fill="url(#h)" d="M24.362 43.228c0-3.497-.244-6.331-.544-6.331s-.544 2.834-.544 6.33.244 6.331.544 6.331.543-2.834.543-6.33" style="mix-blend-mode:screen"/><path fill="url(#i)" d="M24 43.228c0-3.497-.082-6.331-.182-6.331s-.181 2.834-.181 6.33.08 6.331.181 6.331.181-2.834.181-6.33" style="mix-blend-mode:screen"/><path fill="url(#j)" d="M24.338 43.227c0-2.091-.233-3.787-.52-3.787s-.52 1.696-.52 3.787.233 3.788.52 3.788.52-1.696.52-3.788" style="mix-blend-mode:screen"/><path fill="url(#k)" d="M23.818 47.847c1.982 0 3.59-1.484 3.59-3.314s-1.608-3.314-3.59-3.314c-1.983 0-3.59 1.484-3.59 3.314s1.607 3.314 3.59 3.314" style="mix-blend-mode:screen"/><path fill="url(#l)" d="M27.407 44.533c0 .34-1.607.615-3.59.615s-3.589-.275-3.589-.615c0-.341 1.607-.616 3.59-.616s3.59.275 3.59.616" style="mix-blend-mode:screen"/><path fill="url(#m)" d="M23.818 44.737c1.982 0 3.59-.091 3.59-.204s-1.608-.205-3.59-.205c-1.983 0-3.59.092-3.59.205s1.607.204 3.59.204" style="mix-blend-mode:screen"/><path fill="url(#n)" d="M23.818 45.123c1.186 0 2.147-.264 2.147-.59s-.961-.59-2.147-.59-2.148.264-2.148.59.962.59 2.148.59" style="mix-blend-mode:screen"/><path fill="url(#o)" d="M23.818 48.644c.793 0 1.436-1.84 1.436-4.111s-.643-4.112-1.436-4.112-1.436 1.841-1.436 4.112.643 4.111 1.436 4.111" style="mix-blend-mode:screen"/><path fill="url(#p)" d="M23.818 46.953c1.393 0 2.522-1.084 2.522-2.42 0-1.337-1.129-2.42-2.522-2.42-1.394 0-2.523 1.083-2.523 2.42s1.13 2.42 2.523 2.42" style="mix-blend-mode:screen"/><path fill="url(#q)" d="M25.182 41.8c.077.153-.473 1.501-1.226 3.01-.753 1.51-1.425 2.61-1.502 2.456s.472-1.502 1.225-3.01c.754-1.51 1.426-2.61 1.503-2.456" style="mix-blend-mode:screen"/><path fill="url(#r)" d="M22.454 41.8c.077-.154.75.946 1.502 2.455.753 1.51 1.303 2.857 1.226 3.011s-.75-.946-1.503-2.456c-.753-1.509-1.302-2.857-1.225-3.01" style="mix-blend-mode:screen"/><path fill="url(#s)" d="M24.342 41.999c.07.058-.106 1.239-.396 2.64-.29 1.398-.58 2.486-.65 2.428s.105-1.24.395-2.64c.29-1.398.58-2.486.65-2.428" style="mix-blend-mode:screen"/><path fill="url(#t)" d="M22.553 43.483c.03-.142.619.212 1.318.792.698.58 1.24 1.164 1.211 1.305s-.618-.212-1.317-.792c-.698-.58-1.24-1.164-1.212-1.305" style="mix-blend-mode:screen"/><path fill="url(#u)" d="M23.294 41.999c.07-.058.363 1.027.651 2.428.29 1.398.466 2.579.395 2.64-.07.058-.362-1.028-.65-2.428-.29-1.399-.467-2.582-.396-2.64" style="mix-blend-mode:screen"/><path fill="url(#v)" d="M22.553 45.583c-.029-.142.513-.727 1.212-1.305.698-.58 1.288-.934 1.317-.793.03.142-.512.727-1.211 1.305-.698.58-1.289.934-1.318.793" style="mix-blend-mode:screen"/><path fill="url(#w)" d="M23.818 49.623c.142 0 .257-2.279.257-5.09s-.115-5.09-.257-5.09-.257 2.278-.257 5.09.115 5.09.257 5.09" style="mix-blend-mode:screen"/></g></g><defs><radialGradient id="c" cx="0" cy="0" r="1" gradientTransform="rotate(38.807 -31.956 58.028)scale(47.8977)" gradientUnits="userSpaceOnUse"><stop stop-color="#ffe300"/><stop offset=".24" stop-color="#feca00"/><stop offset=".74" stop-color="#fc8d00"/><stop offset="1" stop-color="#fb6c00"/></radialGradient><radialGradient id="d" cx="0" cy="0" r="1" gradientTransform="rotate(38.807 -20.86 47.446)scale(45.1863)" gradientUnits="userSpaceOnUse"><stop stop-color="#fff"/><stop offset=".462" stop-color="#48e3ff"/><stop offset="1" stop-color="#00a9d2"/></radialGradient><radialGradient id="g" cx="0" cy="0" r="1" gradientTransform="matrix(0 -6.32397 2.12788 0 23.818 43.245)" gradientUnits="userSpaceOnUse"><stop stop-color="#00f"/><stop offset=".11" stop-color="#0000cb"/><stop offset=".24" stop-color="#000095"/><stop offset=".37" stop-color="#000068"/><stop offset=".5" stop-color="#000042"/><stop offset=".63" stop-color="#000025"/><stop offset=".75" stop-color="#000010"/><stop offset=".88" stop-color="#000004"/><stop offset="1"/></radialGradient><radialGradient id="h" cx="0" cy="0" r="1" gradientTransform="matrix(0 -6.32397 .53694 0 23.872 73.276)" gradientUnits="userSpaceOnUse"><stop stop-color="#00f"/><stop offset=".11" stop-color="#0000cb"/><stop offset=".24" stop-color="#000095"/><stop offset=".37" stop-color="#000068"/><stop offset=".5" stop-color="#000042"/><stop offset=".63" stop-color="#000025"/><stop offset=".75" stop-color="#000010"/><stop offset=".88" stop-color="#000004"/><stop offset="1"/></radialGradient><radialGradient id="i" cx="0" cy="0" r="1" gradientTransform="matrix(0 -6.32397 .17898 0 23.892 43.246)" gradientUnits="userSpaceOnUse"><stop offset=".15" stop-color="#fff"/><stop offset=".6" stop-color="#0071bc"/><stop offset=".63" stop-color="#00609f"/><stop offset=".7" stop-color="#00436f"/><stop offset=".76" stop-color="#002a47"/><stop offset=".83" stop-color="#001828"/><stop offset=".89" stop-color="#000a11"/><stop offset=".95" stop-color="#000204"/><stop offset="1"/></radialGradient><radialGradient id="j" cx="0" cy="0" r="1" gradientTransform="matrix(0 -3.79755 .51395 0 23.883 43.203)" gradientUnits="userSpaceOnUse"><stop offset=".15" stop-color="#fff"/><stop offset=".54" stop-color="#0071bc"/><stop offset=".57" stop-color="#00609f"/><stop offset=".65" stop-color="#00436f"/><stop offset=".73" stop-color="#002a47"/><stop offset=".8" stop-color="#001828"/><stop offset=".87" stop-color="#000a11"/><stop offset=".94" stop-color="#000204"/><stop offset="1"/></radialGradient><radialGradient id="k" cx="0" cy="0" r="1" gradientTransform="matrix(3.58859 0 0 3.32418 23.805 44.569)" gradientUnits="userSpaceOnUse"><stop stop-color="#00f"/><stop offset=".11" stop-color="#0000cb"/><stop offset=".24" stop-color="#000095"/><stop offset=".37" stop-color="#000068"/><stop offset=".5" stop-color="#000042"/><stop offset=".63" stop-color="#000025"/><stop offset=".75" stop-color="#000010"/><stop offset=".88" stop-color="#000004"/><stop offset="1"/></radialGradient><radialGradient id="l" cx="0" cy="0" r="1" gradientTransform="matrix(3.58859 0 0 .61056 23.805 44.57)" gradientUnits="userSpaceOnUse"><stop stop-color="#00f"/><stop offset=".11" stop-color="#0000cb"/><stop offset=".24" stop-color="#000095"/><stop offset=".37" stop-color="#000068"/><stop offset=".5" stop-color="#000042"/><stop offset=".63" stop-color="#000025"/><stop offset=".75" stop-color="#000010"/><stop offset=".88" stop-color="#000004"/><stop offset="1"/></radialGradient><radialGradient id="m" cx="0" cy="0" r="1" gradientTransform="matrix(3.58859 0 0 .20352 23.805 44.593)" gradientUnits="userSpaceOnUse"><stop offset=".15" stop-color="#fff"/><stop offset=".6" stop-color="#0071bc"/><stop offset=".63" stop-color="#00609f"/><stop offset=".7" stop-color="#00436f"/><stop offset=".76" stop-color="#002a47"/><stop offset=".83" stop-color="#001828"/><stop offset=".89" stop-color="#000a11"/><stop offset=".95" stop-color="#000204"/><stop offset="1"/></radialGradient><radialGradient id="n" cx="0" cy="0" r="1" gradientTransform="matrix(2.1525 0 0 .58376 23.844 44.582)" gradientUnits="userSpaceOnUse"><stop offset=".15" stop-color="#fff"/><stop offset=".54" stop-color="#0071bc"/><stop offset=".57" stop-color="#00609f"/><stop offset=".65" stop-color="#00436f"/><stop offset=".73" stop-color="#002a47"/><stop offset=".8" stop-color="#001828"/><stop offset=".87" stop-color="#000a11"/><stop offset=".94" stop-color="#000204"/><stop offset="1"/></radialGradient><radialGradient id="o" cx="0" cy="0" r="1" gradientTransform="matrix(0 -4.11866 1.4372 0 23.828 44.478)" gradientUnits="userSpaceOnUse"><stop stop-color="#00f"/><stop offset=".11" stop-color="#0000cb"/><stop offset=".24" stop-color="#000095"/><stop offset=".37" stop-color="#000068"/><stop offset=".5" stop-color="#000042"/><stop offset=".63" stop-color="#000025"/><stop offset=".75" stop-color="#000010"/><stop offset=".88" stop-color="#000004"/><stop offset="1"/></radialGradient><radialGradient id="p" cx="0" cy="0" r="1" gradientTransform="matrix(0 -2.41545 2.51896 0 23.8 44.558)" gradientUnits="userSpaceOnUse"><stop offset=".15" stop-color="#fff"/><stop offset=".42" stop-color="#006fb9"/><stop offset=".47" stop-color="#00558d"/><stop offset=".52" stop-color="#003e68"/><stop offset=".58" stop-color="#002b47"/><stop offset=".63" stop-color="#001b2d"/><stop offset=".7" stop-color="#000f19"/><stop offset=".77" stop-color="#00060a"/><stop offset=".86" stop-color="#000102"/><stop offset="1"/></radialGradient><radialGradient id="q" cx="0" cy="0" r="1" gradientTransform="rotate(-63.48 47.88 2.975)scale(3.06118 .2391)" gradientUnits="userSpaceOnUse"><stop stop-color="#0ff"/><stop offset=".02" stop-color="#00ecf6"/><stop offset=".07" stop-color="#00bade"/><stop offset=".13" stop-color="#0071bc"/><stop offset=".19" stop-color="#005e9d"/><stop offset=".28" stop-color="#004573"/><stop offset=".37" stop-color="#003050"/><stop offset=".47" stop-color="#001e32"/><stop offset=".58" stop-color="#00111c"/><stop offset=".69" stop-color="#00070c"/><stop offset=".82" stop-color="#000102"/><stop offset="1"/></radialGradient><radialGradient id="r" cx="0" cy="0" r="1" gradientTransform="rotate(243.479 25.68 15.05)scale(3.06118 .2391)" gradientUnits="userSpaceOnUse"><stop stop-color="#0ff"/><stop offset=".02" stop-color="#00ecf6"/><stop offset=".07" stop-color="#00bade"/><stop offset=".13" stop-color="#0071bc"/><stop offset=".19" stop-color="#005e9d"/><stop offset=".28" stop-color="#004573"/><stop offset=".37" stop-color="#003050"/><stop offset=".47" stop-color="#001e32"/><stop offset=".58" stop-color="#00111c"/><stop offset=".69" stop-color="#00070c"/><stop offset=".82" stop-color="#000102"/><stop offset="1"/></radialGradient><radialGradient id="s" cx="0" cy="0" r="1" gradientTransform="matrix(.525 -2.53987 .1392 .02877 23.773 44.432)" gradientUnits="userSpaceOnUse"><stop stop-color="#0ff"/><stop offset=".02" stop-color="#00ecf6"/><stop offset=".07" stop-color="#00bade"/><stop offset=".13" stop-color="#0071bc"/><stop offset=".19" stop-color="#005e9d"/><stop offset=".28" stop-color="#004573"/><stop offset=".37" stop-color="#003050"/><stop offset=".47" stop-color="#001e32"/><stop offset=".58" stop-color="#00111c"/><stop offset=".69" stop-color="#00070c"/><stop offset=".82" stop-color="#000102"/><stop offset="1"/></radialGradient><radialGradient id="t" cx="0" cy="0" r="1" gradientTransform="rotate(219.694 19.961 18.135)scale(1.64721 .2238)" gradientUnits="userSpaceOnUse"><stop stop-color="#0ff"/><stop offset=".02" stop-color="#00ecf6"/><stop offset=".07" stop-color="#00bade"/><stop offset=".13" stop-color="#0071bc"/><stop offset=".19" stop-color="#005e9d"/><stop offset=".28" stop-color="#004573"/><stop offset=".37" stop-color="#003050"/><stop offset=".47" stop-color="#001e32"/><stop offset=".58" stop-color="#00111c"/><stop offset=".69" stop-color="#00070c"/><stop offset=".82" stop-color="#000102"/><stop offset="1"/></radialGradient><radialGradient id="u" cx="0" cy="0" r="1" gradientTransform="rotate(258.321 29.996 12.663)scale(2.59356 .14214)" gradientUnits="userSpaceOnUse"><stop stop-color="#0ff"/><stop offset=".02" stop-color="#00ecf6"/><stop offset=".07" stop-color="#00bade"/><stop offset=".13" stop-color="#0071bc"/><stop offset=".19" stop-color="#005e9d"/><stop offset=".28" stop-color="#004573"/><stop offset=".37" stop-color="#003050"/><stop offset=".47" stop-color="#001e32"/><stop offset=".58" stop-color="#00111c"/><stop offset=".69" stop-color="#00070c"/><stop offset=".82" stop-color="#000102"/><stop offset="1"/></radialGradient><radialGradient id="v" cx="0" cy="0" r="1" gradientTransform="rotate(140.306 3.85 26.673)scale(1.64721 .2238)" gradientUnits="userSpaceOnUse"><stop stop-color="#0ff"/><stop offset=".02" stop-color="#00ecf6"/><stop offset=".07" stop-color="#00bade"/><stop offset=".13" stop-color="#0071bc"/><stop offset=".19" stop-color="#005e9d"/><stop offset=".28" stop-color="#004573"/><stop offset=".37" stop-color="#003050"/><stop offset=".47" stop-color="#001e32"/><stop offset=".58" stop-color="#00111c"/><stop offset=".69" stop-color="#00070c"/><stop offset=".82" stop-color="#000102"/><stop offset="1"/></radialGradient><radialGradient id="w" cx="0" cy="0" r="1" gradientTransform="matrix(0 -5.10216 .24887 0 23.704 44.478)" gradientUnits="userSpaceOnUse"><stop stop-color="#0ff"/><stop offset=".02" stop-color="#00ecf6"/><stop offset=".07" stop-color="#00bade"/><stop offset=".13" stop-color="#0071bc"/><stop offset=".19" stop-color="#005e9d"/><stop offset=".28" stop-color="#004573"/><stop offset=".37" stop-color="#003050"/><stop offset=".47" stop-color="#001e32"/><stop offset=".58" stop-color="#00111c"/><stop offset=".69" stop-color="#00070c"/><stop offset=".82" stop-color="#000102"/><stop offset="1"/></radialGradient><clipPath id="a"><path fill="#fff" d="M0 0h48v48H0z"/></clipPath></defs></svg>