<svg xmlns="http://www.w3.org/2000/svg" width="87" height="82" fill="none" viewBox="0 0 87 82"><path fill="#e17726" stroke="#e17726" stroke-linecap="round" stroke-linejoin="round" stroke-width=".25" d="M82.466 1 48.68 26l6.283-14.734z"/><path fill="#e27625" stroke="#e27625" stroke-linecap="round" stroke-linejoin="round" stroke-width=".25" d="m4.534 1 33.485 25.233-5.982-14.967zM70.3 58.963l-8.99 13.733 19.25 5.3 5.514-18.732zM.96 59.264l5.48 18.732 19.216-5.3L16.7 58.963z"/><path fill="#e27625" stroke="#e27625" stroke-linecap="round" stroke-linejoin="round" stroke-width=".25" d="m24.617 35.77-5.347 8.066 19.048.866-.634-20.5zM62.382 35.771l-13.267-11.8-.435 20.734 19.048-.867zM25.653 72.702l11.53-5.566-9.925-7.733zM49.816 67.136l11.496 5.566-1.57-13.3z"/><path fill="#d5bfb2" stroke="#d5bfb2" stroke-linecap="round" stroke-linejoin="round" stroke-width=".25" d="m61.312 72.704-11.496-5.567.936 7.466-.1 3.167zM25.653 72.704l10.694 5.066-.067-3.167.902-7.466z"/><path fill="#233447" stroke="#233447" stroke-linecap="round" stroke-linejoin="round" stroke-width=".25" d="m36.549 54.468-9.558-2.8 6.75-3.1zM50.451 54.468l2.807-5.9 6.784 3.1z"/><path fill="#cc6228" stroke="#cc6228" stroke-linecap="round" stroke-linejoin="round" stroke-width=".25" d="m25.654 72.696 1.671-13.733-10.627.3zM59.673 58.963l1.638 13.733 8.99-13.432zM67.728 43.833 48.68 44.7l1.771 9.767 2.807-5.9 6.784 3.1zM26.99 51.666l6.75-3.1 2.807 5.9 1.771-9.766-19.048-.867z"/><path fill="#e27525" stroke="#e27525" stroke-linecap="round" stroke-linejoin="round" stroke-width=".25" d="M19.27 43.833 27.257 59.4l-.268-7.734zM60.042 51.666l-.3 7.734 7.987-15.567zM38.32 44.704l-1.772 9.767 2.24 11.532.5-15.2zM48.679 44.704l-.936 6.067.468 15.232 2.239-11.532z"/><path fill="#f5841f" stroke="#f5841f" stroke-linecap="round" stroke-linejoin="round" stroke-width=".25" d="M50.45 54.469 48.211 66l1.605 1.134 9.925-7.733.3-7.733zM26.991 51.669l.268 7.733 9.925 7.733L38.788 66l-2.24-11.533z"/><path fill="#c0ac9d" stroke="#c0ac9d" stroke-linecap="round" stroke-linejoin="round" stroke-width=".25" d="m50.65 77.767.1-3.167-.868-.733H37.116l-.836.733.067 3.167L25.653 72.7l3.743 3.067L36.982 81h13l7.62-5.233L61.31 72.7z"/><path fill="#161616" stroke="#161616" stroke-linecap="round" stroke-linejoin="round" stroke-width=".25" d="m49.816 67.134-1.605-1.133h-9.423l-1.604 1.133-.903 7.467.836-.733h12.766l.868.733z"/><path fill="#763e1a" stroke="#763e1a" stroke-linecap="round" stroke-linejoin="round" stroke-width=".25" d="m83.903 27.632 2.84-13.8L82.467 1l-32.65 24.166 12.566 10.6 17.745 5.166 3.91-4.566-1.705-1.234 2.707-2.466-2.072-1.6 2.707-2.067zM.256 13.833l2.874 13.8-1.838 1.366 2.74 2.067-2.071 1.6 2.707 2.466-1.705 1.234 3.91 4.566 17.745-5.166 12.566-10.6L4.534 1z"/><path fill="#f5841f" stroke="#f5841f" stroke-linecap="round" stroke-linejoin="round" stroke-width=".25" d="m80.127 40.935-17.745-5.166 5.347 8.066-7.987 15.566 10.56-.133h15.773zM24.62 35.769 6.874 40.935.96 59.268H16.7l10.56.133-7.986-15.566zM48.679 44.704l1.136-19.533 5.147-13.9H32.037l5.146 13.9 1.136 19.533.435 6.133.033 15.166h9.424l.033-15.166z"/></svg>